STARTFONT 2.3
FONT -FontForge-Open Sans-Bold-R-Normal-Sans--32-320-72-72-P-198-ISO10646-1
SIZE 32 72 72  2
FONTBOUNDINGBOX 62 43 -20 -9
COMMENT "Generated by fontforge, http://fontforge.sourceforge.net"
COMMENT "Digitized data copyright (c) 2010-2011, Google Corporation."
STARTPROPERTIES 41
FOUNDRY "FontForge"
FAMILY_NAME "Open Sans"
WEIGHT_NAME "Bold"
SLANT "R"
SETWIDTH_NAME "Normal"
ADD_STYLE_NAME "Sans"
PIXEL_SIZE 32
POINT_SIZE 320
RESOLUTION_X 72
RESOLUTION_Y 72
SPACING "P"
AVERAGE_WIDTH 198
CHARSET_REGISTRY "ISO10646"
CHARSET_ENCODING "1"
FONTNAME_REGISTRY ""
CHARSET_COLLECTIONS "ISO8859-2 ISO8859-5 ISO8859-7 ISO8859-9 ISO8859-4 ISO10646-1"
BITS_PER_PIXEL 2
FONT_NAME "OpenSans-Bold"
FACE_NAME "Open Sans Bold"
COPYRIGHT "Digitized data copyright (c) 2010-2011, Google Corporation."
FONT_VERSION "1.10"
FONT_ASCENT 26
FONT_DESCENT 6
UNDERLINE_POSITION -3
UNDERLINE_THICKNESS 2
X_HEIGHT 16
CAP_HEIGHT 22
RAW_ASCENT 799
RAW_DESCENT 200
NORM_SPACE 8
RELATIVE_WEIGHT 70
RELATIVE_SETWIDTH 50
SUPERSCRIPT_X 0
SUPERSCRIPT_Y 15
SUPERSCRIPT_SIZE 20
SUBSCRIPT_X 0
SUBSCRIPT_Y 4
SUBSCRIPT_SIZE 20
FIGURE_WIDTH 18
AVG_LOWERCASE_WIDTH 199
AVG_UPPERCASE_WIDTH 226
ENDPROPERTIES
CHARS 938
STARTCHAR space
ENCODING 32
SWIDTH 259 0
DWIDTH 8 0
BBX 1 1 0 0
BITMAP
00
ENDCHAR
STARTCHAR exclam
ENCODING 33
SWIDTH 286 0
DWIDTH 9 0
BBX 6 23 2 0
BITMAP
FFD0
FFD0
FFC0
FFC0
FFC0
BFC0
BFC0
BFC0
BFC0
BF80
BF80
BF80
7F80
7F80
7F80
0000
0000
0400
7F80
FFC0
FFD0
FFC0
6F40
ENDCHAR
STARTCHAR quotedbl
ENCODING 34
SWIDTH 472 0
DWIDTH 15 0
BBX 11 8 2 15
BITMAP
FF47FC
BF47FC
BF43F8
BF03F8
BF03F8
7F03F8
7F02F8
7F02F4
ENDCHAR
STARTCHAR numbersign
ENCODING 35
SWIDTH 645 0
DWIDTH 21 0
BBX 20 23 0 0
BITMAP
0002FC0FD0
0002F81FC0
0003F41FC0
0003F42F80
0007F03F80
000BF03F40
1FFFFFFFFF
1FFFFFFFFF
1FFFFFFFFF
055FD5FE55
001FC0FD00
002F81FD00
003F81FC00
7FFFFFFFFC
7FFFFFFFFC
7FFFFFFFFC
15BE57F554
00BE07F000
00FD0BF000
00FD0BE000
01FC0FE000
01FC0FD000
02F81FC000
ENDCHAR
STARTCHAR dollar
ENCODING 36
SWIDTH 570 0
DWIDTH 18 0
BBX 16 26 1 -2
BITMAP
0003D000
0003D000
006FFE90
07FFFFFD
1FFFFFFD
3FFFFFFC
7FE3D1B4
BFC3D000
BFD3D000
7FFBD000
3FFFD000
0FFFFD00
02FFFFD0
006FFFF8
0003FFFD
0003EFFE
0003D3FF
4003D2FF
B903D7FF
BFFBFFFE
BFFFFFF8
7FFFFFE0
06BFFA00
0003D000
0003D000
0003D000
ENDCHAR
STARTCHAR percent
ENCODING 37
SWIDTH 900 0
DWIDTH 29 0
BBX 27 23 1 0
BITMAP
06FE00001FD000
1FFFD0003F8000
3FFFE000BF4000
BF9FF400FE0000
BF47F802FC0000
FF07F807F80000
FF03F80BF00000
FF03F81FD00000
FF07F82FC00000
BF47F87F46FE00
7F9FF4FE1FFFD0
3FFFF1FD3FFFE0
1FFFD3F8BF9FF4
06FE0BF0BF47F8
00000FE0FF07F8
00002FC0FF03F8
00007F80FF03F8
0000BF00FF07F8
0001FD00BF47F8
0003FC007F9FF4
0007F4003FFFF0
000FE0001FFFD0
002FD00006FE00
ENDCHAR
STARTCHAR ampersand
ENCODING 38
SWIDTH 750 0
DWIDTH 24 0
BBX 23 23 1 0
BITMAP
001BFE400000
00BFFFE00000
03FFFFF80000
07FFAFFC0000
0BFC07FD0000
0BF803FD0000
0BF807FC0000
07FD1FF80000
03FFBFF40000
01FFFFD00000
00BFFF400000
02FFFC003FF0
1FFFFF007FE0
3FFEFFD0BFD0
7FF0BFF5FF80
BFD01FFFFF40
BFD007FFFE00
BFE001FFFC00
7FF906FFF800
3FFFFFFFFD00
1FFFFFFFFF40
07FFFFF9FFD0
006FFE407FF4
ENDCHAR
STARTCHAR quotesingle
ENCODING 39
SWIDTH 266 0
DWIDTH 9 0
BBX 5 8 2 15
BITMAP
FF40
BF40
BF40
BF00
BF00
7F00
7F00
7F00
ENDCHAR
STARTCHAR parenleft
ENCODING 40
SWIDTH 338 0
DWIDTH 11 0
BBX 9 28 1 -5
BITMAP
007F80
00FF00
02FD00
07F800
0BF400
1FF000
2FE000
3FD000
3FC000
7FC000
7F8000
BF8000
BF4000
BF4000
BF4000
BF4000
BF8000
7F8000
7FC000
3FC000
3FD000
2FE000
1FF000
0BF400
07F800
02FD00
01FF00
007F80
ENDCHAR
STARTCHAR parenright
ENCODING 41
SWIDTH 338 0
DWIDTH 11 0
BBX 9 28 1 -5
BITMAP
BF4000
3FC000
1FE000
0FF000
0BF800
03FC00
02FD00
01FE00
01FF00
00FF00
00FF40
00BF40
00BF40
00BF80
00BF80
00BF80
00BF40
00FF40
00FF40
01FF00
01FE00
02FD00
03FC00
0BF800
0FF400
1FE000
3FC000
BF4000
ENDCHAR
STARTCHAR asterisk
ENCODING 42
SWIDTH 544 0
DWIDTH 17 0
BBX 16 15 1 9
BITMAP
001FE000
001FE000
000FD000
000FD000
640FD018
BF9BDBFC
BFFFFFFD
FFFFFFFD
157FF950
00BFFC00
01FEFE00
03FCBF40
0BF87FD0
07F02F90
00601900
ENDCHAR
STARTCHAR plus
ENCODING 43
SWIDTH 570 0
DWIDTH 18 0
BBX 16 16 1 3
BITMAP
000BF000
000BF000
000BF000
000BF000
000BF000
000BF000
BFFFFFFF
BFFFFFFF
BFFFFFFF
555BF555
000BF000
000BF000
000BF000
000BF000
000BF000
00055000
ENDCHAR
STARTCHAR comma
ENCODING 44
SWIDTH 290 0
DWIDTH 9 0
BBX 6 8 1 -4
BITMAP
2FF0
2FF0
3FE0
3FD0
7FC0
7F40
BF00
FE00
ENDCHAR
STARTCHAR hyphen
ENCODING 45
SWIDTH 321 0
DWIDTH 10 0
BBX 9 4 1 7
BITMAP
FFFF40
FFFF40
FFFF40
FFFF40
ENDCHAR
STARTCHAR period
ENCODING 46
SWIDTH 285 0
DWIDTH 9 0
BBX 6 6 2 0
BITMAP
0400
7F80
FFC0
FFD0
FFC0
6F40
ENDCHAR
STARTCHAR slash
ENCODING 47
SWIDTH 413 0
DWIDTH 13 0
BBX 13 23 0 0
BITMAP
00007FC0
0000BF80
0001FF00
0002FE00
0003FD00
0007FC00
000BF800
000FF400
001FF000
002FE000
003FD000
00BF8000
00FF4000
01FF0000
02FE0000
03FD0000
07FC0000
0BF80000
0FF40000
1FF00000
3FD00000
7FC00000
BF800000
ENDCHAR
STARTCHAR zero
ENCODING 48
SWIDTH 570 0
DWIDTH 18 0
BBX 16 23 1 0
BITMAP
006FF900
02FFFF80
0BFFFFE0
1FFFFFF4
2FF81FFC
3FE00BFD
7FD007FE
BFD003FE
BFC003FF
BFC002FF
BFC002FF
FFC002FF
BFC002FF
BFC002FF
BFC003FF
BFD003FE
7FD007FE
3FE00BFD
2FF81FFC
1FFFFFF8
07FFFFE0
01FFFF80
006FF900
ENDCHAR
STARTCHAR one
ENCODING 49
SWIDTH 570 0
DWIDTH 18 0
BBX 12 23 2 0
BITMAP
0007FD
002FFD
00BFFD
07FFFD
1FFFFD
BFFBFD
BFCBFD
2E0BFD
080BFD
000BFD
000BFD
000BFD
000BFD
000BFD
000BFD
000BFD
000BFD
000BFD
000BFD
000BFD
000BFD
000BFD
000BFD
ENDCHAR
STARTCHAR two
ENCODING 50
SWIDTH 570 0
DWIDTH 18 0
BBX 17 23 1 0
BITMAP
006FF90000
07FFFFD000
2FFFFFF400
BFFFFFFC00
2FE41FFD00
0F4007FE00
000007FE00
000007FD00
00000BFD00
00000FF800
00002FF400
0000BFE000
0002FF8000
000BFE0000
002FF80000
00BFE00000
02FF800000
0BFE000000
2FF8000000
BFFFFFFF40
BFFFFFFF40
BFFFFFFF40
BFFFFFFF40
ENDCHAR
STARTCHAR three
ENCODING 51
SWIDTH 570 0
DWIDTH 18 0
BBX 16 23 1 0
BITMAP
01AFF900
1FFFFFD0
BFFFFFF4
3FFFFFFC
1F901FFD
04000BFD
000007FD
00000BF8
00006FF4
01FFFF90
01FFFD00
01FFFFD0
01AAFFF8
00001FFD
000007FE
000003FF
000003FF
000007FF
A5001FFE
BFFFFFFC
BFFFFFF4
BFFFFFD0
1AFFE900
ENDCHAR
STARTCHAR four
ENCODING 52
SWIDTH 570 0
DWIDTH 18 0
BBX 18 23 0 0
BITMAP
00000BFC00
00001FFC00
00007FFC00
0000FFFC00
0002FFFC00
0007FFFC00
000FEBFC00
002FDBFC00
007F8BFC00
00FF0BFC00
02FD0BFC00
07F80BFC00
1FE00BFC00
2FD00BFC00
7FFFFFFFE0
7FFFFFFFE0
7FFFFFFFE0
6AAAAFFEA0
00000BFC00
00000BFC00
00000BFC00
00000BFC00
00000BFC00
ENDCHAR
STARTCHAR five
ENCODING 53
SWIDTH 570 0
DWIDTH 18 0
BBX 16 23 1 0
BITMAP
0FFFFFF4
1FFFFFF4
1FFFFFF4
1FFFFFF4
1FF00000
2FF00000
2FF00000
2FE00000
2FFBFA00
3FFFFFD0
3FFFFFF4
2FFFFFFC
05006FFD
00000BFE
000003FE
000003FE
000007FE
00000BFD
79006FFD
7FFFFFF8
7FFFFFE0
7FFFFF80
16FFE400
ENDCHAR
STARTCHAR six
ENCODING 54
SWIDTH 570 0
DWIDTH 18 0
BBX 17 23 1 0
BITMAP
0001BFF800
002FFFF800
01FFFFF800
07FFFEB800
0FFE400000
1FF4000000
2FE0000000
7FC0000000
7F82FE4000
BF9FFFF000
BFBFFFFC00
BFFFBFFE00
FFF407FF00
FFD002FF00
BFC002FF40
BFC001FF40
BFD002FF00
7FE003FF00
3FF80BFE00
1FFFFFFD00
0BFFFFF400
01FFFFD000
002BFA0000
ENDCHAR
STARTCHAR seven
ENCODING 55
SWIDTH 570 0
DWIDTH 18 0
BBX 17 23 1 0
BITMAP
FFFFFFFF40
FFFFFFFF40
FFFFFFFF40
FFFFFFFF00
000003FE00
00000BFD00
00000FF800
00001FF400
00003FF000
00007FD000
0000BFC000
0001FF8000
0002FF0000
0003FE0000
000BFD0000
000FFC0000
002FF40000
003FF00000
007FE00000
00FFC00000
01FF800000
02FF400000
07FE000000
ENDCHAR
STARTCHAR eight
ENCODING 56
SWIDTH 570 0
DWIDTH 18 0
BBX 16 23 1 0
BITMAP
006FF900
07FFFFD0
1FFFFFF4
2FFEAFFC
3FE00BFD
3FD003FD
3FE007FD
2FF40BFC
1FFD7FF4
07FFFFE0
01FFFF40
01FFFF40
0BFFFFE0
2FF97FF8
7FE00BFE
BFC002FF
FF8001FF
BF8001FF
BFD007FF
7FFAAFFE
2FFFFFF8
0BFFFFE0
00AFFA00
ENDCHAR
STARTCHAR nine
ENCODING 57
SWIDTH 570 0
DWIDTH 18 0
BBX 16 23 1 0
BITMAP
006FF900
07FFFF80
1FFFFFE0
3FFFFFF8
7FF41FFC
BFD007FD
FFC003FE
FF8002FF
FF8002FF
FFC003FF
BFE00BFF
7FFEBFFF
2FFFFEFF
0BFFF9FF
01BF92FE
000003FD
000007FC
00001FF8
0001BFF4
1EBFFFD0
1FFFFF40
1FFFF900
1FFE9000
ENDCHAR
STARTCHAR colon
ENCODING 58
SWIDTH 285 0
DWIDTH 9 0
BBX 6 17 2 0
BITMAP
6F40
FFC0
FFD0
FFC0
7F80
0400
0000
0000
0000
0000
0000
0400
7F80
FFC0
FFD0
FFC0
6F40
ENDCHAR
STARTCHAR semicolon
ENCODING 59
SWIDTH 290 0
DWIDTH 9 0
BBX 7 21 1 -4
BITMAP
1BD0
3FF0
3FF4
3FF0
1FE0
0100
0000
0000
0000
0000
0000
0000
0000
2FF0
2FF0
3FE0
3FD0
7FC0
7F40
BF00
FE00
ENDCHAR
STARTCHAR less
ENCODING 60
SWIDTH 570 0
DWIDTH 18 0
BBX 16 17 1 3
BITMAP
0000000B
000000BF
00000BFF
0000BFFE
000BFFE4
00BFFE00
0BFFE000
7FFD0000
BFE00000
BFFE0000
1BFFE400
00BFFF40
0007FFF9
00006FFF
000006FF
0000002F
00000001
ENDCHAR
STARTCHAR equal
ENCODING 61
SWIDTH 570 0
DWIDTH 18 0
BBX 16 9 1 7
BITMAP
BFFFFFFF
BFFFFFFF
BFFFFFFF
55555555
00000000
55555555
BFFFFFFF
BFFFFFFF
BFFFFFFF
ENDCHAR
STARTCHAR greater
ENCODING 62
SWIDTH 570 0
DWIDTH 18 0
BBX 16 17 1 3
BITMAP
A0000000
BE000000
BFE00000
7FFE0000
0BFFE000
007FFE00
0007FFE0
00006FFE
00000BFF
00007FFF
001BFFF4
01BFFE40
2FFFE000
BFFD0000
BF900000
B9000000
40000000
ENDCHAR
STARTCHAR question
ENCODING 63
SWIDTH 477 0
DWIDTH 15 0
BBX 15 23 0 0
BITMAP
01BFE900
6FFFFF80
BFFFFFE0
3FFFFFF0
2E402FF4
00000FF4
00000FF4
00002FF0
0000BFE0
0007FF80
001FFD00
003FF400
007FC000
00BF8000
00BF4000
00000000
00000000
00040000
00BF8000
00FFC000
00FFD000
00FFC000
006F4000
ENDCHAR
STARTCHAR at
ENCODING 64
SWIDTH 896 0
DWIDTH 29 0
BBX 26 25 1 -2
BITMAP
00001AFFE40000
0001FFFFFF8000
001BFFFFFFF400
007FF9006FFD00
01FF400002FF00
03FD0000007F80
0BF406FFA52FD0
0FE02FFFFE0FE0
2FC0FFFFFE0BF0
3F82FE00FE07F0
3F43F800FD07F0
7F47F400FD07F0
7F07F001FD07F0
7F07F001FD0BF0
7F07F402FD0FE0
7F43FD07FE1FD0
3F42FFFFFFFF80
2FC0BFFF6FFE00
1FD01BF80BF400
0FF40000000000
07FD0000004000
01FFD4016B8000
007FFFFFFF8000
000BFFFFFF4000
00006BFFA40000
ENDCHAR
STARTCHAR A
ENCODING 65
SWIDTH 689 0
DWIDTH 22 0
BBX 22 23 0 0
BITMAP
0000FFF00000
0001FFF80000
0002FFFC0000
0003FFFD0000
000BFAFE0000
000FF5FF0000
001FF0FF4000
002FF0BF8000
003FE07FC000
007FD03FD000
00BFC02FE000
00FF801FF000
01FF400FF400
02FFFFFFF800
03FFFFFFFC00
07FFFFFFFD00
0BFFFFFFFE00
0FF80002FF00
1FF40001FF40
2FF40000FFC0
3FF00000FFD0
7FE00000BFE0
BFD000007FF0
ENDCHAR
STARTCHAR B
ENCODING 66
SWIDTH 671 0
DWIDTH 22 0
BBX 17 23 3 0
BITMAP
FFFFFA4000
FFFFFFF400
FFFFFFFD00
FFFFFFFE00
FF801BFF00
FF8003FF40
FF8002FF00
FF8003FF00
FF801BFE00
FFFFFFF800
FFFFFFD000
FFFFFFF400
FFFFFFFE00
FF8007FF40
FF8002FF80
FF8001FF80
FF8001FF80
FF8002FF80
FF801BFF40
FFFFFFFF00
FFFFFFFD00
FFFFFFF400
FFFFFE4000
ENDCHAR
STARTCHAR C
ENCODING 67
SWIDTH 637 0
DWIDTH 20 0
BBX 17 23 2 0
BITMAP
0006BFE400
007FFFFF80
02FFFFFFC0
0BFFFFFF80
1FFF406F00
3FF8000100
7FF0000000
BFE0000000
FFD0000000
FFC0000000
FFC0000000
FFC0000000
FFC0000000
FFC0000000
FFC0000000
BFD0000000
7FF0000000
3FF8000000
2FFE405B40
0FFFFFFF40
03FFFFFF40
00BFFFFF40
0006FFE400
ENDCHAR
STARTCHAR D
ENCODING 68
SWIDTH 740 0
DWIDTH 24 0
BBX 19 23 3 0
BITMAP
FFFFE90000
FFFFFFE000
FFFFFFFD00
FFFFFFFF40
FF801BFFC0
FF8001FFE0
FF80007FF0
FF80003FF4
FF80002FF8
FF80001FF8
FF80001FF8
FF80001FF8
FF80001FF8
FF80001FF8
FF80002FF4
FF80003FF4
FF8000BFF0
FF8001FFD0
FF801BFF80
FFFFFFFF00
FFFFFFF800
FFFFFFD000
FFFFE90000
ENDCHAR
STARTCHAR E
ENCODING 69
SWIDTH 560 0
DWIDTH 18 0
BBX 13 23 3 0
BITMAP
FFFFFFC0
FFFFFFC0
FFFFFFC0
FFFFFFC0
FF800000
FF800000
FF800000
FF800000
FF800000
FFFFFF40
FFFFFF40
FFFFFF40
FFFFFF40
FF800000
FF800000
FF800000
FF800000
FF800000
FF800000
FFFFFFC0
FFFFFFC0
FFFFFFC0
FFFFFFC0
ENDCHAR
STARTCHAR F
ENCODING 70
SWIDTH 548 0
DWIDTH 18 0
BBX 13 23 3 0
BITMAP
FFFFFFC0
FFFFFFC0
FFFFFFC0
FFFFFFC0
FF800000
FF800000
FF800000
FF800000
FF800000
FF800000
FFFFFF40
FFFFFF40
FFFFFF40
FFFFFF40
FF800000
FF800000
FF800000
FF800000
FF800000
FF800000
FF800000
FF800000
FF800000
ENDCHAR
STARTCHAR G
ENCODING 71
SWIDTH 724 0
DWIDTH 23 0
BBX 19 23 2 0
BITMAP
0001AFFA40
002FFFFFF4
01FFFFFFF0
07FFFFFFE0
1FFF9016D0
2FFD000000
7FF4000000
BFE0000000
FFD0000000
FFC0000000
FFC01FFFF8
FFC01FFFF8
FFC01FFFF8
FFC01FFFF8
FFD0000FF8
BFE0000FF8
7FF0000FF8
3FF8000FF8
2FFF401FF8
0BFFFFFFF8
02FFFFFFF8
00BFFFFFF4
0006FFEA40
ENDCHAR
STARTCHAR H
ENCODING 72
SWIDTH 765 0
DWIDTH 24 0
BBX 19 23 3 0
BITMAP
FF80001FF8
FF80001FF8
FF80001FF8
FF80001FF8
FF80001FF8
FF80001FF8
FF80001FF8
FF80001FF8
FF80001FF8
FFFFFFFFF8
FFFFFFFFF8
FFFFFFFFF8
FFFFFFFFF8
FF80001FF8
FF80001FF8
FF80001FF8
FF80001FF8
FF80001FF8
FF80001FF8
FF80001FF8
FF80001FF8
FF80001FF8
FF80001FF8
ENDCHAR
STARTCHAR I
ENCODING 73
SWIDTH 331 0
DWIDTH 11 0
BBX 5 23 3 0
BITMAP
FF80
FF80
FF80
FF80
FF80
FF80
FF80
FF80
FF80
FF80
FF80
FF80
FF80
FF80
FF80
FF80
FF80
FF80
FF80
FF80
FF80
FF80
FF80
ENDCHAR
STARTCHAR J
ENCODING 74
SWIDTH 331 0
DWIDTH 11 0
BBX 11 30 -3 -7
BITMAP
000FF8
000FF8
000FF8
000FF8
000FF8
000FF8
000FF8
000FF8
000FF8
000FF8
000FF8
000FF8
000FF8
000FF8
000FF8
000FF8
000FF8
000FF8
000FF8
000FF8
000FF8
000FF8
000FF8
001FF8
002FF4
11BFF0
7FFFE0
7FFFD0
7FFF40
6FE400
ENDCHAR
STARTCHAR K
ENCODING 75
SWIDTH 664 0
DWIDTH 21 0
BBX 18 23 3 0
BITMAP
FF8000BFE0
FF8001FFC0
FF8007FF40
FF800FFD00
FF802FF800
FF80BFF000
FF81FFC000
FF83FF4000
FF8BFE0000
FFAFF80000
FFFFF40000
FFFFFC0000
FFFFFE0000
FFFBFF4000
FFD1FFC000
FF80FFE000
FF807FF400
FF802FF800
FF800FFD00
FF8007FF00
FF8002FF80
FF8001FFD0
FF8000BFF0
ENDCHAR
STARTCHAR L
ENCODING 76
SWIDTH 564 0
DWIDTH 18 0
BBX 14 23 3 0
BITMAP
FF800000
FF800000
FF800000
FF800000
FF800000
FF800000
FF800000
FF800000
FF800000
FF800000
FF800000
FF800000
FF800000
FF800000
FF800000
FF800000
FF800000
FF800000
FF800000
FFFFFFF0
FFFFFFF0
FFFFFFF0
FFFFFFF0
ENDCHAR
STARTCHAR M
ENCODING 77
SWIDTH 942 0
DWIDTH 30 0
BBX 25 23 3 0
BITMAP
FFF800001FFF40
FFFC00002FFF40
FFFD00003FFF40
FFFE00007FFF40
FFFF0000BFFF40
FFBF0000FEFF40
FF7F4001FDFF40
FF7F8002FCFF40
FF3FC003F8FF40
FF2FD007F5FF40
FF1FE00BF1FF40
FF4FF00FE1FF40
FF4BF41FD1FF40
FF47F82FC1FF40
FF43FC3F81FF40
FF42FD7F41FF40
FF41FEBF01FF40
FF40FFFE01FF40
FF40BFFD01FF40
FF40BFFC01FF40
FF407FF801FF40
FF403FF401FF40
FF402FF001FF40
ENDCHAR
STARTCHAR N
ENCODING 78
SWIDTH 812 0
DWIDTH 26 0
BBX 20 23 3 0
BITMAP
FFF40001FF
FFF80001FF
FFFD0001FF
FFFF0001FF
FFFF8001FF
FFFFD001FF
FF7FE001FF
FF3FF401FF
FF1FFC01FF
FF0BFD01FF
FF07FF01FF
FF42FF81FF
FF40FFD1FF
FF407FE0FF
FF403FF4FF
FF401FFCFF
FF400BFEFF
FF4007FFFF
FF4002FFFF
FF4000FFFF
FF40007FFF
FF40003FFF
FF40001FFF
ENDCHAR
STARTCHAR O
ENCODING 79
SWIDTH 795 0
DWIDTH 25 0
BBX 22 23 2 0
BITMAP
0006BFE50000
007FFFFF9000
02FFFFFFF400
0BFFFFFFFD00
1FFF406FFF00
3FF80007FF40
7FF00002FFC0
BFE00000FFC0
FFD00000BFD0
FFC00000BFD0
FFC00000BFE0
FFC000007FE0
FFC00000BFE0
FFC00000BFD0
FFD00000BFD0
BFE00000FFC0
7FF00002FFC0
3FF80007FF40
1FFF506FFF00
0BFFFFFFFD00
02FFFFFFF400
007FFFFF8000
0006BFE50000
ENDCHAR
STARTCHAR P
ENCODING 80
SWIDTH 627 0
DWIDTH 20 0
BBX 16 23 3 0
BITMAP
FFFFE900
FFFFFF90
FFFFFFF4
FFFFFFF8
FF802FFD
FF800BFD
FF8007FE
FF8007FE
FF8007FE
FF800BFD
FF806FFC
FFFFFFF8
FFFFFFE0
FFFFFF80
FFFFE400
FF800000
FF800000
FF800000
FF800000
FF800000
FF800000
FF800000
FF800000
ENDCHAR
STARTCHAR Q
ENCODING 81
SWIDTH 795 0
DWIDTH 25 0
BBX 22 28 2 -5
BITMAP
0006BFE50000
007FFFFF9000
02FFFFFFF400
0BFFFFFFFD00
1FFF406FFF00
3FF80007FF40
7FF00002FFC0
BFE00000FFC0
FFD00000BFD0
FFC00000BFD0
FFC00000BFE0
FFC000007FE0
FFC00000BFE0
FFC00000BFD0
FFD00000BFD0
BFE00000FFC0
7FF00002FFC0
3FF80007FF40
1FFF506FFF00
0BFFFFFFFD00
02FFFFFFF400
007FFFFF8000
0006BFFF4000
000001FFD000
000000BFF400
0000002FFD00
0000000FFF40
00000007FFC0
ENDCHAR
STARTCHAR R
ENCODING 82
SWIDTH 660 0
DWIDTH 21 0
BBX 18 23 3 0
BITMAP
FFFFE90000
FFFFFF9000
FFFFFFF400
FFFFFFFC00
FF806FFD00
FF800BFE00
FF8007FE00
FF8007FE00
FF800BFD00
FF806FFC00
FFFFFFF400
FFFFFFD000
FFFFFE0000
FFFFFF0000
FF81FF8000
FF80BFD000
FF807FE000
FF802FF400
FF800FFD00
FF8007FE00
FF8002FF40
FF8001FFC0
FF8000BFE0
ENDCHAR
STARTCHAR S
ENCODING 83
SWIDTH 550 0
DWIDTH 18 0
BBX 16 23 1 0
BITMAP
006FFE40
02FFFFF8
0FFFFFFC
2FFFFFF4
3FF806F0
7FE00010
7FE00000
3FF00000
3FFD0000
1FFF9000
0BFFF900
02FFFF80
006FFFE0
0006FFF8
00006FFC
00000BFD
000007FD
50000BFD
BE501FFC
BFFFFFF8
BFFFFFE0
7FFFFF80
06BFE900
ENDCHAR
STARTCHAR T
ENCODING 84
SWIDTH 579 0
DWIDTH 19 0
BBX 18 23 0 0
BITMAP
7FFFFFFFF0
7FFFFFFFF0
7FFFFFFFF0
7FFFFFFFF0
0007FE0000
0003FE0000
0003FE0000
0003FE0000
0003FE0000
0003FE0000
0003FE0000
0003FE0000
0003FE0000
0003FE0000
0003FE0000
0003FE0000
0003FE0000
0003FE0000
0003FE0000
0003FE0000
0003FE0000
0003FE0000
0003FE0000
ENDCHAR
STARTCHAR U
ENCODING 85
SWIDTH 755 0
DWIDTH 24 0
BBX 20 23 2 0
BITMAP
7FE00007FD
7FE00007FD
7FE00007FD
7FE00007FD
7FE00007FD
7FE00007FD
7FE00007FD
7FE00007FD
7FE00007FD
7FE00007FD
7FE00007FD
7FE00007FD
7FE00007FD
7FE00007FD
7FE00007FD
7FE0000BFD
3FF0000BFD
3FF4001FFC
1FFE41BFF8
0FFFFFFFF0
03FFFFFFD0
00BFFFFE00
001AFFA400
ENDCHAR
STARTCHAR V
ENCODING 86
SWIDTH 649 0
DWIDTH 21 0
BBX 21 23 0 0
BITMAP
FFC00001FF80
7FD00002FF40
3FE00003FF00
2FF00007FE00
1FF4000BFD00
0FF8000FFC00
0BFC000FF800
07FD001FF400
03FE002FF000
02FF003FE000
01FF407FD000
00FF40BFC000
00BF80FF8000
007FC1FF4000
003FD2FF0000
002FE3FE0000
001FF3FD0000
000FFBFC0000
000BFFF80000
0007FFF40000
0003FFF00000
0002FFE00000
0001FFD00000
ENDCHAR
STARTCHAR W
ENCODING 87
SWIDTH 966 0
DWIDTH 31 0
BBX 31 23 0 0
BITMAP
FFC0003FF0000FF8
BFC0007FF0001FF8
7FD0007FF4001FF4
3FE000BFF8002FF0
3FE000FFFC003FE0
2FF001FFFD003FE0
1FF401FEFD007FD0
0FF802FDFE00BFC0
0FF803FCFF00BF80
0BFC07F8BF40FF80
07FD0BF8BF41FF40
03FD0BF47F81FF00
03FE0FF03FC2FE00
02FF1FE02FD3FE00
01FF2FD02FD3FD00
00FF6FD01FE7FC00
00BF7FC00FEBF800
00BFBF800BFBF800
007FFF400BFFF400
003FFF4007FFF000
002FFF0003FFE000
002FFE0002FFE000
001FFD0002FFD000
ENDCHAR
STARTCHAR X
ENCODING 88
SWIDTH 666 0
DWIDTH 21 0
BBX 21 23 0 0
BITMAP
7FF00002FF40
2FF80007FE00
0FFD000FFD00
07FF001FF800
02FF403FF000
00FFC0BFD000
007FE1FF8000
002FF6FF0000
000FFFFD0000
0007FFF80000
0002FFF40000
0002FFE00000
0007FFF40000
000FFFFC0000
002FFBFE0000
007FE2FF4000
00BFC1FFC000
01FF80BFE000
03FF003FF400
0BFD001FFC00
1FF8000BFE00
3FF00003FF40
BFD00001FFC0
ENDCHAR
STARTCHAR Y
ENCODING 89
SWIDTH 624 0
DWIDTH 20 0
BBX 20 23 0 0
BITMAP
BFE0000BFE
7FF0000FFD
2FF8002FF8
0FFC003FF0
0BFE00BFE0
03FF00FFC0
02FF82FF40
00FFC3FF00
007FEBFD00
003FFFF800
001FFFF400
000FFFE000
0007FFD000
0002FF8000
0001FF4000
0001FF4000
0001FF4000
0001FF4000
0001FF4000
0001FF4000
0001FF4000
0001FF4000
0001FF4000
ENDCHAR
STARTCHAR Z
ENCODING 90
SWIDTH 579 0
DWIDTH 19 0
BBX 18 23 0 0
BITMAP
3FFFFFFFD0
3FFFFFFFD0
3FFFFFFFD0
3FFFFFFFD0
000002FF80
000007FE00
00000FFD00
00002FF400
00007FE000
0000FFC000
0002FF4000
0007FE0000
001FFC0000
002FF40000
00BFE00000
01FFC00000
03FF400000
0BFE000000
1FFC000000
3FFFFFFFE0
7FFFFFFFE0
7FFFFFFFE0
7FFFFFFFE0
ENDCHAR
STARTCHAR bracketleft
ENCODING 91
SWIDTH 331 0
DWIDTH 11 0
BBX 8 28 2 -5
BITMAP
BFFE
BFFE
BFFE
BF95
BF40
BF40
BF40
BF40
BF40
BF40
BF40
BF40
BF40
BF40
BF40
BF40
BF40
BF40
BF40
BF40
BF40
BF40
BF40
BF40
BF95
BFFE
BFFE
BFFE
ENDCHAR
STARTCHAR backslash
ENCODING 92
SWIDTH 413 0
DWIDTH 13 0
BBX 13 23 0 0
BITMAP
BF800000
7FC00000
3FD00000
2FE00000
0FF40000
0BF80000
07FC0000
03FD0000
02FE0000
01FF0000
00FF4000
00BF8000
007FC000
002FE000
001FF000
000FF400
000BF800
0007FC00
0003FD00
0002FE00
0001FF00
0000FF40
00007FC0
ENDCHAR
STARTCHAR bracketright
ENCODING 93
SWIDTH 331 0
DWIDTH 11 0
BBX 9 28 0 -5
BITMAP
7FFF40
7FFF40
7FFF40
15BF40
00BF40
00BF40
00BF40
00BF40
00BF40
00BF40
00BF40
00BF40
00BF40
00BF40
00BF40
00BF40
00BF40
00BF40
00BF40
00BF40
00BF40
00BF40
00BF40
00BF40
15BF40
7FFF40
7FFF40
7FFF40
ENDCHAR
STARTCHAR asciicircum
ENCODING 94
SWIDTH 532 0
DWIDTH 17 0
BBX 17 15 0 8
BITMAP
0007D00000
000BF00000
001FF80000
002FFC0000
003FFE0000
00BF7F0000
00FD3F8000
01FC1FC000
03F80FE000
07F407F000
0BE003F800
1FD002FC00
2FC000FE00
7F4000BF40
BF00003F80
ENDCHAR
STARTCHAR underscore
ENCODING 95
SWIDTH 411 0
DWIDTH 13 0
BBX 14 3 0 -5
BITMAP
55555540
FFFFFFD0
FFFFFFD0
ENDCHAR
STARTCHAR grave
ENCODING 96
SWIDTH 606 0
DWIDTH 19 0
BBX 9 5 5 19
BITMAP
BFF000
1FF800
07FD00
00BF40
002FC0
ENDCHAR
STARTCHAR a
ENCODING 97
SWIDTH 604 0
DWIDTH 19 0
BBX 16 17 1 0
BITMAP
006FFE40
0BFFFFF0
0BFFFFFC
03FAAFFD
014007FE
000003FF
000002FF
006BFFFF
0BFFFFFF
3FFFEBFF
7FF402FF
BFD003FF
BFD00BFF
7FFABFFF
3FFFFEFF
1FFFF4FF
06FF80BF
ENDCHAR
STARTCHAR b
ENCODING 98
SWIDTH 632 0
DWIDTH 20 0
BBX 17 24 2 0
BITMAP
BFD0000000
BFD0000000
BFD0000000
BFD0000000
BFD0000000
BFD0000000
BFD0000000
BFD1BF8000
BFDBFFF400
BFFFFFFD00
BFFFFFFE00
BFF807FF40
BFE002FF40
BFD001FF80
BFD000FF80
BFD000FF80
BFD000FF80
BFD001FF80
BFE002FF40
BFF807FF40
BFFFFFFE00
BFFFFFFD00
BF9FFFF400
BF42BF8000
ENDCHAR
STARTCHAR c
ENCODING 99
SWIDTH 514 0
DWIDTH 16 0
BBX 15 17 1 0
BITMAP
001BFE90
01FFFFF4
0BFFFFF0
1FFFFFE0
2FF80190
3FF00000
7FE00000
7FD00000
BFD00000
BFD00000
7FE00000
7FF00000
3FF801B0
2FFFFFF0
0BFFFFF0
02FFFFE0
006BFE40
ENDCHAR
STARTCHAR d
ENCODING 100
SWIDTH 632 0
DWIDTH 20 0
BBX 17 24 1 0
BITMAP
000000FF80
000000FF80
000000FF80
000000FF80
000000FF80
000000FF80
000000FF80
006FE0FF80
03FFFDBF80
0FFFFFFF80
2FFFFFFF80
3FF807FF80
7FF001FF80
7FE000FF80
BFD000BF80
BFD000BF80
BFD000BF80
7FD000FF80
7FE001FF80
3FF807FF80
2FFFBFFF80
0FFFFFFF80
07FFFD7F80
00AFE03F80
ENDCHAR
STARTCHAR e
ENCODING 101
SWIDTH 590 0
DWIDTH 19 0
BBX 17 17 1 0
BITMAP
001BFE4000
01FFFFE000
0BFFFFF800
1FFE6FFD00
2FF402FF00
3FE001FF40
7FD000FF40
7FFFFFFF80
BFFFFFFF80
7FFFFFFF80
7FD5555500
3FE0000000
2FF4000500
1FFFAABE00
07FFFFFE00
01FFFFFE00
001BFFA400
ENDCHAR
STARTCHAR f
ENCODING 102
SWIDTH 387 0
DWIDTH 12 0
BBX 14 24 0 0
BITMAP
000AFE90
007FFFE0
00FFFFD0
01FFFFC0
02FF4000
02FF0000
02FF0000
0BFFFF00
7FFFFF00
7FFFFF00
6BFFAA00
02FF0000
02FF0000
02FF0000
02FF0000
02FF0000
02FF0000
02FF0000
02FF0000
02FF0000
02FF0000
02FF0000
02FF0000
02FF0000
ENDCHAR
STARTCHAR g
ENCODING 103
SWIDTH 564 0
DWIDTH 18 0
BBX 18 25 0 -8
BITMAP
006BFFFFE0
02FFFFFFE0
0BFFFFFF90
1FF80BFD00
1FF003FE00
2FF003FE00
1FF003FE00
1FF80BFD00
0BFFFFF800
02FFFFE000
01FFFA4000
07F4000000
0BF4000000
0BFFEAA400
07FFFFFE00
02FFFFFF80
1FFFFFFFD0
7FD000BFD0
BF80002FD0
FF40002FD0
FF80007FC0
BFE416FF80
3FFFFFFE00
1FFFFFF400
01BFFA4000
ENDCHAR
STARTCHAR h
ENCODING 104
SWIDTH 657 0
DWIDTH 21 0
BBX 17 24 2 0
BITMAP
BFD0000000
BFD0000000
BFD0000000
BFD0000000
BFD0000000
BFD0000000
BFD0000000
BFD1BF9000
BFCBFFF800
BFEFFFFE00
BFFFFFFF40
BFF807FF40
BFF001FF80
BFE001FF80
BFD000FF80
BFD000FF80
BFD000FF80
BFD000FF80
BFD000FF80
BFD000FF80
BFD000FF80
BFD000FF80
BFD000FF80
BFD000FF80
ENDCHAR
STARTCHAR i
ENCODING 105
SWIDTH 305 0
DWIDTH 10 0
BBX 6 24 2 0
BITMAP
2F80
BFD0
BFD0
7FD0
1A40
0000
0000
BFD0
BFD0
BFD0
BFD0
BFD0
BFD0
BFD0
BFD0
BFD0
BFD0
BFD0
BFD0
BFD0
BFD0
BFD0
BFD0
BFD0
ENDCHAR
STARTCHAR j
ENCODING 106
SWIDTH 305 0
DWIDTH 10 0
BBX 10 32 -2 -8
BITMAP
002F80
00BFD0
00BFD0
007FD0
001A40
000000
000000
00BFD0
00BFD0
00BFD0
00BFD0
00BFD0
00BFD0
00BFD0
00BFD0
00BFD0
00BFD0
00BFD0
00BFD0
00BFD0
00BFD0
00BFD0
00BFD0
00BFD0
00BFD0
00BFD0
00BFD0
01FFC0
FFFFC0
FFFF40
FFFE00
BFE400
ENDCHAR
STARTCHAR k
ENCODING 107
SWIDTH 620 0
DWIDTH 20 0
BBX 18 24 2 0
BITMAP
BFD0000000
BFD0000000
BFD0000000
BFD0000000
BFD0000000
BFD0000000
BFD0000000
BFD001FFC0
BFD007FF00
BFD01FFC00
BFD07FF400
BFD1FFD000
BFC3FF4000
BFCFFD0000
BFEFF80000
BFFFFD0000
BFFFFF0000
BFFAFF8000
BFE0BFE000
BFD03FF400
BFD01FFD00
BFD00BFF00
BFD002FF80
BFD000FFD0
ENDCHAR
STARTCHAR l
ENCODING 108
SWIDTH 305 0
DWIDTH 10 0
BBX 6 24 2 0
BITMAP
BFD0
BFD0
BFD0
BFD0
BFD0
BFD0
BFD0
BFD0
BFD0
BFD0
BFD0
BFD0
BFD0
BFD0
BFD0
BFD0
BFD0
BFD0
BFD0
BFD0
BFD0
BFD0
BFD0
BFD0
ENDCHAR
STARTCHAR m
ENCODING 109
SWIDTH 981 0
DWIDTH 31 0
BBX 27 17 2 0
BITMAP
BF41BF900AFE40
BF8FFFF87FFFD0
BFFFFFFEFFFFF4
BFFFFFFFFFFFF8
BFF80BFFE02FFC
BFF003FF800FFC
BFE002FF400FFC
BFD002FF400BFC
BFD002FF000BFC
BFD002FF000BFC
BFD002FF000BFC
BFD002FF000BFC
BFD002FF000BFC
BFD002FF000BFC
BFD002FF000BFC
BFD002FF000BFC
BFD002FF000BFC
ENDCHAR
STARTCHAR n
ENCODING 110
SWIDTH 657 0
DWIDTH 21 0
BBX 17 17 2 0
BITMAP
BF41BF9000
BF8FFFF800
BFFFFFFE00
BFFFFFFF40
BFF807FF40
BFF001FF80
BFE001FF80
BFD000FF80
BFD000FF80
BFD000FF80
BFD000FF80
BFD000FF80
BFD000FF80
BFD000FF80
BFD000FF80
BFD000FF80
BFD000FF80
ENDCHAR
STARTCHAR o
ENCODING 111
SWIDTH 619 0
DWIDTH 20 0
BBX 18 17 1 0
BITMAP
001BFE4000
01FFFFF400
0BFFFFFD00
1FFFFFFF00
2FF802FF80
3FF000FFC0
7FE000BFD0
7FD000BFD0
BFD000BFD0
BFD000BFD0
7FE000BFD0
3FF000FFC0
2FF802FF80
1FFFFFFF00
07FFFFFD00
01FFFFF400
001BFE4000
ENDCHAR
STARTCHAR p
ENCODING 112
SWIDTH 632 0
DWIDTH 20 0
BBX 17 25 2 -8
BITMAP
BF81BF8000
BF8BFFF400
BFEFFFFD00
BFFFFFFE00
BFF807FF40
BFE002FF40
BFD001FF80
BFD000FF80
BFD000FF80
BFD000FF80
BFD001FF80
BFE002FF40
BFF807FF00
BFFFFFFE00
BFFFFFFC00
BFDFFFF400
BFD2BF8000
BFD0000000
BFD0000000
BFD0000000
BFD0000000
BFD0000000
BFD0000000
BFD0000000
BFD0000000
ENDCHAR
STARTCHAR q
ENCODING 113
SWIDTH 632 0
DWIDTH 20 0
BBX 17 25 1 -8
BITMAP
006FE07F80
03FFFDBF80
0FFFFFFF80
2FFFFFFF80
3FF807FF80
7FF001FF80
7FE000FF80
BFD000BF80
BFD000BF80
BFD000BF80
7FD000FF80
7FE000FF80
3FF802FF80
2FFFBFFF80
0FFFFFFF80
07FFFDFF80
00AFE0FF80
000000FF80
000000FF80
000000FF80
000000FF80
000000FF80
000000FF80
000000FF80
000000FF80
ENDCHAR
STARTCHAR r
ENCODING 114
SWIDTH 454 0
DWIDTH 15 0
BBX 12 17 2 0
BITMAP
BF41BE
BF47FE
BF9FFE
BFFFFE
BFFF95
BFF800
BFE000
BFD000
BFD000
BFD000
BFD000
BFD000
BFD000
BFD000
BFD000
BFD000
BFD000
ENDCHAR
STARTCHAR s
ENCODING 115
SWIDTH 497 0
DWIDTH 16 0
BBX 14 17 1 0
BITMAP
01BFE900
1FFFFFD0
3FFFFFC0
7FFABF80
BFD00640
7FE00000
7FFE4000
2FFFF800
07FFFF40
006FFFC0
0006FFE0
00007FE0
64003FE0
BFAAFFD0
BFFFFFC0
BFFFFE00
1AFFA400
ENDCHAR
STARTCHAR t
ENCODING 116
SWIDTH 434 0
DWIDTH 14 0
BBX 13 21 0 0
BITMAP
006A0000
00BE0000
00FE0000
01FE0000
0BFFFF80
3FFFFF80
7FFFFF80
2BFFAA40
03FE0000
03FE0000
03FE0000
03FE0000
03FE0000
03FE0000
03FE0000
03FE0000
03FF4040
02FFFFC0
01FFFFC0
00BFFFC0
001BFA40
ENDCHAR
STARTCHAR u
ENCODING 117
SWIDTH 657 0
DWIDTH 21 0
BBX 17 17 2 0
BITMAP
BFD001FF80
BFD001FF80
BFD001FF80
BFD001FF80
BFD001FF80
BFD001FF80
BFD001FF80
BFD001FF80
BFD001FF80
BFD001FF80
BFD002FF80
BFD003FF80
7FF40BFF80
7FFFFFFF80
2FFFFFFF80
0BFFFCBF80
01BF907F80
ENDCHAR
STARTCHAR v
ENCODING 118
SWIDTH 568 0
DWIDTH 18 0
BBX 18 17 0 0
BITMAP
BFC0003FF0
7FE0007FE0
3FF000BFD0
2FF400FF80
1FF801FF40
0FFC02FF00
07FD03FE00
03FE07FD00
02FF0BFC00
01FF4FF400
00FF9FF000
00BFAFE000
003FEFD000
002FFFC000
001FFF8000
000FFF0000
000BFE0000
ENDCHAR
STARTCHAR w
ENCODING 119
SWIDTH 855 0
DWIDTH 27 0
BBX 27 17 0 0
BITMAP
BFD003FF400BFC
7FD007FF800FF8
3FE00BFFC01FF4
2FF00BFFD02FF0
1FF40FDFD03FE0
0FF81FCBE03FD0
0BF82FCBF07FC0
07FC3F87F4BFC0
07FD3F43F4FF80
03FD7F43F8FF40
02FE7F02FDFF00
01FEBE01FDFE00
00FFBD00FEFD00
00BFFD00FFFC00
007FFC00BFF800
003FF8007FF400
003FF8007FF400
ENDCHAR
STARTCHAR x
ENCODING 120
SWIDTH 578 0
DWIDTH 19 0
BBX 18 17 0 0
BITMAP
7FF400BFE0
2FF801FFC0
0BFD03FF40
07FF0BFE00
02FF9FFC00
00BFFFF400
007FFFE000
001FFFC000
000FFF8000
002FFFD000
007FFFF000
00FFEFF800
02FF4FFD00
07FE07FF00
1FFD02FF80
2FF800FFD0
BFF0007FF0
ENDCHAR
STARTCHAR y
ENCODING 121
SWIDTH 568 0
DWIDTH 18 0
BBX 18 25 0 -8
BITMAP
BFD0003FF0
7FE0007FE0
3FF000BFD0
2FF400FFC0
1FF801FF40
0BFC02FF00
07FD03FE00
03FE07FD00
02FF0BFC00
00FF4FF800
00BF9FF400
007FEFF000
003FFFD000
001FFFC000
000FFF8000
000BFF4000
0007FF0000
0007FE0000
000BFD0000
001FF80000
007FF40000
3FFFE00000
3FFFC00000
3FFF000000
2FE4000000
ENDCHAR
STARTCHAR z
ENCODING 122
SWIDTH 487 0
DWIDTH 16 0
BBX 14 17 1 0
BITMAP
BFFFFFD0
BFFFFFD0
BFFFFFD0
6AAAFFC0
0002FF40
0007FE00
001FF800
003FF000
00BFD000
02FF4000
07FE0000
0FFC0000
2FF40000
BFFAAA90
FFFFFFE0
FFFFFFE0
FFFFFFE0
ENDCHAR
STARTCHAR braceleft
ENCODING 123
SWIDTH 394 0
DWIDTH 13 0
BBX 12 28 0 -5
BITMAP
0006BD
002FFD
007FFD
007FF9
00BFC0
00BF80
00BF80
00BF80
00BF80
00BF80
00BF80
02FF40
7FFE00
BFE400
BFE400
7FFF00
06FF40
00BF80
00BF80
00BF80
00BF80
00BF80
00BF80
00BFC0
007FF9
007FFD
002FFD
0006BD
ENDCHAR
STARTCHAR bar
ENCODING 124
SWIDTH 550 0
DWIDTH 18 0
BBX 4 31 7 -7
BITMAP
FE
FE
FE
FE
FE
FE
FE
FE
FE
FE
FE
FE
FE
FE
FE
FE
FE
FE
FE
FE
FE
FE
FE
FE
FE
FE
FE
FE
FE
FE
FE
ENDCHAR
STARTCHAR braceright
ENCODING 125
SWIDTH 394 0
DWIDTH 13 0
BBX 11 28 1 -5
BITMAP
BE8000
BFF400
BFF800
6FFC00
07FC00
03FC00
03FC00
03FC00
03FC00
03FC00
03FD00
02FF40
01FFFC
002FFC
006FFC
01FFFC
02FF40
03FD00
03FC00
03FC00
03FC00
03FC00
03FC00
07FC00
6FFC00
BFF800
BFF400
BE8000
ENDCHAR
STARTCHAR asciitilde
ENCODING 126
SWIDTH 570 0
DWIDTH 18 0
BBX 16 6 1 8
BITMAP
0BF90001
2FFF9007
BFFFFA6F
BE6FFFFE
A002FFFD
40002FE0
ENDCHAR
STARTCHAR nonbreakingspace
ENCODING 160
SWIDTH 259 0
DWIDTH 8 0
BBX 1 1 0 0
BITMAP
00
ENDCHAR
STARTCHAR exclamdown
ENCODING 161
SWIDTH 286 0
DWIDTH 9 0
BBX 6 23 2 -6
BITMAP
6F40
FFC0
FFD0
FFC0
7F80
0400
0000
0000
7F40
7F80
BF80
BF80
BF80
BF80
BF80
BFC0
BFC0
FFC0
FFC0
FFC0
FFC0
FFC0
FFD0
ENDCHAR
STARTCHAR cent
ENCODING 162
SWIDTH 570 0
DWIDTH 18 0
BBX 14 23 2 0
BITMAP
0007E000
0007E000
006BFE40
02FFFFF0
0BFFFFE0
2FFFFFD0
3FF80180
7FE00000
BFD00000
BFD00000
BFC00000
BFC00000
BFD00000
BFD00000
7FE00000
3FF801A0
2FFFFFE0
0BFFFFE0
02FFFFE0
006BFE40
0007E000
0007E000
0007E000
ENDCHAR
STARTCHAR sterling
ENCODING 163
SWIDTH 570 0
DWIDTH 18 0
BBX 17 23 1 0
BITMAP
0006FFA400
002FFFFE00
00FFFFFE00
01FFFFFC00
02FF806800
03FF000000
03FE000000
03FE000000
03FE000000
BFFFFFE000
BFFFFFE000
BFFFFFE000
57FF555000
03FE000000
03FE000000
03FE000000
03FE000000
0BFC000000
2FF4000000
BFFFFFFF80
BFFFFFFF80
BFFFFFFF80
BFFFFFFF80
ENDCHAR
STARTCHAR currency
ENCODING 164
SWIDTH 570 0
DWIDTH 18 0
BBX 15 14 2 4
BITMAP
2C0102D0
BFBFEBF4
BFFFFFE0
2FFFFF80
1FE07F80
3F801FC0
3F400FD0
3F400FD0
3F801FC0
1FE07F80
2FFFFF80
BFFFFFE0
BFBFEBF0
2C0102C0
ENDCHAR
STARTCHAR yen
ENCODING 165
SWIDTH 570 0
DWIDTH 18 0
BBX 18 23 0 0
BITMAP
BFD0003FF0
7FE0007FD0
2FF000BFC0
1FF801FF40
0BFC02FF00
07FD03FD00
02FE0BFC00
01FF4FF400
00BF9FF000
007FFFD000
002FFFC000
001FFF4000
03FFFFFD00
03FFFFFD00
02ABFFA800
0003FD0000
0003FD0000
03FFFFFD00
03FFFFFD00
02ABFFA800
0003FD0000
0003FD0000
0003FD0000
ENDCHAR
STARTCHAR brokenbar
ENCODING 166
SWIDTH 550 0
DWIDTH 18 0
BBX 4 31 7 -7
BITMAP
FE
FE
FE
FE
FE
FE
FE
FE
FE
FE
FE
FE
FE
00
00
00
00
00
FE
FE
FE
FE
FE
FE
FE
FE
FE
FE
FE
FE
FE
ENDCHAR
STARTCHAR section
ENCODING 167
SWIDTH 485 0
DWIDTH 16 0
BBX 13 24 1 0
BITMAP
01BFE900
0BFFFF80
2FFFFF40
3FD01B00
3F800000
3FD00000
2FF90000
0BFFD000
0BFFFD00
1FEBFF40
3F80BF80
3F402FC0
3F802FC0
2FF43F80
0FFFFF40
02FFFD00
006FFF00
0001FF80
00003FC0
00003FC0
7900BF80
7FFFFF40
7FFFFD00
0AFF9000
ENDCHAR
STARTCHAR dieresis
ENCODING 168
SWIDTH 606 0
DWIDTH 19 0
BBX 11 4 4 20
BITMAP
7F42F4
BF87FC
BF87FC
2E02F4
ENDCHAR
STARTCHAR copyright
ENCODING 169
SWIDTH 832 0
DWIDTH 27 0
BBX 24 23 1 0
BITMAP
00006FFA4000
0007FFFFE400
002FE556FE00
01FE00006F80
03F41BFA4BE0
0BD0BFFFD2F4
1F41FFFFC0BC
2E03FD02403D
3D07F400002E
7C0BF000001F
7C0BF000001F
780BE000001F
7C0BF000001F
7C0BF000001F
3D07F400002E
2E03FD01803D
1F41FFFF80BC
0BC07FFF81F4
03F41BFA4BE0
01FE00006F80
003FE556FE00
0007FFFFE400
00006FFA4000
ENDCHAR
STARTCHAR ordfeminine
ENCODING 170
SWIDTH 382 0
DWIDTH 12 0
BBX 11 11 0 12
BITMAP
06BF80
1FFFF0
0F9BF8
0001F8
01AFFC
1FFFFC
3F81FC
7F02FC
3F9BFC
2FFEBC
0BF87C
ENDCHAR
STARTCHAR guillemotleft
ENCODING 171
SWIDTH 615 0
DWIDTH 20 0
BBX 17 15 1 1
BITMAP
0019001900
003F807F80
00FFC0FFC0
02FF42FF40
07FD0BFD00
1FF81FF800
3FF07FE000
BFD0BFD000
3FF07FE000
1FF81FF800
0BFD0BFD00
02FF42FF40
00FFC0FFC0
003F807F80
0019001900
ENDCHAR
STARTCHAR logicalnot
ENCODING 172
SWIDTH 570 0
DWIDTH 18 0
BBX 16 9 1 4
BITMAP
BFFFFFFF
BFFFFFFF
BFFFFFFF
555555BF
000000BF
000000BF
000000BF
000000BF
000000BF
ENDCHAR
STARTCHAR uni00AD
ENCODING 173
SWIDTH 321 0
DWIDTH 10 0
BBX 9 4 1 7
BITMAP
FFFF40
FFFF40
FFFF40
FFFF40
ENDCHAR
STARTCHAR registered
ENCODING 174
SWIDTH 832 0
DWIDTH 27 0
BBX 24 23 1 0
BITMAP
00006FFA4000
0007FFFFE400
002FE556FE00
01FE00006F80
03F400000BE0
0BD2FFE802F4
1F42FFFF40BC
2E02FEBF803D
3D02FC2FC02E
7C02FC2FC01F
7C02FC2FC01F
7802FEFF801F
7C02FFFE001F
7C02FFFD001F
3D02FCFE002E
2E02FC7F403D
1F42FC2FC0BC
0BC2FC1FE1F4
03F6FC0BFBE0
01FE00006F80
003FE556FE00
0007FFFFE400
00006FFA4000
ENDCHAR
STARTCHAR overscore
ENCODING 175
SWIDTH 500 0
DWIDTH 16 0
BBX 16 3 0 24
BITMAP
FFFFFFFF
FFFFFFFF
FFFFFFFF
ENDCHAR
STARTCHAR degree
ENCODING 176
SWIDTH 428 0
DWIDTH 14 0
BBX 12 11 1 12
BITMAP
01BE40
0BFFD0
2FFFF4
3F42F8
7E00FC
BD00BD
7E00FC
7F42FC
2FFFF4
0BFFE0
01BE40
ENDCHAR
STARTCHAR plusminus
ENCODING 177
SWIDTH 570 0
DWIDTH 18 0
BBX 16 20 1 0
BITMAP
000BF000
000BF000
000BF000
000BF000
000BF000
000BF000
BFFFFFFF
BFFFFFFF
BFFFFFFF
555BF555
000BF000
000BF000
000BF000
000BF000
000BF000
00055000
55555555
BFFFFFFF
BFFFFFFF
BFFFFFFF
ENDCHAR
STARTCHAR twosuperior
ENCODING 178
SWIDTH 378 0
DWIDTH 12 0
BBX 10 14 1 9
BITMAP
0BF900
BFFF80
BFFFD0
391FE0
001FE0
002FD0
007F80
01FF00
07FC00
1FF000
7FD000
FFFFF0
FFFFF0
FFFFF0
ENDCHAR
STARTCHAR threesuperior
ENCODING 179
SWIDTH 378 0
DWIDTH 12 0
BBX 10 14 1 9
BITMAP
1BF900
BFFF80
7FBFD0
240FD0
000FD0
002F80
0FFE00
0FFE00
06AFD0
000BE0
900BE0
FEBFE0
FFFFC0
6BF900
ENDCHAR
STARTCHAR acute
ENCODING 180
SWIDTH 606 0
DWIDTH 19 0
BBX 9 5 5 19
BITMAP
01FFC0
07FE00
0FF800
2FD000
BF4000
ENDCHAR
STARTCHAR mu
ENCODING 181
SWIDTH 660 0
DWIDTH 21 0
BBX 17 25 2 -8
BITMAP
BFD000FF80
BFD000FF80
BFD000FF80
BFD000FF80
BFD000FF80
BFD000FF80
BFD000FF80
BFD000FF80
BFD001FF80
BFD001FF80
BFD001FF80
BFE002FF80
BFF40BFF80
BFFFBFFF80
BFFFFFBF80
BFFFFD7F80
BFDBE43F80
BFD0000000
BFD0000000
BFD0000000
BFD0000000
BFD0000000
BFD0000000
BFD0000000
BFD0000000
ENDCHAR
STARTCHAR paragraph
ENCODING 182
SWIDTH 654 0
DWIDTH 21 0
BBX 18 28 1 -4
BITMAP
006FFFFFD0
03FFFFFFD0
0FFFFFFFD0
1FFFFF47D0
2FFFFF07D0
3FFFFF07D0
3FFFFF07D0
7FFFFF07D0
7FFFFF07D0
3FFFFF07D0
3FFFFF07D0
3FFFFF07D0
2FFFFF07D0
0FFFFF07D0
07FFFF07D0
00AFFF07D0
00001F07D0
00001F07D0
00001F07D0
00001F07D0
00001F07D0
00001F07D0
00001F07D0
00001F07D0
00001F07D0
00001F07D0
00001F07D0
00001F07D0
ENDCHAR
STARTCHAR periodcentered
ENCODING 183
SWIDTH 285 0
DWIDTH 9 0
BBX 6 6 2 8
BITMAP
6F40
FFC0
FFD0
FFC0
7F80
0400
ENDCHAR
STARTCHAR cedilla
ENCODING 184
SWIDTH 205 0
DWIDTH 7 0
BBX 8 8 -1 -8
BITMAP
0BD0
1FC0
1FE4
02FD
01FD
ABFD
BFFC
7FE0
ENDCHAR
STARTCHAR onesuperior
ENCODING 185
SWIDTH 378 0
DWIDTH 12 0
BBX 8 14 1 9
BITMAP
007F
02FF
0FFF
7FFF
3EBF
04BF
00BF
00BF
00BF
00BF
00BF
00BF
00BF
00BF
ENDCHAR
STARTCHAR ordmasculine
ENCODING 186
SWIDTH 388 0
DWIDTH 12 0
BBX 11 11 1 12
BITMAP
06FE00
2FFFC0
7FAFE0
BE03F4
FC02F4
FC02F4
FC02F4
BE03F4
7FAFE0
2FFFC0
06FE00
ENDCHAR
STARTCHAR guillemotright
ENCODING 187
SWIDTH 615 0
DWIDTH 20 0
BBX 18 15 1 1
BITMAP
0600060000
6FC07F8000
7FE07FE000
1FF42FF400
0BFD0BFD00
03FF03FF00
01FF81FF80
00BFD0BFD0
01FF81FF80
03FF03FF00
0BFD0BFD00
1FF42FF400
7FE07FE000
6FC07F8000
0600060000
ENDCHAR
STARTCHAR onequarter
ENCODING 188
SWIDTH 880 0
DWIDTH 28 0
BBX 26 23 1 0
BITMAP
01FD0000BF0000
07FD0001FE0000
2FFD0002FC0000
FFFD0007F40000
B9FD000BF00000
11FD001FD00000
01FD003F800000
01FD007F400000
01FD00FE000000
01FD02FD02FD00
01FD03F807FD00
01FD0BF00FFD00
01FD1FE02FFD00
01FD2FC07EFD00
00007F40F9FD00
0000FF02F5FD00
0001FD07D1FD00
0003F80F81FD00
000BF41FFFFFD0
000FE01FFFFFD0
002FC01AAAFE90
007F800001FD00
00BF000001FD00
ENDCHAR
STARTCHAR onehalf
ENCODING 189
SWIDTH 880 0
DWIDTH 28 0
BBX 26 23 1 0
BITMAP
01FD0000BF0000
07FD0001FE0000
2FFD0002FC0000
FFFD0007F40000
B9FD000BF00000
11FD001FD00000
01FD003F800000
01FD007F400000
01FD00FE000000
01FD02FD1BF900
01FD03F8BFFF80
01FD0BF0FFFFD0
01FD1FE0792FD0
01FD2FC0001FD0
00007F40002FC0
0000FF00007F80
0001FD0001FE00
0003F80007F800
000BF4001FE000
000FE0007F8000
002FC001FFFFE0
007F8001FFFFE0
00BF0001FFFFE0
ENDCHAR
STARTCHAR threequarters
ENCODING 190
SWIDTH 880 0
DWIDTH 28 0
BBX 26 23 1 0
BITMAP
06FE00001FD000
7FFFC0003F8000
3FAFE000BF0000
180BF000FE0000
000BE002FC0000
001FD007F40000
07FE400BF00000
07FE401FD00000
06AFE03F800000
0007F47F41FE00
9007F4FE03FE00
BEAFF2FD0BFE00
BFFFD3F81FFE00
1BFE4BF02EFE00
00001FE07DFE00
00002FC0F8FE00
00007F42F0FE00
0000FF07D0FE00
0001FD0FFFFFE0
0003F80FFFFFE0
000BF40AAAFF90
000FE00000FE00
002FC00000FE00
ENDCHAR
STARTCHAR questiondown
ENCODING 191
SWIDTH 477 0
DWIDTH 15 0
BBX 14 23 1 -6
BITMAP
000BE000
002FF400
002FF800
002FF800
001FF000
00014000
00000000
00000000
000FF000
000FF000
002FF000
00BFD000
03FF8000
1FFD0000
3FF40000
BFC00000
FF800000
FF800040
FFD01BD0
BFFFFFE0
3FFFFFF0
1FFFFFD0
01BFE900
ENDCHAR
STARTCHAR Agrave
ENCODING 192
SWIDTH 689 0
DWIDTH 22 0
BBX 22 30 0 0
BITMAP
001FFC000000
0007FE000000
0001FF800000
00002FD00000
00000BF40000
000000000000
000000000000
0000FFF00000
0001FFF80000
0002FFFC0000
0003FFFD0000
000BFAFE0000
000FF5FF0000
001FF0FF4000
002FF0BF8000
003FE07FC000
007FD03FD000
00BFC02FE000
00FF801FF000
01FF400FF400
02FFFFFFF800
03FFFFFFFC00
07FFFFFFFD00
0BFFFFFFFE00
0FF80002FF00
1FF40001FF40
2FF40000FFC0
3FF00000FFD0
7FE00000BFE0
BFD000007FF0
ENDCHAR
STARTCHAR Aacute
ENCODING 193
SWIDTH 689 0
DWIDTH 22 0
BBX 22 30 0 0
BITMAP
000001FFD000
000003FF4000
00000BF80000
00002FE00000
00007F400000
000000000000
000000000000
0000FFF00000
0001FFF80000
0002FFFC0000
0003FFFD0000
000BFAFE0000
000FF5FF0000
001FF0FF4000
002FF0BF8000
003FE07FC000
007FD03FD000
00BFC02FE000
00FF801FF000
01FF400FF400
02FFFFFFF800
03FFFFFFFC00
07FFFFFFFD00
0BFFFFFFFE00
0FF80002FF00
1FF40001FF40
2FF40000FFC0
3FF00000FFD0
7FE00000BFE0
BFD000007FF0
ENDCHAR
STARTCHAR Acircumflex
ENCODING 194
SWIDTH 689 0
DWIDTH 22 0
BBX 22 30 0 0
BITMAP
0000FFF40000
0002FFFC0000
000BFAFE0000
002FE0BF8000
00BF401FE000
000000000000
000000000000
0000FFF00000
0001FFF80000
0002FFFC0000
0003FFFD0000
000BFAFE0000
000FF5FF0000
001FF0FF4000
002FF0BF8000
003FE07FC000
007FD03FD000
00BFC02FE000
00FF801FF000
01FF400FF400
02FFFFFFF800
03FFFFFFFC00
07FFFFFFFD00
0BFFFFFFFE00
0FF80002FF00
1FF40001FF40
2FF40000FFC0
3FF00000FFD0
7FE00000BFE0
BFD000007FF0
ENDCHAR
STARTCHAR Atilde
ENCODING 195
SWIDTH 689 0
DWIDTH 22 0
BBX 22 30 0 0
BITMAP
0006F403D000
001FFF5BD000
002FFFFFC000
007E5FFF4000
007C01F90000
000000000000
000000000000
0000FFF00000
0001FFF80000
0002FFFC0000
0003FFFD0000
000BFAFE0000
000FF5FF0000
001FF0FF4000
002FF0BF8000
003FE07FC000
007FD03FD000
00BFC02FE000
00FF801FF000
01FF400FF400
02FFFFFFF800
03FFFFFFFC00
07FFFFFFFD00
0BFFFFFFFE00
0FF80002FF00
1FF40001FF40
2FF40000FFC0
3FF00000FFD0
7FE00000BFE0
BFD000007FF0
ENDCHAR
STARTCHAR Adieresis
ENCODING 196
SWIDTH 689 0
DWIDTH 22 0
BBX 22 29 0 0
BITMAP
000BD07E0000
001FF0FF4000
001FF0FF4000
000BD07E0000
000000000000
000000000000
0000FFF00000
0001FFF80000
0002FFFC0000
0003FFFD0000
000BFAFE0000
000FF5FF0000
001FF0FF4000
002FF0BF8000
003FE07FC000
007FD03FD000
00BFC02FE000
00FF801FF000
01FF400FF400
02FFFFFFF800
03FFFFFFFC00
07FFFFFFFD00
0BFFFFFFFE00
0FF80002FF00
1FF40001FF40
2FF40000FFC0
3FF00000FFD0
7FE00000BFE0
BFD000007FF0
ENDCHAR
STARTCHAR Aring
ENCODING 197
SWIDTH 689 0
DWIDTH 22 0
BBX 22 28 0 0
BITMAP
00002A800000
0000FFF40000
0002FAF80000
0003E0BC0000
0002E0BC0000
0002FFF80000
0001FFF80000
0002FFFC0000
0003FFFD0000
000BFAFE0000
000FF5FF0000
001FF0FF4000
002FF0BF8000
003FE07FC000
007FD03FD000
00BFC02FE000
00FF801FF000
01FF400FF400
02FFFFFFF800
03FFFFFFFC00
07FFFFFFFD00
0BFFFFFFFE00
0FF80002FF00
1FF40001FF40
2FF40000FFC0
3FF00000FFD0
7FE00000BFE0
BFD000007FF0
ENDCHAR
STARTCHAR AE
ENCODING 198
SWIDTH 952 0
DWIDTH 30 0
BBX 29 23 0 0
BITMAP
00000FFFFFFFFF80
00001FFFFFFFFF80
00003FFFFFFFFF80
00007FFFFFFFFF80
0000BF87FE000000
0001FF43FE000000
0002FF03FE000000
0003FD03FE000000
000BFC03FE000000
000FF803FFFFFF00
001FF003FFFFFF00
003FE003FFFFFF00
007FD003FFFFFF00
00BFFFFFFE000000
01FFFFFFFE000000
02FFFFFFFE000000
03FFFFFFFE000000
0BFC0003FE000000
0FF80003FE000000
1FF40003FFFFFF80
3FF00003FFFFFF80
7FE00003FFFFFF80
BFC00003FFFFFF80
ENDCHAR
STARTCHAR Ccedilla
ENCODING 199
SWIDTH 637 0
DWIDTH 20 0
BBX 17 31 2 -8
BITMAP
0006BFE400
007FFFFF80
02FFFFFFC0
0BFFFFFF80
1FFF406F00
3FF8000100
7FF0000000
BFE0000000
FFD0000000
FFC0000000
FFC0000000
FFC0000000
FFC0000000
FFC0000000
FFC0000000
BFD0000000
7FF0000000
3FF8000000
2FFE405B40
0FFFFFFF40
03FFFFFF40
00BFFFFF40
0006FFE400
0001F80000
0003F80000
0002FE0000
00007F8000
00002FC000
000ABFC000
000FFF4000
000BF90000
ENDCHAR
STARTCHAR Egrave
ENCODING 200
SWIDTH 560 0
DWIDTH 18 0
BBX 13 30 3 0
BITMAP
2FF80000
0BFD0000
01FF4000
007FD000
000BF000
00000000
00000000
FFFFFFC0
FFFFFFC0
FFFFFFC0
FFFFFFC0
FF800000
FF800000
FF800000
FF800000
FF800000
FFFFFF40
FFFFFF40
FFFFFF40
FFFFFF40
FF800000
FF800000
FF800000
FF800000
FF800000
FF800000
FFFFFFC0
FFFFFFC0
FFFFFFC0
FFFFFFC0
ENDCHAR
STARTCHAR Eacute
ENCODING 201
SWIDTH 560 0
DWIDTH 18 0
BBX 13 30 3 0
BITMAP
0003FF40
000BFD00
002FF400
007F8000
01FD0000
00000000
00000000
FFFFFFC0
FFFFFFC0
FFFFFFC0
FFFFFFC0
FF800000
FF800000
FF800000
FF800000
FF800000
FFFFFF40
FFFFFF40
FFFFFF40
FFFFFF40
FF800000
FF800000
FF800000
FF800000
FF800000
FF800000
FFFFFFC0
FFFFFFC0
FFFFFFC0
FFFFFFC0
ENDCHAR
STARTCHAR Ecircumflex
ENCODING 202
SWIDTH 560 0
DWIDTH 18 0
BBX 14 30 3 0
BITMAP
02FFE000
07FFF400
1FFBFD00
7FD1FF40
FE002FD0
00000000
00000000
FFFFFFC0
FFFFFFC0
FFFFFFC0
FFFFFFC0
FF800000
FF800000
FF800000
FF800000
FF800000
FFFFFF40
FFFFFF40
FFFFFF40
FFFFFF40
FF800000
FF800000
FF800000
FF800000
FF800000
FF800000
FFFFFFC0
FFFFFFC0
FFFFFFC0
FFFFFFC0
ENDCHAR
STARTCHAR Edieresis
ENCODING 203
SWIDTH 560 0
DWIDTH 18 0
BBX 13 29 3 0
BITMAP
1FC0BD00
2FE1FF00
2FE1FF00
0B80BD00
00000000
00000000
FFFFFFC0
FFFFFFC0
FFFFFFC0
FFFFFFC0
FF800000
FF800000
FF800000
FF800000
FF800000
FFFFFF40
FFFFFF40
FFFFFF40
FFFFFF40
FF800000
FF800000
FF800000
FF800000
FF800000
FF800000
FFFFFFC0
FFFFFFC0
FFFFFFC0
FFFFFFC0
ENDCHAR
STARTCHAR Igrave
ENCODING 204
SWIDTH 331 0
DWIDTH 11 0
BBX 9 30 -1 0
BITMAP
BFE000
2FF800
07FD00
01FF40
002FC0
000000
000000
00FF80
00FF80
00FF80
00FF80
00FF80
00FF80
00FF80
00FF80
00FF80
00FF80
00FF80
00FF80
00FF80
00FF80
00FF80
00FF80
00FF80
00FF80
00FF80
00FF80
00FF80
00FF80
00FF80
ENDCHAR
STARTCHAR Iacute
ENCODING 205
SWIDTH 331 0
DWIDTH 11 0
BBX 10 30 2 0
BITMAP
00FFD0
02FF40
0BFD00
1FE000
7F4000
000000
000000
3FE000
3FE000
3FE000
3FE000
3FE000
3FE000
3FE000
3FE000
3FE000
3FE000
3FE000
3FE000
3FE000
3FE000
3FE000
3FE000
3FE000
3FE000
3FE000
3FE000
3FE000
3FE000
3FE000
ENDCHAR
STARTCHAR Icircumflex
ENCODING 206
SWIDTH 331 0
DWIDTH 11 0
BBX 14 30 -2 0
BITMAP
00BFF400
02FFFD00
07FEFF00
1FE07FC0
7F401BF0
00000000
00000000
003FE000
003FE000
003FE000
003FE000
003FE000
003FE000
003FE000
003FE000
003FE000
003FE000
003FE000
003FE000
003FE000
003FE000
003FE000
003FE000
003FE000
003FE000
003FE000
003FE000
003FE000
003FE000
003FE000
ENDCHAR
STARTCHAR Idieresis
ENCODING 207
SWIDTH 331 0
DWIDTH 11 0
BBX 11 29 0 0
BITMAP
BE07F4
FF4BF8
FF4BF8
7E02E0
000000
000000
03FE00
03FE00
03FE00
03FE00
03FE00
03FE00
03FE00
03FE00
03FE00
03FE00
03FE00
03FE00
03FE00
03FE00
03FE00
03FE00
03FE00
03FE00
03FE00
03FE00
03FE00
03FE00
03FE00
ENDCHAR
STARTCHAR Eth
ENCODING 208
SWIDTH 740 0
DWIDTH 24 0
BBX 22 23 0 0
BITMAP
03FFFFA40000
03FFFFFF8000
03FFFFFFF400
03FFFFFFFD00
03FE006FFF00
03FE0007FF80
03FE0001FFC0
03FE0000FFD0
03FE0000BFE0
03FE00007FE0
7FFFFD007FE0
7FFFFD007FE0
7FFFFD007FE0
7FFFFD007FE0
03FE0000BFD0
03FE0000FFD0
03FE0002FFC0
03FE0007FF40
03FE006FFE00
03FFFFFFFC00
03FFFFFFE000
03FFFFFF4000
03FFFFA40000
ENDCHAR
STARTCHAR Ntilde
ENCODING 209
SWIDTH 812 0
DWIDTH 26 0
BBX 20 30 3 0
BITMAP
001BD00F40
007FFD6F40
00FFFFFF00
01F97FFD00
01F007E400
0000000000
0000000000
FFF40001FF
FFF80001FF
FFFD0001FF
FFFF0001FF
FFFF8001FF
FFFFD001FF
FF7FE001FF
FF3FF401FF
FF1FFC01FF
FF0BFD01FF
FF07FF01FF
FF42FF81FF
FF40FFD1FF
FF407FE0FF
FF403FF4FF
FF401FFCFF
FF400BFEFF
FF4007FFFF
FF4002FFFF
FF4000FFFF
FF40007FFF
FF40003FFF
FF40001FFF
ENDCHAR
STARTCHAR Ograve
ENCODING 210
SWIDTH 795 0
DWIDTH 25 0
BBX 22 30 2 0
BITMAP
002FF8000000
000BFD000000
0001FF400000
00007FC00000
00000BF00000
000000000000
000000000000
0006BFE50000
007FFFFF9000
02FFFFFFF400
0BFFFFFFFD00
1FFF406FFF00
3FF80007FF40
7FF00002FFC0
BFE00000FFC0
FFD00000BFD0
FFC00000BFD0
FFC00000BFE0
FFC000007FE0
FFC00000BFE0
FFC00000BFD0
FFD00000BFD0
BFE00000FFC0
7FF00002FFC0
3FF80007FF40
1FFF506FFF00
0BFFFFFFFD00
02FFFFFFF400
007FFFFF8000
0006BFE50000
ENDCHAR
STARTCHAR Oacute
ENCODING 211
SWIDTH 795 0
DWIDTH 25 0
BBX 22 30 2 0
BITMAP
000001FFC000
000007FE0000
00000FF80000
00002FD00000
0000BF400000
000000000000
000000000000
0006BFE50000
007FFFFF9000
02FFFFFFF400
0BFFFFFFFD00
1FFF406FFF00
3FF80007FF40
7FF00002FFC0
BFE00000FFC0
FFD00000BFD0
FFC00000BFD0
FFC00000BFE0
FFC000007FE0
FFC00000BFE0
FFC00000BFD0
FFD00000BFD0
BFE00000FFC0
7FF00002FFC0
3FF80007FF40
1FFF506FFF00
0BFFFFFFFD00
02FFFFFFF400
007FFFFF8000
0006BFE50000
ENDCHAR
STARTCHAR Ocircumflex
ENCODING 212
SWIDTH 795 0
DWIDTH 25 0
BBX 22 30 2 0
BITMAP
0001FFF00000
0007FFF80000
000FFBFE0000
003FD0BF4000
00FE001FD000
000000000000
000000000000
0006BFE50000
007FFFFF9000
02FFFFFFF400
0BFFFFFFFD00
1FFF406FFF00
3FF80007FF40
7FF00002FFC0
BFE00000FFC0
FFD00000BFD0
FFC00000BFD0
FFC00000BFE0
FFC000007FE0
FFC00000BFE0
FFC00000BFD0
FFD00000BFD0
BFE00000FFC0
7FF00002FFC0
3FF80007FF40
1FFF506FFF00
0BFFFFFFFD00
02FFFFFFF400
007FFFFF8000
0006BFE50000
ENDCHAR
STARTCHAR Otilde
ENCODING 213
SWIDTH 795 0
DWIDTH 25 0
BBX 22 30 2 0
BITMAP
0007E407C000
002FFE5BC000
003FFFFF8000
007D6FFF0000
00B802F80000
000000000000
000000000000
0006BFE50000
007FFFFF9000
02FFFFFFF400
0BFFFFFFFD00
1FFF406FFF00
3FF80007FF40
7FF00002FFC0
BFE00000FFC0
FFD00000BFD0
FFC00000BFD0
FFC00000BFE0
FFC000007FE0
FFC00000BFE0
FFC00000BFD0
FFD00000BFD0
BFE00000FFC0
7FF00002FFC0
3FF80007FF40
1FFF506FFF00
0BFFFFFFFD00
02FFFFFFF400
007FFFFF8000
0006BFE50000
ENDCHAR
STARTCHAR Odieresis
ENCODING 214
SWIDTH 795 0
DWIDTH 25 0
BBX 22 29 2 0
BITMAP
000FD0BE0000
002FE1FF0000
001FE1FF0000
000B80BD0000
000000000000
000000000000
0006BFE50000
007FFFFF9000
02FFFFFFF400
0BFFFFFFFD00
1FFF406FFF00
3FF80007FF40
7FF00002FFC0
BFE00000FFC0
FFD00000BFD0
FFC00000BFD0
FFC00000BFE0
FFC000007FE0
FFC00000BFE0
FFC00000BFD0
FFD00000BFD0
BFE00000FFC0
7FF00002FFC0
3FF80007FF40
1FFF506FFF00
0BFFFFFFFD00
02FFFFFFF400
007FFFFF8000
0006BFE50000
ENDCHAR
STARTCHAR multiply
ENCODING 215
SWIDTH 570 0
DWIDTH 18 0
BBX 14 15 2 4
BITMAP
04000100
2E0007C0
BF801FF0
7FE07FD0
1FF9FF40
07FFFD00
01FFF400
00BFE000
01FFF400
07FFFD00
1FF5FF40
7FD07FD0
BF401FF0
2D0007C0
04000100
ENDCHAR
STARTCHAR Oslash
ENCODING 216
SWIDTH 795 0
DWIDTH 25 0
BBX 22 25 2 -1
BITMAP
000000002400
0006BFE97E00
007FFFFFFD00
02FFFFFFF800
0BFFFFFFFD00
1FFF406FFF00
3FF8002FFF40
7FF000BFFFC0
BFE001FEFFC0
FFD003F8BFD0
FFC00BF0BFD0
FFC01FD0BFE0
FFC03F807FE0
FFC0BF00BFE0
FFC1FD00BFD0
FFD3F800BFD0
BFEBF000FFC0
7FFFD002FFC0
3FFF8007FF40
1FFF506FFF00
0BFFFFFFFD00
07FFFFFFF400
0BFFFFFF8000
1FD6BFE50000
024000000000
ENDCHAR
STARTCHAR Ugrave
ENCODING 217
SWIDTH 755 0
DWIDTH 24 0
BBX 20 30 2 0
BITMAP
00BFE00000
002FF40000
000BFC0000
0001FF0000
00002F8000
0000000000
0000000000
7FE00007FD
7FE00007FD
7FE00007FD
7FE00007FD
7FE00007FD
7FE00007FD
7FE00007FD
7FE00007FD
7FE00007FD
7FE00007FD
7FE00007FD
7FE00007FD
7FE00007FD
7FE00007FD
7FE00007FD
7FE0000BFD
3FF0000BFD
3FF4001FFC
1FFE41BFF8
0FFFFFFFF0
03FFFFFFD0
00BFFFFE00
001AFFA400
ENDCHAR
STARTCHAR Uacute
ENCODING 218
SWIDTH 755 0
DWIDTH 24 0
BBX 20 30 2 0
BITMAP
000007FF40
00000FFD00
00002FE000
0000BF8000
0001FD0000
0000000000
0000000000
7FE00007FD
7FE00007FD
7FE00007FD
7FE00007FD
7FE00007FD
7FE00007FD
7FE00007FD
7FE00007FD
7FE00007FD
7FE00007FD
7FE00007FD
7FE00007FD
7FE00007FD
7FE00007FD
7FE00007FD
7FE0000BFD
3FF0000BFD
3FF4001FFC
1FFE41BFF8
0FFFFFFFF0
03FFFFFFD0
00BFFFFE00
001AFFA400
ENDCHAR
STARTCHAR Ucircumflex
ENCODING 219
SWIDTH 755 0
DWIDTH 24 0
BBX 20 30 2 0
BITMAP
0003FFD000
000BFFF000
002FEBF800
00BF82FE00
02FD007F80
0000000000
0000000000
7FE00007FD
7FE00007FD
7FE00007FD
7FE00007FD
7FE00007FD
7FE00007FD
7FE00007FD
7FE00007FD
7FE00007FD
7FE00007FD
7FE00007FD
7FE00007FD
7FE00007FD
7FE00007FD
7FE00007FD
7FE0000BFD
3FF0000BFD
3FF4001FFC
1FFE41BFF8
0FFFFFFFF0
03FFFFFFD0
00BFFFFE00
001AFFA400
ENDCHAR
STARTCHAR Udieresis
ENCODING 220
SWIDTH 755 0
DWIDTH 24 0
BBX 20 29 2 0
BITMAP
002F81F800
003FC3FD00
003FC3FD00
001F41F800
0000000000
0000000000
7FE00007FD
7FE00007FD
7FE00007FD
7FE00007FD
7FE00007FD
7FE00007FD
7FE00007FD
7FE00007FD
7FE00007FD
7FE00007FD
7FE00007FD
7FE00007FD
7FE00007FD
7FE00007FD
7FE00007FD
7FE0000BFD
3FF0000BFD
3FF4001FFC
1FFE41BFF8
0FFFFFFFF0
03FFFFFFD0
00BFFFFE00
001AFFA400
ENDCHAR
STARTCHAR Yacute
ENCODING 221
SWIDTH 624 0
DWIDTH 20 0
BBX 20 30 0 0
BITMAP
000007FF00
00001FF800
00003FE000
0000BF4000
0002FD0000
0000000000
0000000000
BFE0000BFE
7FF0000FFD
2FF8002FF8
0FFC003FF0
0BFE00BFE0
03FF00FFC0
02FF82FF40
00FFC3FF00
007FEBFD00
003FFFF800
001FFFF400
000FFFE000
0007FFD000
0002FF8000
0001FF4000
0001FF4000
0001FF4000
0001FF4000
0001FF4000
0001FF4000
0001FF4000
0001FF4000
0001FF4000
ENDCHAR
STARTCHAR Thorn
ENCODING 222
SWIDTH 627 0
DWIDTH 20 0
BBX 16 23 3 0
BITMAP
FF800000
FF800000
FF800000
FF800000
FFFFF900
FFFFFFD0
FFFFFFF4
FFFFFFFC
FF802FFD
FF800BFE
FF8007FE
FF8007FE
FF800BFD
FF802FFD
FFFFFFF8
FFFFFFF0
FFFFFF80
FFFFE900
FF800000
FF800000
FF800000
FF800000
FF800000
ENDCHAR
STARTCHAR germandbls
ENCODING 223
SWIDTH 710 0
DWIDTH 23 0
BBX 20 24 2 0
BITMAP
006BFE9000
02FFFFFD00
0FFFFFFF80
2FFFAFFFD0
3FF401FFD0
7FE0007FD0
7FD000BFD0
BFD001FF80
BFD007FE00
BFD02FF800
BFD07FD000
BFD0BFD000
BFD0BFF400
BFD07FFE00
BFD01FFFD0
BFD002FFF4
BFD0007FFC
BFD0000BFD
BFD00007FE
BFD14007FE
BFD1F96FFD
BFD1FFFFFC
BFD1FFFFE0
BFD06FFE40
ENDCHAR
STARTCHAR agrave
ENCODING 224
SWIDTH 604 0
DWIDTH 19 0
BBX 16 24 1 0
BITMAP
03FF4000
00BFD000
002FF000
0007F800
0001FE00
00000000
00000000
006FFE40
0BFFFFF0
0BFFFFFC
03FAAFFD
014007FE
000003FF
000002FF
006BFFFF
0BFFFFFF
3FFFEBFF
7FF402FF
BFD003FF
BFD00BFF
7FFABFFF
3FFFFEFF
1FFFF4FF
06FF80BF
ENDCHAR
STARTCHAR aacute
ENCODING 225
SWIDTH 604 0
DWIDTH 19 0
BBX 16 24 1 0
BITMAP
00002FF8
0000BFE0
0001FF40
0007FD00
000FE000
00000000
00000000
006FFE40
0BFFFFF0
0BFFFFFC
03FAAFFD
014007FE
000003FF
000002FF
006BFFFF
0BFFFFFF
3FFFEBFF
7FF402FF
BFD003FF
BFD00BFF
7FFABFFF
3FFFFEFF
1FFFF4FF
06FF80BF
ENDCHAR
STARTCHAR acircumflex
ENCODING 226
SWIDTH 604 0
DWIDTH 19 0
BBX 16 24 1 0
BITMAP
002FFE00
007FFF40
01FFBFD0
07FD1FF4
0FE002FD
00000000
00000000
006FFE40
0BFFFFF0
0BFFFFFC
03FAAFFD
014007FE
000003FF
000002FF
006BFFFF
0BFFFFFF
3FFFEBFF
7FF402FF
BFD003FF
BFD00BFF
7FFABFFF
3FFFFEFF
1FFFF4FF
06FF80BF
ENDCHAR
STARTCHAR atilde
ENCODING 227
SWIDTH 604 0
DWIDTH 19 0
BBX 16 24 1 0
BITMAP
006F403D
01FFF5BC
03FFFFF8
07E6FFF4
0BC02F90
00000000
00000000
006FFE40
0BFFFFF0
0BFFFFFC
03FAAFFD
014007FE
000003FF
000002FF
006BFFFF
0BFFFFFF
3FFFEBFF
7FF402FF
BFD003FF
BFD00BFF
7FFABFFF
3FFFFEFF
1FFFF4FF
06FF80BF
ENDCHAR
STARTCHAR adieresis
ENCODING 228
SWIDTH 604 0
DWIDTH 19 0
BBX 16 24 1 0
BITMAP
00FD0BE0
01FE1FF0
01FE0FF0
00B90BD0
00000000
00000000
00000000
006FFE40
0BFFFFF0
0BFFFFFC
03FAAFFD
014007FE
000003FF
000002FF
006BFFFF
0BFFFFFF
3FFFEBFF
7FF402FF
BFD003FF
BFD00BFF
7FFABFFF
3FFFFEFF
1FFFF4FF
06FF80BF
ENDCHAR
STARTCHAR aring
ENCODING 229
SWIDTH 604 0
DWIDTH 19 0
BBX 16 26 1 0
BITMAP
0006F800
001FFF40
003E5F80
003D0B80
003E5F80
001FFF40
0006F800
00000000
00000000
006FFE40
0BFFFFF0
0BFFFFFC
03FAAFFD
014007FE
000003FF
000002FF
006BFFFF
0BFFFFFF
3FFFEBFF
7FF402FF
BFD003FF
BFD00BFF
7FFABFFF
3FFFFEFF
1FFFF4FF
06FF80BF
ENDCHAR
STARTCHAR ae
ENCODING 230
SWIDTH 916 0
DWIDTH 29 0
BBX 27 17 1 0
BITMAP
006FFA00AFE400
0BFFFFDBFFFF40
0BFFFFFFFFFFD0
03FAAFFFF9BFF0
01400BFF801FF4
000003FF000BF8
000003FF000BFC
016BFFFFFFFFFC
0BFFFFFFFFFFFC
3FFFEBFFFFFFFC
7FF403FE555550
BFD007FF000000
BFD00BFF800010
7FFABFFFFAABF0
3FFFFF6FFFFFF0
1FFFFD07FFFFF0
02FF90006FFA40
ENDCHAR
STARTCHAR ccedilla
ENCODING 231
SWIDTH 514 0
DWIDTH 16 0
BBX 15 25 1 -8
BITMAP
001BFE90
01FFFFF4
0BFFFFF0
1FFFFFE0
2FF80190
3FF00000
7FE00000
7FD00000
BFD00000
BFD00000
7FE00000
7FF00000
3FF801B0
2FFFFFF0
0BFFFFF0
02FFFFE0
006BFE40
000BD000
001FC000
001FE400
0002FD00
0001FE00
006BFD00
00BFFC00
007FE000
ENDCHAR
STARTCHAR egrave
ENCODING 232
SWIDTH 590 0
DWIDTH 19 0
BBX 17 24 1 0
BITMAP
03FF800000
00BFD00000
002FF00000
0007FC0000
0001BE0000
0000000000
0000000000
001BFE4000
01FFFFE000
0BFFFFF800
1FFE6FFD00
2FF402FF00
3FE001FF40
7FD000FF40
7FFFFFFF80
BFFFFFFF80
7FFFFFFF80
7FD5555500
3FE0000000
2FF4000500
1FFFAABE00
07FFFFFE00
01FFFFFE00
001BFFA400
ENDCHAR
STARTCHAR eacute
ENCODING 233
SWIDTH 590 0
DWIDTH 19 0
BBX 17 24 1 0
BITMAP
00002FF800
00007FE000
0001FF4000
0003FD0000
000FE00000
0000000000
0000000000
001BFE4000
01FFFFE000
0BFFFFF800
1FFE6FFD00
2FF402FF00
3FE001FF40
7FD000FF40
7FFFFFFF80
BFFFFFFF80
7FFFFFFF80
7FD5555500
3FE0000000
2FF4000500
1FFFAABE00
07FFFFFE00
01FFFFFE00
001BFFA400
ENDCHAR
STARTCHAR ecircumflex
ENCODING 234
SWIDTH 590 0
DWIDTH 19 0
BBX 17 24 1 0
BITMAP
001FFF0000
003FFF8000
00FFBFE000
02FD0BF800
0BE401FD00
0000000000
0000000000
001BFE4000
01FFFFE000
0BFFFFF800
1FFE6FFD00
2FF402FF00
3FE001FF40
7FD000FF40
7FFFFFFF80
BFFFFFFF80
7FFFFFFF80
7FD5555500
3FE0000000
2FF4000500
1FFFAABE00
07FFFFFE00
01FFFFFE00
001BFFA400
ENDCHAR
STARTCHAR edieresis
ENCODING 235
SWIDTH 590 0
DWIDTH 19 0
BBX 17 24 1 0
BITMAP
00BD0BE000
01FF0FF400
01FF0FF400
00BD07E000
0000000000
0000000000
0000000000
001BFE4000
01FFFFE000
0BFFFFF800
1FFE6FFD00
2FF402FF00
3FE001FF40
7FD000FF40
7FFFFFFF80
BFFFFFFF80
7FFFFFFF80
7FD5555500
3FE0000000
2FF4000500
1FFFAABE00
07FFFFFE00
01FFFFFE00
001BFFA400
ENDCHAR
STARTCHAR igrave
ENCODING 236
SWIDTH 305 0
DWIDTH 10 0
BBX 10 24 -2 0
BITMAP
7FF000
1FF800
03FE00
00BF40
001FD0
000000
000000
00BFD0
00BFD0
00BFD0
00BFD0
00BFD0
00BFD0
00BFD0
00BFD0
00BFD0
00BFD0
00BFD0
00BFD0
00BFD0
00BFD0
00BFD0
00BFD0
00BFD0
ENDCHAR
STARTCHAR iacute
ENCODING 237
SWIDTH 305 0
DWIDTH 10 0
BBX 9 24 2 0
BITMAP
01FFC0
07FE00
0FF800
2FD000
BF4000
000000
000000
BFD000
BFD000
BFD000
BFD000
BFD000
BFD000
BFD000
BFD000
BFD000
BFD000
BFD000
BFD000
BFD000
BFD000
BFD000
BFD000
BFD000
ENDCHAR
STARTCHAR icircumflex
ENCODING 238
SWIDTH 305 0
DWIDTH 10 0
BBX 14 24 -2 0
BITMAP
01FFF000
03FFF800
0BFBFE00
2FE0BF80
BE401FD0
00000000
00000000
00BFD000
00BFD000
00BFD000
00BFD000
00BFD000
00BFD000
00BFD000
00BFD000
00BFD000
00BFD000
00BFD000
00BFD000
00BFD000
00BFD000
00BFD000
00BFD000
00BFD000
ENDCHAR
STARTCHAR idieresis
ENCODING 239
SWIDTH 305 0
DWIDTH 10 0
BBX 12 24 -1 0
BITMAP
3F42F8
7FC3FD
7F83FC
2F41F4
000000
000000
000000
02FF40
02FF40
02FF40
02FF40
02FF40
02FF40
02FF40
02FF40
02FF40
02FF40
02FF40
02FF40
02FF40
02FF40
02FF40
02FF40
02FF40
ENDCHAR
STARTCHAR eth
ENCODING 240
SWIDTH 619 0
DWIDTH 20 0
BBX 18 24 1 0
BITMAP
0009006000
002F92F800
007FFFFC00
001FFFE000
000BFFC000
007FFFF000
007F9FF800
002D07FD00
000002FF00
006FF9FF40
02FFFFFF80
0FFFFFFFC0
2FFEABFFC0
3FF401FFD0
7FE000BFD0
7FD000BFD0
BFD000BFD0
7FD000BFC0
7FE000FFC0
3FF402FF80
1FFEABFF00
0BFFFFFD00
02FFFFF400
001BFE4000
ENDCHAR
STARTCHAR ntilde
ENCODING 241
SWIDTH 657 0
DWIDTH 21 0
BBX 17 24 2 0
BITMAP
00BE40BC00
02FFE5F800
07FFFFF400
0BD6FFE000
0F806F8000
0000000000
0000000000
BF41BF9000
BF8FFFF800
BFFFFFFE00
BFFFFFFF40
BFF807FF40
BFF001FF80
BFE001FF80
BFD000FF80
BFD000FF80
BFD000FF80
BFD000FF80
BFD000FF80
BFD000FF80
BFD000FF80
BFD000FF80
BFD000FF80
BFD000FF80
ENDCHAR
STARTCHAR ograve
ENCODING 242
SWIDTH 619 0
DWIDTH 20 0
BBX 18 24 1 0
BITMAP
03FF400000
00BFD00000
002FF00000
0007F80000
0001FE0000
0000000000
0000000000
001BFE4000
01FFFFF400
0BFFFFFD00
1FFFFFFF00
2FF802FF80
3FF000FFC0
7FE000BFD0
7FD000BFD0
BFD000BFD0
BFD000BFD0
7FE000BFD0
3FF000FFC0
2FF802FF80
1FFFFFFF00
07FFFFFD00
01FFFFF400
001BFE4000
ENDCHAR
STARTCHAR oacute
ENCODING 243
SWIDTH 619 0
DWIDTH 20 0
BBX 18 24 1 0
BITMAP
00001FFC00
00003FF000
0000FF8000
0002FD0000
000BF40000
0000000000
0000000000
001BFE4000
01FFFFF400
0BFFFFFD00
1FFFFFFF00
2FF802FF80
3FF000FFC0
7FE000BFD0
7FD000BFD0
BFD000BFD0
BFD000BFD0
7FE000BFD0
3FF000FFC0
2FF802FF80
1FFFFFFF00
07FFFFFD00
01FFFFF400
001BFE4000
ENDCHAR
STARTCHAR ocircumflex
ENCODING 244
SWIDTH 619 0
DWIDTH 20 0
BBX 18 24 1 0
BITMAP
001FFF0000
003FFF8000
00BFBFE000
02FE0BF800
0BE401FD00
0000000000
0000000000
001BFE4000
01FFFFF400
0BFFFFFD00
1FFFFFFF00
2FF802FF80
3FF000FFC0
7FE000BFD0
7FD000BFD0
BFD000BFD0
BFD000BFD0
7FE000BFD0
3FF000FFC0
2FF802FF80
1FFFFFFF00
07FFFFFD00
01FFFFF400
001BFE4000
ENDCHAR
STARTCHAR otilde
ENCODING 245
SWIDTH 619 0
DWIDTH 20 0
BBX 18 24 1 0
BITMAP
006F403D00
01FFF5BC00
03FFFFF800
07E5FFF400
0BC02F9000
0000000000
0000000000
001BFE4000
01FFFFF400
0BFFFFFD00
1FFFFFFF00
2FF802FF80
3FF000FFC0
7FE000BFD0
7FD000BFD0
BFD000BFD0
BFD000BFD0
7FE000BFD0
3FF000FFC0
2FF802FF80
1FFFFFFF00
07FFFFFD00
01FFFFF400
001BFE4000
ENDCHAR
STARTCHAR odieresis
ENCODING 246
SWIDTH 619 0
DWIDTH 20 0
BBX 18 24 1 0
BITMAP
00FD0BE000
01FF0FF400
01FE0FF000
00BD07D000
0000000000
0000000000
0000000000
001BFE4000
01FFFFF400
0BFFFFFD00
1FFFFFFF00
2FF802FF80
3FF000FFC0
7FE000BFD0
7FD000BFD0
BFD000BFD0
BFD000BFD0
7FE000BFD0
3FF000FFC0
2FF802FF80
1FFFFFFF00
07FFFFFD00
01FFFFF400
001BFE4000
ENDCHAR
STARTCHAR divide
ENCODING 247
SWIDTH 570 0
DWIDTH 18 0
BBX 16 16 1 3
BITMAP
0007D000
000FF000
000FF400
000BF000
00029000
00000000
BFFFFFFF
BFFFFFFF
BFFFFFFF
55555555
00000000
0007D000
000FF000
000FF400
000BF000
00029000
ENDCHAR
STARTCHAR oslash
ENCODING 248
SWIDTH 619 0
DWIDTH 20 0
BBX 18 19 1 -1
BITMAP
0000001000
001BFE7D00
01FFFFFE00
0BFFFFFD00
1FFFFFFF00
2FF80BFF80
3FF01FFFC0
7FE07FFFD0
7FD0FEBFD0
BFD2F8BFD0
7FD7F0BFD0
7FEFD0BFD0
3FFF80FFC0
2FFE02FF80
1FFFFFFF00
07FFFFFD00
0BFFFFF400
0BDBFE4000
0140000000
ENDCHAR
STARTCHAR ugrave
ENCODING 249
SWIDTH 657 0
DWIDTH 21 0
BBX 17 24 2 0
BITMAP
0FFE000000
02FF400000
00BFC00000
001FF00000
0006F80000
0000000000
0000000000
BFD001FF80
BFD001FF80
BFD001FF80
BFD001FF80
BFD001FF80
BFD001FF80
BFD001FF80
BFD001FF80
BFD001FF80
BFD001FF80
BFD002FF80
BFD003FF80
7FF40BFF80
7FFFFFFF80
2FFFFFFF80
0BFFFCBF80
01BF907F80
ENDCHAR
STARTCHAR uacute
ENCODING 250
SWIDTH 657 0
DWIDTH 21 0
BBX 17 24 2 0
BITMAP
00003FF800
0000BFD000
0001FF4000
0007F80000
000FE00000
0000000000
0000000000
BFD001FF80
BFD001FF80
BFD001FF80
BFD001FF80
BFD001FF80
BFD001FF80
BFD001FF80
BFD001FF80
BFD001FF80
BFD001FF80
BFD002FF80
BFD003FF80
7FF40BFF80
7FFFFFFF80
2FFFFFFF80
0BFFFCBF80
01BF907F80
ENDCHAR
STARTCHAR ucircumflex
ENCODING 251
SWIDTH 657 0
DWIDTH 21 0
BBX 17 24 2 0
BITMAP
002FFE0000
007FFF4000
01FFBFD000
07FD1FF400
1FE002FC00
0000000000
0000000000
BFD001FF80
BFD001FF80
BFD001FF80
BFD001FF80
BFD001FF80
BFD001FF80
BFD001FF80
BFD001FF80
BFD001FF80
BFD001FF80
BFD002FF80
BFD003FF80
7FF40BFF80
7FFFFFFF80
2FFFFFFF80
0BFFFCBF80
01BF907F80
ENDCHAR
STARTCHAR udieresis
ENCODING 252
SWIDTH 657 0
DWIDTH 21 0
BBX 17 24 2 0
BITMAP
01F80FD000
03FD2FE000
02FD2FE000
01F80B8000
0000000000
0000000000
0000000000
BFD001FF80
BFD001FF80
BFD001FF80
BFD001FF80
BFD001FF80
BFD001FF80
BFD001FF80
BFD001FF80
BFD001FF80
BFD001FF80
BFD002FF80
BFD003FF80
7FF40BFF80
7FFFFFFF80
2FFFFFFF80
0BFFFCBF80
01BF907F80
ENDCHAR
STARTCHAR yacute
ENCODING 253
SWIDTH 568 0
DWIDTH 18 0
BBX 18 32 0 -8
BITMAP
00002FFC00
00007FE000
0000FF8000
0003FD0000
000BE40000
0000000000
0000000000
BFD0003FF0
7FE0007FE0
3FF000BFD0
2FF400FFC0
1FF801FF40
0BFC02FF00
07FD03FE00
03FE07FD00
02FF0BFC00
00FF4FF800
00BF9FF400
007FEFF000
003FFFD000
001FFFC000
000FFF8000
000BFF4000
0007FF0000
0007FE0000
000BFD0000
001FF80000
007FF40000
3FFFE00000
3FFFC00000
3FFF000000
2FE4000000
ENDCHAR
STARTCHAR thorn
ENCODING 254
SWIDTH 632 0
DWIDTH 20 0
BBX 17 32 2 -8
BITMAP
BFD0000000
BFD0000000
BFD0000000
BFD0000000
BFD0000000
BFD0000000
BFD0000000
BFD1BF8000
BFDBFFF400
BFEFFFFD00
BFFFFFFE00
BFF807FF40
BFE002FF40
BFD001FF80
BFD000FF80
BFD000FF80
BFD000FF80
BFD001FF80
BFE002FF40
BFF807FF40
BFFFFFFE00
BFFFFFFD00
BFDFFFF400
BFD2BF8000
BFD0000000
BFD0000000
BFD0000000
BFD0000000
BFD0000000
BFD0000000
BFD0000000
BFD0000000
ENDCHAR
STARTCHAR ydieresis
ENCODING 255
SWIDTH 568 0
DWIDTH 18 0
BBX 18 32 0 -8
BITMAP
00BE07F000
00FF0FF400
00FF0BF400
007D07E000
0000000000
0000000000
0000000000
BFD0003FF0
7FE0007FE0
3FF000BFD0
2FF400FFC0
1FF801FF40
0BFC02FF00
07FD03FE00
03FE07FD00
02FF0BFC00
00FF4FF800
00BF9FF400
007FEFF000
003FFFD000
001FFFC000
000FFF8000
000BFF4000
0007FF0000
0007FE0000
000BFD0000
001FF80000
007FF40000
3FFFE00000
3FFFC00000
3FFF000000
2FE4000000
ENDCHAR
STARTCHAR Amacron
ENCODING 256
SWIDTH 689 0
DWIDTH 22 0
BBX 22 29 0 0
BITMAP
000555550000
001FFFFF4000
001FFFFF4000
001FFFFF4000
000000000000
000000000000
0000FFF00000
0001FFF80000
0002FFFC0000
0003FFFD0000
000BFAFE0000
000FF5FF0000
001FF0FF4000
002FF0BF8000
003FE07FC000
007FD03FD000
00BFC02FE000
00FF801FF000
01FF400FF400
02FFFFFFF800
03FFFFFFFC00
07FFFFFFFD00
0BFFFFFFFE00
0FF80002FF00
1FF40001FF40
2FF40000FFC0
3FF00000FFD0
7FE00000BFE0
BFD000007FF0
ENDCHAR
STARTCHAR amacron
ENCODING 257
SWIDTH 604 0
DWIDTH 19 0
BBX 16 23 1 0
BITMAP
00555550
01FFFFF4
01FFFFF4
01FFFFF4
00000000
00000000
006FFE40
0BFFFFF0
0BFFFFFC
03FAAFFD
014007FE
000003FF
000002FF
006BFFFF
0BFFFFFF
3FFFEBFF
7FF402FF
BFD003FF
BFD00BFF
7FFABFFF
3FFFFEFF
1FFFF4FF
06FF80BF
ENDCHAR
STARTCHAR Abreve
ENCODING 258
SWIDTH 689 0
DWIDTH 22 0
BBX 22 30 0 0
BITMAP
003E000BC000
002F956FC000
001FFFFF4000
000BFFFD0000
0001BFE00000
000000000000
000000000000
0000FFF00000
0001FFF80000
0002FFFC0000
0003FFFD0000
000BFAFE0000
000FF5FF0000
001FF0FF4000
002FF0BF8000
003FE07FC000
007FD03FD000
00BFC02FE000
00FF801FF000
01FF400FF400
02FFFFFFF800
03FFFFFFFC00
07FFFFFFFD00
0BFFFFFFFE00
0FF80002FF00
1FF40001FF40
2FF40000FFC0
3FF00000FFD0
7FE00000BFE0
BFD000007FF0
ENDCHAR
STARTCHAR abreve
ENCODING 259
SWIDTH 604 0
DWIDTH 19 0
BBX 16 24 1 0
BITMAP
07E000FC
03F95BF8
02FFFFF4
00BFFFD0
001BFA00
00000000
00000000
006FFE40
0BFFFFF0
0BFFFFFC
03FAAFFD
014007FE
000003FF
000002FF
006BFFFF
0BFFFFFF
3FFFEBFF
7FF402FF
BFD003FF
BFD00BFF
7FFABFFF
3FFFFEFF
1FFFF4FF
06FF80BF
ENDCHAR
STARTCHAR Aogonek
ENCODING 260
SWIDTH 689 0
DWIDTH 22 0
BBX 22 31 0 -8
BITMAP
0000FFF00000
0001FFF80000
0002FFFC0000
0003FFFD0000
000BFAFE0000
000FF5FF0000
001FF0FF4000
002FF0BF8000
003FE07FC000
007FD03FD000
00BFC02FE000
00FF801FF000
01FF400FF400
02FFFFFFF800
03FFFFFFFC00
07FFFFFFFD00
0BFFFFFFFE00
0FF80002FF00
1FF40001FF40
2FF40000FFC0
3FF00000FFD0
7FE00000BFE0
BFD000007FF0
00000000BD00
00000002F400
00000007E000
0000000BD000
0000000FE000
0000000BFF40
00000007FF40
00000001BF40
ENDCHAR
STARTCHAR aogonek
ENCODING 261
SWIDTH 604 0
DWIDTH 19 0
BBX 17 25 1 -8
BITMAP
006FFE4000
0BFFFFF000
0BFFFFFC00
03FAAFFD00
014007FE00
000003FF00
000002FF00
006BFFFF00
0BFFFFFF00
3FFFEBFF00
7FF402FF00
BFD003FF00
BFD00BFF00
7FFABFFF00
3FFFFEFF00
1FFFF4FF00
06FF80BF00
000000BC00
000003F400
00000BD000
00000FD000
00000FD000
00000FFF40
000007FF40
000001BE00
ENDCHAR
STARTCHAR Cacute
ENCODING 262
SWIDTH 637 0
DWIDTH 20 0
BBX 17 30 2 0
BITMAP
000007FF40
00000FFC00
00002FE000
0000BF8000
0002FD0000
0000000000
0000000000
0006BFE400
007FFFFF80
02FFFFFFC0
0BFFFFFF80
1FFF406F00
3FF8000100
7FF0000000
BFE0000000
FFD0000000
FFC0000000
FFC0000000
FFC0000000
FFC0000000
FFC0000000
FFC0000000
BFD0000000
7FF0000000
3FF8000000
2FFE405B40
0FFFFFFF40
03FFFFFF40
00BFFFFF40
0006FFE400
ENDCHAR
STARTCHAR cacute
ENCODING 263
SWIDTH 514 0
DWIDTH 16 0
BBX 15 24 1 0
BITMAP
00002FF8
00007FE0
0001FF40
0007FD00
000FE000
00000000
00000000
001BFE90
01FFFFF4
0BFFFFF0
1FFFFFE0
2FF80190
3FF00000
7FE00000
7FD00000
BFD00000
BFD00000
7FE00000
7FF00000
3FF801B0
2FFFFFF0
0BFFFFF0
02FFFFE0
006BFE40
ENDCHAR
STARTCHAR Ccircumflex
ENCODING 264
SWIDTH 637 0
DWIDTH 20 0
BBX 17 30 2 0
BITMAP
0002FFD000
000BFFF400
001FFBFD00
007F81FF00
01FE002FC0
0000000000
0000000000
0006BFE400
007FFFFF80
02FFFFFFC0
0BFFFFFF80
1FFF406F00
3FF8000100
7FF0000000
BFE0000000
FFD0000000
FFC0000000
FFC0000000
FFC0000000
FFC0000000
FFC0000000
FFC0000000
BFD0000000
7FF0000000
3FF8000000
2FFE405B40
0FFFFFFF40
03FFFFFF40
00BFFFFF40
0006FFE400
ENDCHAR
STARTCHAR ccircumflex
ENCODING 265
SWIDTH 514 0
DWIDTH 16 0
BBX 15 24 1 0
BITMAP
002FFE00
007FFF40
01FFBFD0
07FD1FF4
1FE002FC
00000000
00000000
001BFE90
01FFFFF4
0BFFFFF0
1FFFFFE0
2FF80190
3FF00000
7FE00000
7FD00000
BFD00000
BFD00000
7FE00000
7FF00000
3FF801B0
2FFFFFF0
0BFFFFF0
02FFFFE0
006BFE40
ENDCHAR
STARTCHAR Cdot
ENCODING 266
SWIDTH 637 0
DWIDTH 20 0
BBX 17 30 2 0
BITMAP
0000690000
0000FF8000
0001FF8000
0000FF8000
00007E0000
0000000000
0000000000
0006BFE400
007FFFFF80
02FFFFFFC0
0BFFFFFF80
1FFF406F00
3FF8000100
7FF0000000
BFE0000000
FFD0000000
FFC0000000
FFC0000000
FFC0000000
FFC0000000
FFC0000000
FFC0000000
BFD0000000
7FF0000000
3FF8000000
2FFE405B40
0FFFFFFF40
03FFFFFF40
00BFFFFF40
0006FFE400
ENDCHAR
STARTCHAR cdot
ENCODING 267
SWIDTH 514 0
DWIDTH 16 0
BBX 15 25 1 0
BITMAP
0001A400
0007FC00
000BFD00
000BFD00
0002F800
00000000
00000000
00000000
001BFE90
01FFFFF4
0BFFFFF0
1FFFFFE0
2FF80190
3FF00000
7FE00000
7FD00000
BFD00000
BFD00000
7FE00000
7FF00000
3FF801B0
2FFFFFF0
0BFFFFF0
02FFFFE0
006BFE40
ENDCHAR
STARTCHAR Ccaron
ENCODING 268
SWIDTH 637 0
DWIDTH 20 0
BBX 17 30 2 0
BITMAP
01FE002FC0
007F81FF40
001FFBFD00
000BFFF400
0002FFE000
0000000000
0000000000
0006BFE400
007FFFFF80
02FFFFFFC0
0BFFFFFF80
1FFF406F00
3FF8000100
7FF0000000
BFE0000000
FFD0000000
FFC0000000
FFC0000000
FFC0000000
FFC0000000
FFC0000000
FFC0000000
BFD0000000
7FF0000000
3FF8000000
2FFE405B40
0FFFFFFF40
03FFFFFF40
00BFFFFF40
0006FFE400
ENDCHAR
STARTCHAR ccaron
ENCODING 269
SWIDTH 514 0
DWIDTH 16 0
BBX 16 24 1 0
BITMAP
0FE002FD
03FD0BF4
00FFBFE0
007FFF80
001FFE00
00000000
00000000
001BFE90
01FFFFF4
0BFFFFF0
1FFFFFE0
2FF80190
3FF00000
7FE00000
7FD00000
BFD00000
BFD00000
7FE00000
7FF00000
3FF801B0
2FFFFFF0
0BFFFFF0
02FFFFE0
006BFE40
ENDCHAR
STARTCHAR Dcaron
ENCODING 270
SWIDTH 740 0
DWIDTH 24 0
BBX 19 30 3 0
BITMAP
1FD002FC00
07F81FF000
01FFBFD000
00BFFF4000
002FFD0000
0000000000
0000000000
FFFFE90000
FFFFFFE000
FFFFFFFD00
FFFFFFFF40
FF801BFFC0
FF8001FFE0
FF80007FF0
FF80003FF4
FF80002FF8
FF80001FF8
FF80001FF8
FF80001FF8
FF80001FF8
FF80001FF8
FF80002FF4
FF80003FF4
FF8000BFF0
FF8001FFD0
FF801BFF80
FFFFFFFF00
FFFFFFF800
FFFFFFD000
FFFFE90000
ENDCHAR
STARTCHAR dcaron
ENCODING 271
SWIDTH 632 0
DWIDTH 20 0
BBX 24 24 1 0
BITMAP
000000FF83FD
000000FF83FC
000000FF87F4
000000FF87F0
000000FF8BD0
000000FF8000
000000FF8000
006FE0FF8000
03FFFDBF8000
0FFFFFFF8000
2FFFFFFF8000
3FF807FF8000
7FF001FF8000
7FE000FF8000
BFD000BF8000
BFD000BF8000
BFD000BF8000
7FD000FF8000
7FE001FF8000
3FF807FF8000
2FFFBFFF8000
0FFFFFFF8000
07FFFD7F8000
00AFE03F8000
ENDCHAR
STARTCHAR Dcroat
ENCODING 272
SWIDTH 740 0
DWIDTH 24 0
BBX 22 23 0 0
BITMAP
03FFFFA40000
03FFFFFF8000
03FFFFFFF400
03FFFFFFFD00
03FE006FFF00
03FE0007FF80
03FE0001FFC0
03FE0000FFD0
03FE0000BFE0
03FE00007FE0
7FFFFD007FE0
7FFFFD007FE0
7FFFFD007FE0
7FFFFD007FE0
03FE0000BFD0
03FE0000FFD0
03FE0002FFC0
03FE0007FF40
03FE006FFE00
03FFFFFFFC00
03FFFFFFE000
03FFFFFF4000
03FFFFA40000
ENDCHAR
STARTCHAR dcroat
ENCODING 273
SWIDTH 648 0
DWIDTH 21 0
BBX 20 24 1 0
BITMAP
000000FF80
000000FF80
0003FFFFFD
0003FFFFFD
0003FFFFFD
000000FF80
000000FF80
01BFA0FF80
07FFFDBF80
1FFFFFFF80
2FFFFFFF80
3FF806FF80
7FF000FF80
7FE000FF80
BFE000BF80
BFE000BF80
BFE000BF80
7FE000FF80
7FF000FF80
3FF802FF80
2FFFFFFF80
0FFFFEFF80
07FFF8BF80
00BF907F80
ENDCHAR
STARTCHAR Emacron
ENCODING 274
SWIDTH 560 0
DWIDTH 18 0
BBX 13 29 3 0
BITMAP
15555500
2FFFFF00
2FFFFF00
2FFFFF00
00000000
00000000
FFFFFFC0
FFFFFFC0
FFFFFFC0
FFFFFFC0
FF800000
FF800000
FF800000
FF800000
FF800000
FFFFFF40
FFFFFF40
FFFFFF40
FFFFFF40
FF800000
FF800000
FF800000
FF800000
FF800000
FF800000
FFFFFFC0
FFFFFFC0
FFFFFFC0
FFFFFFC0
ENDCHAR
STARTCHAR emacron
ENCODING 275
SWIDTH 590 0
DWIDTH 19 0
BBX 17 23 1 0
BITMAP
0155555000
02FFFFF000
02FFFFF000
02FFFFF000
0000000000
0000000000
001BFE4000
01FFFFE000
0BFFFFF800
1FFE6FFD00
2FF402FF00
3FE001FF40
7FD000FF40
7FFFFFFF80
BFFFFFFF80
7FFFFFFF80
7FD5555500
3FE0000000
2FF4000500
1FFFAABE00
07FFFFFE00
01FFFFFE00
001BFFA400
ENDCHAR
STARTCHAR Ebreve
ENCODING 276
SWIDTH 560 0
DWIDTH 18 0
BBX 13 30 3 0
BITMAP
BC001F40
BF55BF00
3FFFFE00
1FFFF800
02BF9000
00000000
00000000
FFFFFFC0
FFFFFFC0
FFFFFFC0
FFFFFFC0
FF800000
FF800000
FF800000
FF800000
FF800000
FFFFFF40
FFFFFF40
FFFFFF40
FFFFFF40
FF800000
FF800000
FF800000
FF800000
FF800000
FF800000
FFFFFFC0
FFFFFFC0
FFFFFFC0
FFFFFFC0
ENDCHAR
STARTCHAR ebreve
ENCODING 277
SWIDTH 590 0
DWIDTH 19 0
BBX 17 24 1 0
BITMAP
07D000F800
03F95BF400
02FFFFF000
00BFFFD000
001BF90000
0000000000
0000000000
001BFE4000
01FFFFE000
0BFFFFF800
1FFE6FFD00
2FF402FF00
3FE001FF40
7FD000FF40
7FFFFFFF80
BFFFFFFF80
7FFFFFFF80
7FD5555500
3FE0000000
2FF4000500
1FFFAABE00
07FFFFFE00
01FFFFFE00
001BFFA400
ENDCHAR
STARTCHAR Edotaccent
ENCODING 278
SWIDTH 560 0
DWIDTH 18 0
BBX 13 30 3 0
BITMAP
001A0000
00BFC000
00FFD000
00BFC000
006F4000
00000000
00000000
FFFFFFC0
FFFFFFC0
FFFFFFC0
FFFFFFC0
FF800000
FF800000
FF800000
FF800000
FF800000
FFFFFF40
FFFFFF40
FFFFFF40
FFFFFF40
FF800000
FF800000
FF800000
FF800000
FF800000
FF800000
FFFFFFC0
FFFFFFC0
FFFFFFC0
FFFFFFC0
ENDCHAR
STARTCHAR edotaccent
ENCODING 279
SWIDTH 590 0
DWIDTH 19 0
BBX 17 25 1 0
BITMAP
0001A40000
0007FD0000
000BFD0000
000BFD0000
0002F80000
0000000000
0000000000
0000000000
001BFE4000
01FFFFE000
0BFFFFF800
1FFE6FFD00
2FF402FF00
3FE001FF40
7FD000FF40
7FFFFFFF80
BFFFFFFF80
7FFFFFFF80
7FD5555500
3FE0000000
2FF4000500
1FFFAABE00
07FFFFFE00
01FFFFFE00
001BFFA400
ENDCHAR
STARTCHAR Eogonek
ENCODING 280
SWIDTH 560 0
DWIDTH 18 0
BBX 13 31 3 -8
BITMAP
FFFFFFC0
FFFFFFC0
FFFFFFC0
FFFFFFC0
FF800000
FF800000
FF800000
FF800000
FF800000
FFFFFF40
FFFFFF40
FFFFFF40
FFFFFF40
FF800000
FF800000
FF800000
FF800000
FF800000
FF800000
FFFFFFC0
FFFFFFC0
FFFFFFC0
FFFFFFC0
0000BD00
0002F400
000BE000
000FD000
000FD000
000BFF40
0007FF40
0001BE40
ENDCHAR
STARTCHAR eogonek
ENCODING 281
SWIDTH 590 0
DWIDTH 19 0
BBX 17 25 1 -8
BITMAP
001BFE4000
01FFFFE000
0BFFFFF800
1FFE6FFD00
2FF402FF00
3FE001FF40
7FD000FF40
7FFFFFFF80
BFFFFFFF80
7FFFFFFF80
7FD5555500
3FE0000000
2FF4000500
1FFFAABE00
07FFFFFE00
01FFFFFE00
001BFFA400
00000BD000
00002F4000
00007E0000
0000BD0000
0000FE0000
0000BFF400
00007FF400
00001BF400
ENDCHAR
STARTCHAR Ecaron
ENCODING 282
SWIDTH 560 0
DWIDTH 18 0
BBX 14 30 3 0
BITMAP
FE002FD0
7FD1FF40
1FFBFD00
07FFF400
02FFE000
00000000
00000000
FFFFFFC0
FFFFFFC0
FFFFFFC0
FFFFFFC0
FF800000
FF800000
FF800000
FF800000
FF800000
FFFFFF40
FFFFFF40
FFFFFF40
FFFFFF40
FF800000
FF800000
FF800000
FF800000
FF800000
FF800000
FFFFFFC0
FFFFFFC0
FFFFFFC0
FFFFFFC0
ENDCHAR
STARTCHAR ecaron
ENCODING 283
SWIDTH 590 0
DWIDTH 19 0
BBX 17 24 1 0
BITMAP
0FE001FD00
03FD0BF400
00FFBFE000
007FFF8000
001FFF0000
0000000000
0000000000
001BFE4000
01FFFFE000
0BFFFFF800
1FFE6FFD00
2FF402FF00
3FE001FF40
7FD000FF40
7FFFFFFF80
BFFFFFFF80
7FFFFFFF80
7FD5555500
3FE0000000
2FF4000500
1FFFAABE00
07FFFFFE00
01FFFFFE00
001BFFA400
ENDCHAR
STARTCHAR Gcircumflex
ENCODING 284
SWIDTH 724 0
DWIDTH 23 0
BBX 19 30 2 0
BITMAP
0002FFE000
0007FFF400
001FFBFD00
007FD1FF40
00FE002FD0
0000000000
0000000000
0001AFFA40
002FFFFFF4
01FFFFFFF0
07FFFFFFE0
1FFF9016D0
2FFD000000
7FF4000000
BFE0000000
FFD0000000
FFC0000000
FFC01FFFF8
FFC01FFFF8
FFC01FFFF8
FFC01FFFF8
FFD0000FF8
BFE0000FF8
7FF0000FF8
3FF8000FF8
2FFF401FF8
0BFFFFFFF8
02FFFFFFF8
00BFFFFFF4
0006FFEA40
ENDCHAR
STARTCHAR gcircumflex
ENCODING 285
SWIDTH 564 0
DWIDTH 18 0
BBX 18 32 0 -8
BITMAP
000FFF4000
002FFFC000
00BFEFF000
02FE0BF800
07F401FE00
0000000000
0000000000
006BFFFFE0
02FFFFFFE0
0BFFFFFF90
1FF80BFD00
1FF003FE00
2FF003FE00
1FF003FE00
1FF80BFD00
0BFFFFF800
02FFFFE000
01FFFA4000
07F4000000
0BF4000000
0BFFEAA400
07FFFFFE00
02FFFFFF80
1FFFFFFFD0
7FD000BFD0
BF80002FD0
FF40002FD0
FF80007FC0
BFE416FF80
3FFFFFFE00
1FFFFFF400
01BFFA4000
ENDCHAR
STARTCHAR Gbreve
ENCODING 286
SWIDTH 724 0
DWIDTH 23 0
BBX 19 30 2 0
BITMAP
007D000F80
007F95BF40
002FFFFF00
000BFFFC00
0001BF9000
0000000000
0000000000
0001AFFA40
002FFFFFF4
01FFFFFFF0
07FFFFFFE0
1FFF9016D0
2FFD000000
7FF4000000
BFE0000000
FFD0000000
FFC0000000
FFC01FFFF8
FFC01FFFF8
FFC01FFFF8
FFC01FFFF8
FFD0000FF8
BFE0000FF8
7FF0000FF8
3FF8000FF8
2FFF401FF8
0BFFFFFFF8
02FFFFFFF8
00BFFFFFF4
0006FFEA40
ENDCHAR
STARTCHAR gbreve
ENCODING 287
SWIDTH 564 0
DWIDTH 18 0
BBX 18 32 0 -8
BITMAP
03F000BD00
02F956FC00
01FFFFF800
007FFFE000
000BFE4000
0000000000
0000000000
006BFFFFE0
02FFFFFFE0
0BFFFFFF90
1FF80BFD00
1FF003FE00
2FF003FE00
1FF003FE00
1FF80BFD00
0BFFFFF800
02FFFFE000
01FFFA4000
07F4000000
0BF4000000
0BFFEAA400
07FFFFFE00
02FFFFFF80
1FFFFFFFD0
7FD000BFD0
BF80002FD0
FF40002FD0
FF80007FC0
BFE416FF80
3FFFFFFE00
1FFFFFF400
01BFFA4000
ENDCHAR
STARTCHAR Gdot
ENCODING 288
SWIDTH 724 0
DWIDTH 23 0
BBX 19 30 2 0
BITMAP
00001A4000
00007FC000
0000BFD000
0000BFD000
00002F8000
0000000000
0000000000
0001AFFA40
002FFFFFF4
01FFFFFFF0
07FFFFFFE0
1FFF9016D0
2FFD000000
7FF4000000
BFE0000000
FFD0000000
FFC0000000
FFC01FFFF8
FFC01FFFF8
FFC01FFFF8
FFC01FFFF8
FFD0000FF8
BFE0000FF8
7FF0000FF8
3FF8000FF8
2FFF401FF8
0BFFFFFFF8
02FFFFFFF8
00BFFFFFF4
0006FFEA40
ENDCHAR
STARTCHAR gdot
ENCODING 289
SWIDTH 564 0
DWIDTH 18 0
BBX 18 33 0 -8
BITMAP
0001A40000
0007FD0000
000BFE0000
0007FD0000
0002F80000
0000000000
0000000000
0000000000
006BFFFFE0
02FFFFFFE0
0BFFFFFF90
1FF80BFD00
1FF003FE00
2FF003FE00
1FF003FE00
1FF80BFD00
0BFFFFF800
02FFFFE000
01FFFA4000
07F4000000
0BF4000000
0BFFEAA400
07FFFFFE00
02FFFFFF80
1FFFFFFFD0
7FD000BFD0
BF80002FD0
FF40002FD0
FF80007FC0
BFE416FF80
3FFFFFFE00
1FFFFFF400
01BFFA4000
ENDCHAR
STARTCHAR Gcommaaccent
ENCODING 290
SWIDTH 724 0
DWIDTH 23 0
BBX 19 30 2 -7
BITMAP
0001AFFA40
002FFFFFF4
01FFFFFFF0
07FFFFFFE0
1FFF9016D0
2FFD000000
7FF4000000
BFE0000000
FFD0000000
FFC0000000
FFC01FFFF8
FFC01FFFF8
FFC01FFFF8
FFC01FFFF8
FFD0000FF8
BFE0000FF8
7FF0000FF8
3FF8000FF8
2FFF401FF8
0BFFFFFFF8
02FFFFFFF8
00BFFFFFF4
0006FFEA40
0000000000
0000000000
00007FC000
00007F8000
0000BF0000
0000FE0000
0000FC0000
ENDCHAR
STARTCHAR gcommaaccent
ENCODING 291
SWIDTH 564 0
DWIDTH 18 0
BBX 18 32 0 -8
BITMAP
00003F0000
0000BE0000
0001FD0000
0002FD0000
0007FC0000
0000000000
0000000000
006BFFFFE0
02FFFFFFE0
0BFFFFFF90
1FF80BFD00
1FF003FE00
2FF003FE00
1FF003FE00
1FF80BFD00
0BFFFFF800
02FFFFE000
01FFFA4000
07F4000000
0BF4000000
0BFFEAA400
07FFFFFE00
02FFFFFF80
1FFFFFFFD0
7FD000BFD0
BF80002FD0
FF40002FD0
FF80007FC0
BFE416FF80
3FFFFFFE00
1FFFFFF400
01BFFA4000
ENDCHAR
STARTCHAR Hcircumflex
ENCODING 292
SWIDTH 765 0
DWIDTH 24 0
BBX 19 30 3 0
BITMAP
000FFF4000
002FFFC000
00BFEFF000
02FE0BF800
07F401BE00
0000000000
0000000000
FF80001FF8
FF80001FF8
FF80001FF8
FF80001FF8
FF80001FF8
FF80001FF8
FF80001FF8
FF80001FF8
FF80001FF8
FFFFFFFFF8
FFFFFFFFF8
FFFFFFFFF8
FFFFFFFFF8
FF80001FF8
FF80001FF8
FF80001FF8
FF80001FF8
FF80001FF8
FF80001FF8
FF80001FF8
FF80001FF8
FF80001FF8
FF80001FF8
ENDCHAR
STARTCHAR hcircumflex
ENCODING 293
SWIDTH 657 0
DWIDTH 21 0
BBX 17 30 2 0
BITMAP
002FFE0000
007FFF4000
01FFBFD000
07FD1FF400
0FE002FD00
0000000000
BFD0000000
BFD0000000
BFD0000000
BFD0000000
BFD0000000
BFD0000000
BFD0000000
BFD1BF9000
BFCBFFF800
BFEFFFFE00
BFFFFFFF40
BFF807FF40
BFF001FF80
BFE001FF80
BFD000FF80
BFD000FF80
BFD000FF80
BFD000FF80
BFD000FF80
BFD000FF80
BFD000FF80
BFD000FF80
BFD000FF80
BFD000FF80
ENDCHAR
STARTCHAR Hbar
ENCODING 294
SWIDTH 765 0
DWIDTH 24 0
BBX 25 23 0 0
BITMAP
03FE00007FE000
03FE00007FE000
03FE00007FE000
FFFFFFFFFFFF40
FFFFFFFFFFFF40
FFFFFFFFFFFF40
07FE00007FE000
03FE00007FE000
03FE00007FE000
03FFFFFFFFE000
03FFFFFFFFE000
03FFFFFFFFE000
03FFFFFFFFE000
03FE00007FE000
03FE00007FE000
03FE00007FE000
03FE00007FE000
03FE00007FE000
03FE00007FE000
03FE00007FE000
03FE00007FE000
03FE00007FE000
03FE00007FE000
ENDCHAR
STARTCHAR hbar
ENCODING 295
SWIDTH 657 0
DWIDTH 21 0
BBX 19 24 0 0
BITMAP
0BFD000000
0BFD000000
FFFFFF4000
FFFFFF4000
FFFFFF4000
0BFD000000
0BFD000000
0BFD1BF900
0BFCBFFF80
0BFEFFFFE0
0BFFFFFFF0
0BFF807FF4
0BFF002FF8
0BFE001FF8
0BFD000FF8
0BFD000FF8
0BFD000FF8
0BFD000FF8
0BFD000FF8
0BFD000FF8
0BFD000FF8
0BFD000FF8
0BFD000FF8
0BFD000FF8
ENDCHAR
STARTCHAR Itilde
ENCODING 296
SWIDTH 331 0
DWIDTH 11 0
BBX 13 30 -1 0
BITMAP
0BE00B80
3FFE5F80
BFFFFF40
FD6FFE00
F406F400
00000000
00000000
00FF8000
00FF8000
00FF8000
00FF8000
00FF8000
00FF8000
00FF8000
00FF8000
00FF8000
00FF8000
00FF8000
00FF8000
00FF8000
00FF8000
00FF8000
00FF8000
00FF8000
00FF8000
00FF8000
00FF8000
00FF8000
00FF8000
00FF8000
ENDCHAR
STARTCHAR itilde
ENCODING 297
SWIDTH 305 0
DWIDTH 10 0
BBX 14 24 -2 0
BITMAP
06F403D0
1FFF5BC0
3FFFFF80
7E5FFF40
BC02F900
00000000
00000000
00BFD000
00BFD000
00BFD000
00BFD000
00BFD000
00BFD000
00BFD000
00BFD000
00BFD000
00BFD000
00BFD000
00BFD000
00BFD000
00BFD000
00BFD000
00BFD000
00BFD000
ENDCHAR
STARTCHAR Imacron
ENCODING 298
SWIDTH 331 0
DWIDTH 11 0
BBX 11 29 0 0
BITMAP
555554
FFFFF8
FFFFF8
FFFFF8
000000
000000
03FE00
03FE00
03FE00
03FE00
03FE00
03FE00
03FE00
03FE00
03FE00
03FE00
03FE00
03FE00
03FE00
03FE00
03FE00
03FE00
03FE00
03FE00
03FE00
03FE00
03FE00
03FE00
03FE00
ENDCHAR
STARTCHAR imacron
ENCODING 299
SWIDTH 305 0
DWIDTH 10 0
BBX 12 23 -1 0
BITMAP
155554
7FFFFD
7FFFFD
7FFFFD
000000
000000
02FF40
02FF40
02FF40
02FF40
02FF40
02FF40
02FF40
02FF40
02FF40
02FF40
02FF40
02FF40
02FF40
02FF40
02FF40
02FF40
02FF40
ENDCHAR
STARTCHAR Ibreve
ENCODING 300
SWIDTH 331 0
DWIDTH 11 0
BBX 13 30 -1 0
BITMAP
BC001F40
BE55BF00
3FFFFE00
1FFFF800
02BF9000
00000000
00000000
00FF8000
00FF8000
00FF8000
00FF8000
00FF8000
00FF8000
00FF8000
00FF8000
00FF8000
00FF8000
00FF8000
00FF8000
00FF8000
00FF8000
00FF8000
00FF8000
00FF8000
00FF8000
00FF8000
00FF8000
00FF8000
00FF8000
00FF8000
ENDCHAR
STARTCHAR ibreve
ENCODING 301
SWIDTH 305 0
DWIDTH 10 0
BBX 13 24 -2 0
BITMAP
7E000FC0
3F95BF80
2FFFFF40
0BFFFD00
01BFA000
00000000
00000000
00BFD000
00BFD000
00BFD000
00BFD000
00BFD000
00BFD000
00BFD000
00BFD000
00BFD000
00BFD000
00BFD000
00BFD000
00BFD000
00BFD000
00BFD000
00BFD000
00BFD000
ENDCHAR
STARTCHAR Iogonek
ENCODING 302
SWIDTH 331 0
DWIDTH 11 0
BBX 7 31 1 -8
BITMAP
0FF8
0FF8
0FF8
0FF8
0FF8
0FF8
0FF8
0FF8
0FF8
0FF8
0FF8
0FF8
0FF8
0FF8
0FF8
0FF8
0FF8
0FF8
0FF8
0FF8
0FF8
0FF8
0FF8
07E0
1FC0
2F40
7F00
7F40
3FFC
2FFC
07F8
ENDCHAR
STARTCHAR iogonek
ENCODING 303
SWIDTH 305 0
DWIDTH 10 0
BBX 8 32 0 -8
BITMAP
02F8
0BFD
0BFD
07FD
01A4
0000
0000
0BFD
0BFD
0BFD
0BFD
0BFD
0BFD
0BFD
0BFD
0BFD
0BFD
0BFD
0BFD
0BFD
0BFD
0BFD
0BFD
0BFD
07E0
1FC0
3F40
7F00
7F40
3FFC
2FFC
07F8
ENDCHAR
STARTCHAR Idotaccent
ENCODING 304
SWIDTH 331 0
DWIDTH 11 0
BBX 6 30 2 0
BITMAP
1A40
3FE0
7FE0
3FE0
1F80
0000
0000
3FE0
3FE0
3FE0
3FE0
3FE0
3FE0
3FE0
3FE0
3FE0
3FE0
3FE0
3FE0
3FE0
3FE0
3FE0
3FE0
3FE0
3FE0
3FE0
3FE0
3FE0
3FE0
3FE0
ENDCHAR
STARTCHAR dotlessi
ENCODING 305
SWIDTH 305 0
DWIDTH 10 0
BBX 6 17 2 0
BITMAP
BFD0
BFD0
BFD0
BFD0
BFD0
BFD0
BFD0
BFD0
BFD0
BFD0
BFD0
BFD0
BFD0
BFD0
BFD0
BFD0
BFD0
ENDCHAR
STARTCHAR IJ
ENCODING 306
SWIDTH 720 0
DWIDTH 23 0
BBX 18 30 3 -7
BITMAP
FF8000BFD0
FF8000BFD0
FF8000BFD0
FF8000BFD0
FF8000BFD0
FF8000BFD0
FF8000BFD0
FF8000BFD0
FF8000BFD0
FF8000BFD0
FF8000BFD0
FF8000BFD0
FF8000BFD0
FF8000BFD0
FF8000BFD0
FF8000BFD0
FF8000BFD0
FF8000BFD0
FF8000BFD0
FF8000BFD0
FF8000BFD0
FF8000BFD0
FF8000BFC0
000000FFC0
000000FFC0
000107FF80
0003FFFF40
0003FFFE00
0003FFF800
0002FF9000
ENDCHAR
STARTCHAR ij
ENCODING 307
SWIDTH 590 0
DWIDTH 19 0
BBX 15 32 2 -8
BITMAP
2F800BE0
BFD01FF4
BFD02FF8
7FD01FF4
1A400690
00000000
00000000
BFD01FF4
BFD01FF4
BFD01FF4
BFD01FF4
BFD01FF4
BFD01FF4
BFD01FF4
BFD01FF4
BFD01FF4
BFD01FF4
BFD01FF4
BFD01FF4
BFD01FF4
BFD01FF4
BFD01FF4
BFD01FF4
BFD01FF4
00001FF4
00001FF4
00001FF4
00003FF4
003FFFF0
003FFFE0
003FFF80
002FF900
ENDCHAR
STARTCHAR Jcircumflex
ENCODING 308
SWIDTH 331 0
DWIDTH 11 0
BBX 15 37 -3 -7
BITMAP
002FFD00
00BFFF40
01FFBFD0
07F81FF0
1FE002FC
00000000
00000000
000FF800
000FF800
000FF800
000FF800
000FF800
000FF800
000FF800
000FF800
000FF800
000FF800
000FF800
000FF800
000FF800
000FF800
000FF800
000FF800
000FF800
000FF800
000FF800
000FF800
000FF800
000FF800
000FF800
001FF800
002FF400
11BFF000
7FFFE000
7FFFD000
7FFF4000
6FE40000
ENDCHAR
STARTCHAR jcircumflex
ENCODING 309
SWIDTH 305 0
DWIDTH 10 0
BBX 14 32 -2 -8
BITMAP
01FFF000
03FFF800
0FFBFE00
2FD0BF80
BE401FD0
00000000
00000000
00BFD000
00BFD000
00BFD000
00BFD000
00BFD000
00BFD000
00BFD000
00BFD000
00BFD000
00BFD000
00BFD000
00BFD000
00BFD000
00BFD000
00BFD000
00BFD000
00BFD000
00BFD000
00BFD000
00BFD000
01FFC000
FFFFC000
FFFF4000
FFFE0000
BFE40000
ENDCHAR
STARTCHAR Kcommaaccent
ENCODING 310
SWIDTH 664 0
DWIDTH 21 0
BBX 18 30 3 -7
BITMAP
FF8000BFE0
FF8001FFC0
FF8007FF40
FF800FFD00
FF802FF800
FF80BFF000
FF81FFC000
FF83FF4000
FF8BFE0000
FFAFF80000
FFFFF40000
FFFFFC0000
FFFFFE0000
FFFBFF4000
FFD1FFC000
FF80FFE000
FF807FF400
FF802FF800
FF800FFD00
FF8007FF00
FF8002FF80
FF8001FFD0
FF8000BFF0
0000000000
0000000000
001FF00000
001FE00000
002FD00000
002F800000
003F000000
ENDCHAR
STARTCHAR kcommaaccent
ENCODING 311
SWIDTH 620 0
DWIDTH 20 0
BBX 18 31 2 -7
BITMAP
BFD0000000
BFD0000000
BFD0000000
BFD0000000
BFD0000000
BFD0000000
BFD0000000
BFD001FFC0
BFD007FF00
BFD01FFC00
BFD07FF400
BFD1FFD000
BFC3FF4000
BFCFFD0000
BFEFF80000
BFFFFD0000
BFFFFF0000
BFFAFF8000
BFE0BFE000
BFD03FF400
BFD01FFD00
BFD00BFF00
BFD002FF80
BFD000FFD0
0000000000
0000000000
000BF80000
000FF00000
001FE00000
001FC00000
002F400000
ENDCHAR
STARTCHAR kgreenlandic
ENCODING 312
SWIDTH 620 0
DWIDTH 20 0
BBX 18 17 2 0
BITMAP
BFD000FFC0
BFD003FF00
BFD00BFD00
BFD02FF400
BFD0BFD000
BFD2FF8000
BFD7FE0000
BFDFF80000
BFFFFC0000
BFFFFF0000
BFFFFF8000
BFF4BFD000
BFD03FF400
BFD01FFC00
BFD00BFE00
BFD002FF80
BFD000FFD0
ENDCHAR
STARTCHAR Lacute
ENCODING 313
SWIDTH 564 0
DWIDTH 18 0
BBX 14 30 3 0
BITMAP
00BFF000
01FF8000
03FE0000
0BF40000
2FD00000
00000000
00000000
FF800000
FF800000
FF800000
FF800000
FF800000
FF800000
FF800000
FF800000
FF800000
FF800000
FF800000
FF800000
FF800000
FF800000
FF800000
FF800000
FF800000
FF800000
FF800000
FFFFFFF0
FFFFFFF0
FFFFFFF0
FFFFFFF0
ENDCHAR
STARTCHAR lacute
ENCODING 314
SWIDTH 305 0
DWIDTH 10 0
BBX 10 30 2 0
BITMAP
00FFE0
02FF40
07FD00
1FE000
3F8000
000000
BFD000
BFD000
BFD000
BFD000
BFD000
BFD000
BFD000
BFD000
BFD000
BFD000
BFD000
BFD000
BFD000
BFD000
BFD000
BFD000
BFD000
BFD000
BFD000
BFD000
BFD000
BFD000
BFD000
BFD000
ENDCHAR
STARTCHAR Lcommaaccent
ENCODING 315
SWIDTH 564 0
DWIDTH 18 0
BBX 14 30 3 -7
BITMAP
FF800000
FF800000
FF800000
FF800000
FF800000
FF800000
FF800000
FF800000
FF800000
FF800000
FF800000
FF800000
FF800000
FF800000
FF800000
FF800000
FF800000
FF800000
FF800000
FFFFFFF0
FFFFFFF0
FFFFFFF0
FFFFFFF0
00000000
00000000
007FC000
00BF4000
00FF0000
00FD0000
01F80000
ENDCHAR
STARTCHAR lcommaaccent
ENCODING 316
SWIDTH 305 0
DWIDTH 10 0
BBX 7 31 1 -7
BITMAP
2FF4
2FF4
2FF4
2FF4
2FF4
2FF4
2FF4
2FF4
2FF4
2FF4
2FF4
2FF4
2FF4
2FF4
2FF4
2FF4
2FF4
2FF4
2FF4
2FF4
2FF4
2FF4
2FF4
2FF4
0000
0000
2FE0
2FD0
3F80
7F40
7E00
ENDCHAR
STARTCHAR Lcaron
ENCODING 317
SWIDTH 564 0
DWIDTH 18 0
BBX 14 23 3 0
BITMAP
FF802FE0
FF803FC0
FF807F80
FF807F00
FF80BD00
FF800000
FF800000
FF800000
FF800000
FF800000
FF800000
FF800000
FF800000
FF800000
FF800000
FF800000
FF800000
FF800000
FF800000
FFFFFFF0
FFFFFFF0
FFFFFFF0
FFFFFFF0
ENDCHAR
STARTCHAR lcaron
ENCODING 318
SWIDTH 305 0
DWIDTH 10 0
BBX 12 24 2 0
BITMAP
BFD1FF
BFD2FD
BFD2FC
BFD3F4
BFD7E0
BFD000
BFD000
BFD000
BFD000
BFD000
BFD000
BFD000
BFD000
BFD000
BFD000
BFD000
BFD000
BFD000
BFD000
BFD000
BFD000
BFD000
BFD000
BFD000
ENDCHAR
STARTCHAR Ldot
ENCODING 319
SWIDTH 564 0
DWIDTH 18 0
BBX 14 23 3 0
BITMAP
FF800000
FF800000
FF800000
FF800000
FF800000
FF800000
FF800000
FF800000
FF801A00
FF80BFC0
FF80FFD0
FF80BFC0
FF806F40
FF800000
FF800000
FF800000
FF800000
FF800000
FF800000
FFFFFFF0
FFFFFFF0
FFFFFFF0
FFFFFFF0
ENDCHAR
STARTCHAR ldot
ENCODING 320
SWIDTH 428 0
DWIDTH 14 0
BBX 13 24 2 0
BITMAP
BFD00000
BFD00000
BFD00000
BFD00000
BFD00000
BFD00000
BFD00000
BFD00000
BFD00000
BFD00000
BFD06900
BFD2FF00
BFD2FF40
BFD2FF40
BFD0BD00
BFD00000
BFD00000
BFD00000
BFD00000
BFD00000
BFD00000
BFD00000
BFD00000
BFD00000
ENDCHAR
STARTCHAR Lslash
ENCODING 321
SWIDTH 564 0
DWIDTH 18 0
BBX 17 23 0 0
BITMAP
03FE000000
03FE000000
03FE000000
03FE000000
03FE000000
03FE000000
03FE000000
03FE740000
03FFFC0000
03FFFE0000
03FFF80000
0BFF900000
7FFE000000
BFFE000000
3FFE000000
1BFE000000
03FE000000
03FE000000
03FE000000
03FFFFFFC0
03FFFFFFC0
03FFFFFFC0
03FFFFFFC0
ENDCHAR
STARTCHAR lslash
ENCODING 322
SWIDTH 330 0
DWIDTH 11 0
BBX 11 24 0 0
BITMAP
03FE00
03FE00
03FE00
03FE00
03FE00
03FE00
03FE00
03FE00
03FE00
03FE80
03FFE0
03FFF4
0BFFE0
7FFF40
BFFE00
3FFE00
2BFE00
03FE00
03FE00
03FE00
03FE00
03FE00
03FE00
03FE00
ENDCHAR
STARTCHAR Nacute
ENCODING 323
SWIDTH 812 0
DWIDTH 26 0
BBX 20 30 3 0
BITMAP
000007FF00
00001FF800
00003FE000
0000BF4000
0002FD0000
0000000000
0000000000
FFF40001FF
FFF80001FF
FFFD0001FF
FFFF0001FF
FFFF8001FF
FFFFD001FF
FF7FE001FF
FF3FF401FF
FF1FFC01FF
FF0BFD01FF
FF07FF01FF
FF42FF81FF
FF40FFD1FF
FF407FE0FF
FF403FF4FF
FF401FFCFF
FF400BFEFF
FF4007FFFF
FF4002FFFF
FF4000FFFF
FF40007FFF
FF40003FFF
FF40001FFF
ENDCHAR
STARTCHAR nacute
ENCODING 324
SWIDTH 657 0
DWIDTH 21 0
BBX 17 24 2 0
BITMAP
00002FF800
0000BFE000
0001FF4000
0007FD0000
000FE00000
0000000000
0000000000
BF41BF9000
BF8FFFF800
BFFFFFFE00
BFFFFFFF40
BFF807FF40
BFF001FF80
BFE001FF80
BFD000FF80
BFD000FF80
BFD000FF80
BFD000FF80
BFD000FF80
BFD000FF80
BFD000FF80
BFD000FF80
BFD000FF80
BFD000FF80
ENDCHAR
STARTCHAR Ncommaaccent
ENCODING 325
SWIDTH 812 0
DWIDTH 26 0
BBX 20 30 3 -7
BITMAP
FFF40001FF
FFF80001FF
FFFD0001FF
FFFF0001FF
FFFF8001FF
FFFFD001FF
FF7FE001FF
FF3FF401FF
FF1FFC01FF
FF0BFD01FF
FF07FF01FF
FF42FF81FF
FF40FFD1FF
FF407FE0FF
FF403FF4FF
FF401FFCFF
FF400BFEFF
FF4007FFFF
FF4002FFFF
FF4000FFFF
FF40007FFF
FF40003FFF
FF40001FFF
0000000000
0000000000
0002FE0000
0003FC0000
0003F80000
0007F00000
000BD00000
ENDCHAR
STARTCHAR ncommaaccent
ENCODING 326
SWIDTH 657 0
DWIDTH 21 0
BBX 17 24 2 -7
BITMAP
BF41BF9000
BF8FFFF800
BFFFFFFE00
BFFFFFFF40
BFF807FF40
BFF001FF80
BFE001FF80
BFD000FF80
BFD000FF80
BFD000FF80
BFD000FF80
BFD000FF80
BFD000FF80
BFD000FF80
BFD000FF80
BFD000FF80
BFD000FF80
0000000000
0000000000
000BF80000
000FF00000
001FE00000
001FC00000
002F400000
ENDCHAR
STARTCHAR Ncaron
ENCODING 327
SWIDTH 812 0
DWIDTH 26 0
BBX 20 30 3 0
BITMAP
01FE002FC0
007FD1FF40
001FFBFD00
000BFFF400
0002FFE000
0000000000
0000000000
FFF40001FF
FFF80001FF
FFFD0001FF
FFFF0001FF
FFFF8001FF
FFFFD001FF
FF7FE001FF
FF3FF401FF
FF1FFC01FF
FF0BFD01FF
FF07FF01FF
FF42FF81FF
FF40FFD1FF
FF407FE0FF
FF403FF4FF
FF401FFCFF
FF400BFEFF
FF4007FFFF
FF4002FFFF
FF4000FFFF
FF40007FFF
FF40003FFF
FF40001FFF
ENDCHAR
STARTCHAR ncaron
ENCODING 328
SWIDTH 657 0
DWIDTH 21 0
BBX 17 24 2 0
BITMAP
0BF401FE00
02FE0BF800
00BFBFE000
003FFF8000
001FFF0000
0000000000
0000000000
BF41BF9000
BF8FFFF800
BFFFFFFE00
BFFFFFFF40
BFF807FF40
BFF001FF80
BFE001FF80
BFD000FF80
BFD000FF80
BFD000FF80
BFD000FF80
BFD000FF80
BFD000FF80
BFD000FF80
BFD000FF80
BFD000FF80
BFD000FF80
ENDCHAR
STARTCHAR napostrophe
ENCODING 329
SWIDTH 778 0
DWIDTH 25 0
BBX 23 23 0 0
BITMAP
1FF000000000
2FF000000000
2FE000000000
3FD000000000
3FC000000000
7F8000000000
BF0BF41BF900
BE0BF5FFFF80
000BFBFFFFE0
000BFFFFFFF0
000BFF807FF4
000BFE002FF4
000BFD001FF8
000BFD001FF8
000BFD001FF8
000BFD001FF8
000BFD001FF8
000BFD001FF8
000BFD001FF8
000BFD001FF8
000BFD001FF8
000BFD001FF8
000BFD001FF8
ENDCHAR
STARTCHAR Eng
ENCODING 330
SWIDTH 812 0
DWIDTH 26 0
BBX 20 30 3 -7
BITMAP
FFF40001FF
FFFC0001FF
FFFE0001FF
FFFF4001FF
FFFFD001FF
FFFFF001FF
FF7FF801FF
FF2FFD01FF
FF0FFF01FF
FF07FF81FF
FF02FFD0FF
FF40BFF0FF
FF407FF8FF
FF401FFEFF
FF400BFFFF
FF4003FFFF
FF4001FFFF
FF4000BFFF
FF40003FFF
FF40001FFF
FF40000BFF
FF400003FF
FF400001FF
00000000FF
00000001FF
0000041BFE
00001FFFFD
00001FFFF8
00001FFFE0
00000BFE40
ENDCHAR
STARTCHAR eng
ENCODING 331
SWIDTH 657 0
DWIDTH 21 0
BBX 17 25 2 -8
BITMAP
BF41BF9000
BF8BFFF800
BFEFFFFE00
BFFFFFFF40
BFF807FF40
BFF001FF80
BFE001FF80
BFD000FF80
BFD000FF80
BFD000FF80
BFD000FF80
BFD000FF80
BFD000FF80
BFD000FF80
BFD000FF80
BFD000FF80
BFD000FF80
000000FF80
000000FF80
000001FF80
000002FF80
0000FFFF40
0000FFFF00
0000FFFD00
0000BFE000
ENDCHAR
STARTCHAR Omacron
ENCODING 332
SWIDTH 795 0
DWIDTH 25 0
BBX 22 29 2 0
BITMAP
000555550000
002FFFFF0000
002FFFFF0000
002FFFFF0000
000000000000
000000000000
0006BFE50000
007FFFFF9000
02FFFFFFF400
0BFFFFFFFD00
1FFF406FFF00
3FF80007FF40
7FF00002FFC0
BFE00000FFC0
FFD00000BFD0
FFC00000BFD0
FFC00000BFE0
FFC000007FE0
FFC00000BFE0
FFC00000BFD0
FFD00000BFD0
BFE00000FFC0
7FF00002FFC0
3FF80007FF40
1FFF506FFF00
0BFFFFFFFD00
02FFFFFFF400
007FFFFF8000
0006BFE50000
ENDCHAR
STARTCHAR omacron
ENCODING 333
SWIDTH 619 0
DWIDTH 20 0
BBX 18 23 1 0
BITMAP
0055555000
01FFFFF400
01FFFFF400
01FFFFF400
0000000000
0000000000
001BFE4000
01FFFFF400
0BFFFFFD00
1FFFFFFF00
2FF802FF80
3FF000FFC0
7FE000BFD0
7FD000BFD0
BFD000BFD0
BFD000BFD0
7FE000BFD0
3FF000FFC0
2FF802FF80
1FFFFFFF00
07FFFFFD00
01FFFFF400
001BFE4000
ENDCHAR
STARTCHAR Obreve
ENCODING 334
SWIDTH 795 0
DWIDTH 25 0
BBX 22 30 2 0
BITMAP
007D000FC000
003F95BF8000
002FFFFF0000
000BFFFD0000
0001BF900000
000000000000
000000000000
0006BFE50000
007FFFFF9000
02FFFFFFF400
0BFFFFFFFD00
1FFF406FFF00
3FF80007FF40
7FF00002FFC0
BFE00000FFC0
FFD00000BFD0
FFC00000BFD0
FFC00000BFE0
FFC000007FE0
FFC00000BFE0
FFC00000BFD0
FFD00000BFD0
BFE00000FFC0
7FF00002FFC0
3FF80007FF40
1FFF506FFF00
0BFFFFFFFD00
02FFFFFFF400
007FFFFF8000
0006BFE50000
ENDCHAR
STARTCHAR obreve
ENCODING 335
SWIDTH 619 0
DWIDTH 20 0
BBX 18 24 1 0
BITMAP
07E000FC00
03F95BF800
02FFFFF400
00BFFFD000
001BFA0000
0000000000
0000000000
001BFE4000
01FFFFF400
0BFFFFFD00
1FFFFFFF00
2FF802FF80
3FF000FFC0
7FE000BFD0
7FD000BFD0
BFD000BFD0
BFD000BFD0
7FE000BFD0
3FF000FFC0
2FF802FF80
1FFFFFFF00
07FFFFFD00
01FFFFF400
001BFE4000
ENDCHAR
STARTCHAR Ohungarumlaut
ENCODING 336
SWIDTH 795 0
DWIDTH 25 0
BBX 22 30 2 0
BITMAP
0000BFCBFD00
0001FF5FF400
0003FD2FD000
000BE0BF4000
001F81F80000
000000000000
000000000000
0006BFE50000
007FFFFF9000
02FFFFFFF400
0BFFFFFFFD00
1FFF406FFF00
3FF80007FF40
7FF00002FFC0
BFE00000FFC0
FFD00000BFD0
FFC00000BFD0
FFC00000BFE0
FFC000007FE0
FFC00000BFE0
FFC00000BFD0
FFD00000BFD0
BFE00000FFC0
7FF00002FFC0
3FF80007FF40
1FFF506FFF00
0BFFFFFFFD00
02FFFFFFF400
007FFFFF8000
0006BFE50000
ENDCHAR
STARTCHAR ohungarumlaut
ENCODING 337
SWIDTH 619 0
DWIDTH 20 0
BBX 18 24 1 0
BITMAP
000FFCBFC0
002FF1FF40
007FC3FD00
00FE0BE000
02F81F8000
0000000000
0000000000
001BFE4000
01FFFFF400
0BFFFFFD00
1FFFFFFF00
2FF802FF80
3FF000FFC0
7FE000BFD0
7FD000BFD0
BFD000BFD0
BFD000BFD0
7FE000BFD0
3FF000FFC0
2FF802FF80
1FFFFFFF00
07FFFFFD00
01FFFFF400
001BFE4000
ENDCHAR
STARTCHAR OE
ENCODING 338
SWIDTH 973 0
DWIDTH 31 0
BBX 28 23 2 0
BITMAP
0006FFFFFFFFFD
00BFFFFFFFFFFD
03FFFFFFFFFFFD
0FFFFFFFFFFFFD
2FFE406FF40000
3FF8001FF40000
7FF0001FF40000
BFD0001FF40000
FFC0001FF40000
FFC0001FFFFFF8
FFC0001FFFFFF8
FFC0001FFFFFF8
FFC0001FFFFFF8
FFC0001FF40000
FFC0001FF40000
BFD0001FF40000
7FF0001FF40000
3FF8001FF40000
2FFE416FF40000
0BFFFFFFFFFFFD
03FFFFFFFFFFFD
00BFFFFFFFFFFD
0006FFFFFFFFFD
ENDCHAR
STARTCHAR oe
ENCODING 339
SWIDTH 978 0
DWIDTH 31 0
BBX 29 17 1 0
BITMAP
001BFE401BFE4000
01FFFFE1FFFFF400
0BFFFFFFFFFFFD00
1FFFFFFFFE5BFF00
2FF802FFF401FF40
3FF000FFE000FF80
7FE000BFE000BF80
7FD000BFFFFFFFC0
BFD000BFFFFFFFC0
BFD000BFFFFFFFC0
7FE000BFD5555500
3FF000FFE0000000
2FF802FFF4000100
1FFFFFFFFFAABF00
07FFFFFFFFFFFF00
01FFFFF4BFFFFF00
001BFE401AFFA400
ENDCHAR
STARTCHAR Racute
ENCODING 340
SWIDTH 660 0
DWIDTH 21 0
BBX 18 30 3 0
BITMAP
0001FFD000
0003FF4000
000BF80000
002FE00000
007F400000
0000000000
0000000000
FFFFE90000
FFFFFF9000
FFFFFFF400
FFFFFFFC00
FF806FFD00
FF800BFE00
FF8007FE00
FF8007FE00
FF800BFD00
FF806FFC00
FFFFFFF400
FFFFFFD000
FFFFFE0000
FFFFFF0000
FF81FF8000
FF80BFD000
FF807FE000
FF802FF400
FF800FFD00
FF8007FE00
FF8002FF40
FF8001FFC0
FF8000BFE0
ENDCHAR
STARTCHAR racute
ENCODING 341
SWIDTH 454 0
DWIDTH 15 0
BBX 12 24 2 0
BITMAP
0007FF
001FF8
003FE0
00BF40
02FD00
000000
000000
BF41BE
BF47FE
BF9FFE
BFFFFE
BFFF95
BFF800
BFE000
BFD000
BFD000
BFD000
BFD000
BFD000
BFD000
BFD000
BFD000
BFD000
BFD000
ENDCHAR
STARTCHAR Rcommaaccent
ENCODING 342
SWIDTH 660 0
DWIDTH 21 0
BBX 18 30 3 -7
BITMAP
FFFFE90000
FFFFFF9000
FFFFFFF400
FFFFFFFC00
FF806FFD00
FF800BFE00
FF8007FE00
FF8007FE00
FF800BFD00
FF806FFC00
FFFFFFF400
FFFFFFD000
FFFFFE0000
FFFFFF0000
FF81FF8000
FF80BFD000
FF807FE000
FF802FF400
FF800FFD00
FF8007FE00
FF8002FF40
FF8001FFC0
FF8000BFE0
0000000000
0000000000
000BF80000
000FF00000
001FE00000
001FC00000
002F400000
ENDCHAR
STARTCHAR rcommaaccent
ENCODING 343
SWIDTH 454 0
DWIDTH 15 0
BBX 13 24 1 -7
BITMAP
2FD06F80
2FD1FF80
2FE7FF80
2FFFFF80
2FFFE540
2FFE0000
2FF80000
2FF40000
2FF40000
2FF40000
2FF40000
2FF40000
2FF40000
2FF40000
2FF40000
2FF40000
2FF40000
00000000
00000000
2FE00000
2FD00000
3F800000
7F400000
7E000000
ENDCHAR
STARTCHAR Rcaron
ENCODING 344
SWIDTH 660 0
DWIDTH 21 0
BBX 18 30 3 0
BITMAP
3F800BF000
1FF47FD000
07FEFF4000
01FFFD0000
00BFF80000
0000000000
0000000000
FFFFE90000
FFFFFF9000
FFFFFFF400
FFFFFFFC00
FF806FFD00
FF800BFE00
FF8007FE00
FF8007FE00
FF800BFD00
FF806FFC00
FFFFFFF400
FFFFFFD000
FFFFFE0000
FFFFFF0000
FF81FF8000
FF80BFD000
FF807FE000
FF802FF400
FF800FFD00
FF8007FE00
FF8002FF40
FF8001FFC0
FF8000BFE0
ENDCHAR
STARTCHAR rcaron
ENCODING 345
SWIDTH 454 0
DWIDTH 15 0
BBX 14 24 1 0
BITMAP
BF401FE0
2FE0BF80
0BFAFE00
02FFFC00
00FFF400
00000000
00000000
2FD06F80
2FD1FF80
2FE7FF80
2FFFFF80
2FFFE540
2FFE0000
2FF80000
2FF40000
2FF40000
2FF40000
2FF40000
2FF40000
2FF40000
2FF40000
2FF40000
2FF40000
2FF40000
ENDCHAR
STARTCHAR Sacute
ENCODING 346
SWIDTH 550 0
DWIDTH 18 0
BBX 16 30 1 0
BITMAP
00007FF4
0000FFD0
0002FE00
000BF800
001FD000
00000000
00000000
006FFE40
02FFFFF8
0FFFFFFC
2FFFFFF4
3FF806F0
7FE00010
7FE00000
3FF00000
3FFD0000
1FFF9000
0BFFF900
02FFFF80
006FFFE0
0006FFF8
00006FFC
00000BFD
000007FD
50000BFD
BE501FFC
BFFFFFF8
BFFFFFE0
7FFFFF80
06BFE900
ENDCHAR
STARTCHAR sacute
ENCODING 347
SWIDTH 497 0
DWIDTH 16 0
BBX 14 24 1 0
BITMAP
0001FFD0
0003FF00
000BF800
002FE000
00BF4000
00000000
00000000
01BFE900
1FFFFFD0
3FFFFFC0
7FFABF80
BFD00640
7FE00000
7FFE4000
2FFFF800
07FFFF40
006FFFC0
0006FFE0
00007FE0
64003FE0
BFAAFFD0
BFFFFFC0
BFFFFE00
1AFFA400
ENDCHAR
STARTCHAR Scircumflex
ENCODING 348
SWIDTH 550 0
DWIDTH 18 0
BBX 16 30 1 0
BITMAP
002FFD00
00BFFF40
01FFBFD0
07F81FF0
1FE002FC
00000000
00000000
006FFE40
02FFFFF8
0FFFFFFC
2FFFFFF4
3FF806F0
7FE00010
7FE00000
3FF00000
3FFD0000
1FFF9000
0BFFF900
02FFFF80
006FFFE0
0006FFF8
00006FFC
00000BFD
000007FD
50000BFD
BE501FFC
BFFFFFF8
BFFFFFE0
7FFFFF80
06BFE900
ENDCHAR
STARTCHAR scircumflex
ENCODING 349
SWIDTH 497 0
DWIDTH 16 0
BBX 14 24 1 0
BITMAP
00FFF400
02FFFD00
0BFEFF00
1FE07FC0
7F401BF0
00000000
00000000
01BFE900
1FFFFFD0
3FFFFFC0
7FFABF80
BFD00640
7FE00000
7FFE4000
2FFFF800
07FFFF40
006FFFC0
0006FFE0
00007FE0
64003FE0
BFAAFFD0
BFFFFFC0
BFFFFE00
1AFFA400
ENDCHAR
STARTCHAR Scedilla
ENCODING 350
SWIDTH 550 0
DWIDTH 18 0
BBX 16 31 1 -8
BITMAP
006FFE40
02FFFFF8
0FFFFFFC
2FFFFFF4
3FF806F0
7FE00010
7FE00000
3FF00000
3FFD0000
1FFF9000
0BFFF900
02FFFF80
006FFFE0
0006FFF8
00006FFC
00000BFD
000007FD
50000BFD
BE501FFC
BFFFFFF8
BFFFFFE0
7FFFFF80
06BFE900
001FC000
002F8000
002FE000
0007F800
0002FC00
00EBFC00
00FFF800
00BF9000
ENDCHAR
STARTCHAR scedilla
ENCODING 351
SWIDTH 497 0
DWIDTH 16 0
BBX 14 25 1 -8
BITMAP
01BFE900
1FFFFFD0
3FFFFFC0
7FFABF80
BFD00640
7FE00000
7FFE4000
2FFFF800
07FFFF40
006FFFC0
0006FFE0
00007FE0
64003FE0
BFAAFFD0
BFFFFFC0
BFFFFE00
1AFFA400
003F0000
00BE0000
00BF8000
000FF000
000BF400
02AFF000
03FFE000
02FE4000
ENDCHAR
STARTCHAR Scaron
ENCODING 352
SWIDTH 550 0
DWIDTH 18 0
BBX 16 30 1 0
BITMAP
1FE002FC
07F81FF4
01FFBFD0
00BFFF40
002FFD00
00000000
00000000
006FFE40
02FFFFF8
0FFFFFFC
2FFFFFF4
3FF806F0
7FE00010
7FE00000
3FF00000
3FFD0000
1FFF9000
0BFFF900
02FFFF80
006FFFE0
0006FFF8
00006FFC
00000BFD
000007FD
50000BFD
BE501FFC
BFFFFFF8
BFFFFFE0
7FFFFF80
06BFE900
ENDCHAR
STARTCHAR scaron
ENCODING 353
SWIDTH 497 0
DWIDTH 16 0
BBX 14 24 1 0
BITMAP
7F800BF0
1FF07FD0
07FEFF40
02FFFD00
00BFF800
00000000
00000000
01BFE900
1FFFFFD0
3FFFFFC0
7FFABF80
BFD00640
7FE00000
7FFE4000
2FFFF800
07FFFF40
006FFFC0
0006FFE0
00007FE0
64003FE0
BFAAFFD0
BFFFFFC0
BFFFFE00
1AFFA400
ENDCHAR
STARTCHAR Tcedilla
ENCODING 354
SWIDTH 579 0
DWIDTH 19 0
BBX 18 31 0 -8
BITMAP
7FFFFFFFF0
7FFFFFFFF0
7FFFFFFFF0
7FFFFFFFF0
0007FE0000
0003FE0000
0003FE0000
0003FE0000
0003FE0000
0003FE0000
0003FE0000
0003FE0000
0003FE0000
0003FE0000
0003FE0000
0003FE0000
0003FE0000
0003FE0000
0003FE0000
0003FE0000
0003FE0000
0003FE0000
0003FE0000
0001F80000
0003F80000
0002FE0000
00007F8000
00003FC000
000ABFC000
000FFF4000
000BF90000
ENDCHAR
STARTCHAR tcedilla
ENCODING 355
SWIDTH 434 0
DWIDTH 14 0
BBX 13 29 0 -8
BITMAP
006A0000
00BE0000
00FE0000
01FE0000
0BFFFF80
3FFFFF80
7FFFFF80
2BFFAA40
03FE0000
03FE0000
03FE0000
03FE0000
03FE0000
03FE0000
03FE0000
03FE0000
03FF4040
02FFFFC0
01FFFFC0
00BFFFC0
001BFA40
000BD000
001FC000
001FE400
0002FD00
0001FE00
006BFD00
00BFFC00
007FE000
ENDCHAR
STARTCHAR Tcaron
ENCODING 356
SWIDTH 579 0
DWIDTH 19 0
BBX 18 30 0 0
BITMAP
07F400BF00
01FE07FC00
007FEFF400
002FFFD000
000BFF4000
0000000000
0000000000
7FFFFFFFF0
7FFFFFFFF0
7FFFFFFFF0
7FFFFFFFF0
0007FE0000
0003FE0000
0003FE0000
0003FE0000
0003FE0000
0003FE0000
0003FE0000
0003FE0000
0003FE0000
0003FE0000
0003FE0000
0003FE0000
0003FE0000
0003FE0000
0003FE0000
0003FE0000
0003FE0000
0003FE0000
0003FE0000
ENDCHAR
STARTCHAR tcaron
ENCODING 357
SWIDTH 434 0
DWIDTH 14 0
BBX 15 24 0 0
BITMAP
000007FC
00000BF4
00000BF0
006A0FD0
00BE1F80
00FE0000
01FE0000
0BFFFF80
3FFFFF80
7FFFFF80
2BFFAA40
03FE0000
03FE0000
03FE0000
03FE0000
03FE0000
03FE0000
03FE0000
03FE0000
03FF4040
02FFFFC0
01FFFFC0
00BFFFC0
001BFA40
ENDCHAR
STARTCHAR Tbar
ENCODING 358
SWIDTH 579 0
DWIDTH 19 0
BBX 18 23 0 0
BITMAP
7FFFFFFFF0
7FFFFFFFF0
7FFFFFFFF0
7FFFFFFFF0
0007FE0000
0003FE0000
0003FE0000
0003FE0000
0003FE0000
0003FE0000
03FFFFFE00
03FFFFFE00
03FFFFFE00
03FFFFFE00
0003FE0000
0003FE0000
0003FE0000
0003FE0000
0003FE0000
0003FE0000
0003FE0000
0003FE0000
0003FE0000
ENDCHAR
STARTCHAR tbar
ENCODING 359
SWIDTH 434 0
DWIDTH 14 0
BBX 13 21 0 0
BITMAP
006A0000
00BE0000
00FE0000
01FE0000
0BFFFF80
3FFFFF80
7FFFFF80
2BFFAA40
03FE0000
03FE0000
3FFFFF00
3FFFFF00
3FFFFF00
03FE0000
03FE0000
03FE0000
03FF4040
02FFFFC0
01FFFFC0
00BFFFC0
001BFA40
ENDCHAR
STARTCHAR Utilde
ENCODING 360
SWIDTH 755 0
DWIDTH 24 0
BBX 20 30 2 0
BITMAP
001BE00F80
007FFE6F40
00BFFFFF00
00F97FFD00
01F007E400
0000000000
0000000000
7FE00007FD
7FE00007FD
7FE00007FD
7FE00007FD
7FE00007FD
7FE00007FD
7FE00007FD
7FE00007FD
7FE00007FD
7FE00007FD
7FE00007FD
7FE00007FD
7FE00007FD
7FE00007FD
7FE00007FD
7FE0000BFD
3FF0000BFD
3FF4001FFC
1FFE41BFF8
0FFFFFFFF0
03FFFFFFD0
00BFFFFE00
001AFFA400
ENDCHAR
STARTCHAR utilde
ENCODING 361
SWIDTH 657 0
DWIDTH 21 0
BBX 17 24 2 0
BITMAP
00BE40BC00
02FFE5F800
07FFFFF400
0BD6FFE000
0F406F8000
0000000000
0000000000
BFD001FF80
BFD001FF80
BFD001FF80
BFD001FF80
BFD001FF80
BFD001FF80
BFD001FF80
BFD001FF80
BFD001FF80
BFD001FF80
BFD002FF80
BFD003FF80
7FF40BFF80
7FFFFFFF80
2FFFFFFF80
0BFFFCBF80
01BF907F80
ENDCHAR
STARTCHAR Umacron
ENCODING 362
SWIDTH 755 0
DWIDTH 24 0
BBX 20 29 2 0
BITMAP
0015555400
007FFFFD00
007FFFFD00
007FFFFD00
0000000000
0000000000
7FE00007FD
7FE00007FD
7FE00007FD
7FE00007FD
7FE00007FD
7FE00007FD
7FE00007FD
7FE00007FD
7FE00007FD
7FE00007FD
7FE00007FD
7FE00007FD
7FE00007FD
7FE00007FD
7FE00007FD
7FE0000BFD
3FF0000BFD
3FF4001FFC
1FFE41BFF8
0FFFFFFFF0
03FFFFFFD0
00BFFFFE00
001AFFA400
ENDCHAR
STARTCHAR umacron
ENCODING 363
SWIDTH 657 0
DWIDTH 21 0
BBX 17 23 2 0
BITMAP
0155555000
03FFFFE000
03FFFFE000
03FFFFE000
0000000000
0000000000
BFD001FF80
BFD001FF80
BFD001FF80
BFD001FF80
BFD001FF80
BFD001FF80
BFD001FF80
BFD001FF80
BFD001FF80
BFD001FF80
BFD002FF80
BFD003FF80
7FF40BFF80
7FFFFFFF80
2FFFFFFF80
0BFFFCBF80
01BF907F80
ENDCHAR
STARTCHAR Ubreve
ENCODING 364
SWIDTH 755 0
DWIDTH 24 0
BBX 20 30 2 0
BITMAP
00F8002F00
00BE55BF00
007FFFFD00
001FFFF400
0006FF9000
0000000000
0000000000
7FE00007FD
7FE00007FD
7FE00007FD
7FE00007FD
7FE00007FD
7FE00007FD
7FE00007FD
7FE00007FD
7FE00007FD
7FE00007FD
7FE00007FD
7FE00007FD
7FE00007FD
7FE00007FD
7FE00007FD
7FE0000BFD
3FF0000BFD
3FF4001FFC
1FFE41BFF8
0FFFFFFFF0
03FFFFFFD0
00BFFFFE00
001AFFA400
ENDCHAR
STARTCHAR ubreve
ENCODING 365
SWIDTH 657 0
DWIDTH 21 0
BBX 17 24 2 0
BITMAP
0BC001F800
07F55BF400
03FFFFE000
01FFFF8000
001BF90000
0000000000
0000000000
BFD001FF80
BFD001FF80
BFD001FF80
BFD001FF80
BFD001FF80
BFD001FF80
BFD001FF80
BFD001FF80
BFD001FF80
BFD001FF80
BFD002FF80
BFD003FF80
7FF40BFF80
7FFFFFFF80
2FFFFFFF80
0BFFFCBF80
01BF907F80
ENDCHAR
STARTCHAR Uring
ENCODING 366
SWIDTH 755 0
DWIDTH 24 0
BBX 20 32 2 0
BITMAP
0001BE4000
0007FFD000
000BD7F000
000B81F000
000BD7F000
0007FFD000
0001BE4000
0000000000
0000000000
7FE00007FD
7FE00007FD
7FE00007FD
7FE00007FD
7FE00007FD
7FE00007FD
7FE00007FD
7FE00007FD
7FE00007FD
7FE00007FD
7FE00007FD
7FE00007FD
7FE00007FD
7FE00007FD
7FE00007FD
7FE0000BFD
3FF0000BFD
3FF4001FFC
1FFE41BFF8
0FFFFFFFF0
03FFFFFFD0
00BFFFFE00
001AFFA400
ENDCHAR
STARTCHAR uring
ENCODING 367
SWIDTH 657 0
DWIDTH 21 0
BBX 17 26 2 0
BITMAP
000BE40000
003FFE0000
007E6F4000
007C0F4000
007D6F4000
003FFE0000
000BF40000
0000000000
0000000000
BFD001FF80
BFD001FF80
BFD001FF80
BFD001FF80
BFD001FF80
BFD001FF80
BFD001FF80
BFD001FF80
BFD001FF80
BFD001FF80
BFD002FF80
BFD003FF80
7FF40BFF80
7FFFFFFF80
2FFFFFFF80
0BFFFCBF80
01BF907F80
ENDCHAR
STARTCHAR Uhungarumlaut
ENCODING 368
SWIDTH 755 0
DWIDTH 24 0
BBX 20 30 2 0
BITMAP
0001FF4FF8
0003FE2FE0
000BF87F80
001FD0FD00
003F42F400
0000000000
0000000000
7FE00007FD
7FE00007FD
7FE00007FD
7FE00007FD
7FE00007FD
7FE00007FD
7FE00007FD
7FE00007FD
7FE00007FD
7FE00007FD
7FE00007FD
7FE00007FD
7FE00007FD
7FE00007FD
7FE00007FD
7FE0000BFD
3FF0000BFD
3FF4001FFC
1FFE41BFF8
0FFFFFFFF0
03FFFFFFD0
00BFFFFE00
001AFFA400
ENDCHAR
STARTCHAR uhungarumlaut
ENCODING 369
SWIDTH 657 0
DWIDTH 21 0
BBX 18 24 2 0
BITMAP
000FFCBFD0
002FF5FF40
007FC3FD00
00BE0BE000
02F81F8000
0000000000
0000000000
BFD001FF80
BFD001FF80
BFD001FF80
BFD001FF80
BFD001FF80
BFD001FF80
BFD001FF80
BFD001FF80
BFD001FF80
BFD001FF80
BFD002FF80
BFD003FF80
7FF40BFF80
7FFFFFFF80
2FFFFFFF80
0BFFFCBF80
01BF907F80
ENDCHAR
STARTCHAR Uogonek
ENCODING 370
SWIDTH 755 0
DWIDTH 24 0
BBX 20 31 2 -8
BITMAP
7FE00007FD
7FE00007FD
7FE00007FD
7FE00007FD
7FE00007FD
7FE00007FD
7FE00007FD
7FE00007FD
7FE00007FD
7FE00007FD
7FE00007FD
7FE00007FD
7FE00007FD
7FE00007FD
7FE00007FD
7FE0000BFD
3FF0000BFD
3FF4001FFC
1FFE41BFF8
0FFFFFFFF0
03FFFFFFD0
00BFFFFE00
001AFFA400
00002F4000
0000BE0000
0001FC0000
0002F80000
0002F80000
0002FFE000
0000FFE000
00002FD000
ENDCHAR
STARTCHAR uogonek
ENCODING 371
SWIDTH 657 0
DWIDTH 21 0
BBX 17 25 2 -8
BITMAP
BFD001FF80
BFD001FF80
BFD001FF80
BFD001FF80
BFD001FF80
BFD001FF80
BFD001FF80
BFD001FF80
BFD001FF80
BFD001FF80
BFD002FF80
BFD003FF80
7FF40BFF80
7FFFFFFF80
2FFFFFFF80
0BFFFCBF80
01BF907F80
000000BD00
000002F400
000007E000
00000FD000
00000FE000
00000BFF40
000007FF40
000001BE40
ENDCHAR
STARTCHAR Wcircumflex
ENCODING 372
SWIDTH 966 0
DWIDTH 31 0
BBX 31 30 0 0
BITMAP
000000BFF8000000
000001FFFD000000
000007FEFF400000
00001FF47FD00000
00007F800BF00000
0000000000000000
0000000000000000
FFC0003FF0000FF8
BFC0007FF0001FF8
7FD0007FF4001FF4
3FE000BFF8002FF0
3FE000FFFC003FE0
2FF001FFFD003FE0
1FF401FEFD007FD0
0FF802FDFE00BFC0
0FF803FCFF00BF80
0BFC07F8BF40FF80
07FD0BF8BF41FF40
03FD0BF47F81FF00
03FE0FF03FC2FE00
02FF1FE02FD3FE00
01FF2FD02FD3FD00
00FF6FD01FE7FC00
00BF7FC00FEBF800
00BFBF800BFBF800
007FFF400BFFF400
003FFF4007FFF000
002FFF0003FFE000
002FFE0002FFE000
001FFD0002FFD000
ENDCHAR
STARTCHAR wcircumflex
ENCODING 373
SWIDTH 855 0
DWIDTH 27 0
BBX 27 24 0 0
BITMAP
000007FF800000
00001FFFE00000
00003FEFF40000
0000FF47FD0000
0003F800BF4000
00000000000000
00000000000000
BFD003FF400BFC
7FD007FF800FF8
3FE00BFFC01FF4
2FF00BFFD02FF0
1FF40FDFD03FE0
0FF81FCBE03FD0
0BF82FCBF07FC0
07FC3F87F4BFC0
07FD3F43F4FF80
03FD7F43F8FF40
02FE7F02FDFF00
01FEBE01FDFE00
00FFBD00FEFD00
00BFFD00FFFC00
007FFC00BFF800
003FF8007FF400
003FF8007FF400
ENDCHAR
STARTCHAR Ycircumflex
ENCODING 374
SWIDTH 624 0
DWIDTH 20 0
BBX 20 30 0 0
BITMAP
0003FFD000
000FFFF000
002FEBF800
00BF82FE00
02FD007F80
0000000000
0000000000
BFE0000BFE
7FF0000FFD
2FF8002FF8
0FFC003FF0
0BFE00BFE0
03FF00FFC0
02FF82FF40
00FFC3FF00
007FEBFD00
003FFFF800
001FFFF400
000FFFE000
0007FFD000
0002FF8000
0001FF4000
0001FF4000
0001FF4000
0001FF4000
0001FF4000
0001FF4000
0001FF4000
0001FF4000
0001FF4000
ENDCHAR
STARTCHAR ycircumflex
ENCODING 375
SWIDTH 568 0
DWIDTH 18 0
BBX 18 32 0 -8
BITMAP
000FFF4000
002FFFC000
00BFEFF000
02FE0BF800
07F401FE00
0000000000
0000000000
BFD0003FF0
7FE0007FE0
3FF000BFD0
2FF400FFC0
1FF801FF40
0BFC02FF00
07FD03FE00
03FE07FD00
02FF0BFC00
00FF4FF800
00BF9FF400
007FEFF000
003FFFD000
001FFFC000
000FFF8000
000BFF4000
0007FF0000
0007FE0000
000BFD0000
001FF80000
007FF40000
3FFFE00000
3FFFC00000
3FFF000000
2FE4000000
ENDCHAR
STARTCHAR Ydieresis
ENCODING 376
SWIDTH 624 0
DWIDTH 20 0
BBX 20 29 0 0
BITMAP
002F42F800
007FC3FD00
007FC3FD00
002F41F800
0000000000
0000000000
BFE0000BFE
7FF0000FFD
2FF8002FF8
0FFC003FF0
0BFE00BFE0
03FF00FFC0
02FF82FF40
00FFC3FF00
007FEBFD00
003FFFF800
001FFFF400
000FFFE000
0007FFD000
0002FF8000
0001FF4000
0001FF4000
0001FF4000
0001FF4000
0001FF4000
0001FF4000
0001FF4000
0001FF4000
0001FF4000
ENDCHAR
STARTCHAR Zacute
ENCODING 377
SWIDTH 579 0
DWIDTH 19 0
BBX 18 30 0 0
BITMAP
00001FFD00
00003FF400
0000BF8000
0002FE0000
0007F40000
0000000000
0000000000
3FFFFFFFD0
3FFFFFFFD0
3FFFFFFFD0
3FFFFFFFD0
000002FF80
000007FE00
00000FFD00
00002FF400
00007FE000
0000FFC000
0002FF4000
0007FE0000
001FFC0000
002FF40000
00BFE00000
01FFC00000
03FF400000
0BFE000000
1FFC000000
3FFFFFFFE0
7FFFFFFFE0
7FFFFFFFE0
7FFFFFFFE0
ENDCHAR
STARTCHAR zacute
ENCODING 378
SWIDTH 487 0
DWIDTH 16 0
BBX 14 24 1 0
BITMAP
0001FFD0
0003FF40
000BF800
002FE000
007F4000
00000000
00000000
BFFFFFD0
BFFFFFD0
BFFFFFD0
6AAAFFC0
0002FF40
0007FE00
001FF800
003FF000
00BFD000
02FF4000
07FE0000
0FFC0000
2FF40000
BFFAAA90
FFFFFFE0
FFFFFFE0
FFFFFFE0
ENDCHAR
STARTCHAR Zdotaccent
ENCODING 379
SWIDTH 579 0
DWIDTH 19 0
BBX 18 30 0 0
BITMAP
0001A40000
0003FE0000
0007FE0000
0007FE0000
0001F80000
0000000000
0000000000
3FFFFFFFD0
3FFFFFFFD0
3FFFFFFFD0
3FFFFFFFD0
000002FF80
000007FE00
00000FFD00
00002FF400
00007FE000
0000FFC000
0002FF4000
0007FE0000
001FFC0000
002FF40000
00BFE00000
01FFC00000
03FF400000
0BFE000000
1FFC000000
3FFFFFFFE0
7FFFFFFFE0
7FFFFFFFE0
7FFFFFFFE0
ENDCHAR
STARTCHAR zdotaccent
ENCODING 380
SWIDTH 487 0
DWIDTH 16 0
BBX 14 25 1 0
BITMAP
001A4000
00BFC000
00BFD000
00BFC000
002F4000
00000000
00000000
00000000
BFFFFFD0
BFFFFFD0
BFFFFFD0
6AAAFFC0
0002FF40
0007FE00
001FF800
003FF000
00BFD000
02FF4000
07FE0000
0FFC0000
2FF40000
BFFAAA90
FFFFFFE0
FFFFFFE0
FFFFFFE0
ENDCHAR
STARTCHAR Zcaron
ENCODING 381
SWIDTH 579 0
DWIDTH 19 0
BBX 18 30 0 0
BITMAP
07F800BF00
01FF47FD00
007FEFF400
001FFFD000
000BFF8000
0000000000
0000000000
3FFFFFFFD0
3FFFFFFFD0
3FFFFFFFD0
3FFFFFFFD0
000002FF80
000007FE00
00000FFD00
00002FF400
00007FE000
0000FFC000
0002FF4000
0007FE0000
001FFC0000
002FF40000
00BFE00000
01FFC00000
03FF400000
0BFE000000
1FFC000000
3FFFFFFFE0
7FFFFFFFE0
7FFFFFFFE0
7FFFFFFFE0
ENDCHAR
STARTCHAR zcaron
ENCODING 382
SWIDTH 487 0
DWIDTH 16 0
BBX 14 24 1 0
BITMAP
BF401FE0
2FE0BF80
0BFAFE00
02FFFC00
00FFF400
00000000
00000000
BFFFFFD0
BFFFFFD0
BFFFFFD0
6AAAFFC0
0002FF40
0007FE00
001FF800
003FF000
00BFD000
02FF4000
07FE0000
0FFC0000
2FF40000
BFFAAA90
FFFFFFE0
FFFFFFE0
FFFFFFE0
ENDCHAR
STARTCHAR longs
ENCODING 383
SWIDTH 382 0
DWIDTH 12 0
BBX 11 24 2 0
BITMAP
02BFE4
1FFFF8
3FFFF4
7FFEF0
7FE000
7FD000
BFD000
BFD000
BFD000
BFD000
BFD000
BFD000
BFD000
BFD000
BFD000
BFD000
BFD000
BFD000
BFD000
BFD000
BFD000
BFD000
BFD000
BFD000
ENDCHAR
STARTCHAR florin
ENCODING 402
SWIDTH 570 0
DWIDTH 18 0
BBX 14 31 3 -8
BITMAP
0006FF90
002FFFD0
007FFFC0
00FFFBC0
00FFC000
00FF8000
00FF8000
06FFFF40
2FFFFF40
2FFFFF40
1AFFEA00
00FF8000
00FF8000
00FF8000
00FF8000
00FF8000
00FF8000
00FF8000
00FF8000
00FF8000
00FF8000
00FF8000
00FF8000
00FF8000
00FF8000
01FF8000
02FF8000
FFFF4000
FFFF0000
FFFD0000
BFE00000
ENDCHAR
STARTCHAR Ohorn
ENCODING 416
SWIDTH 825 0
DWIDTH 26 0
BBX 26 24 2 0
BITMAP
0000000000BFD0
0006BFE500BFC0
007FFFFF90FF80
02FFFFFFF5FF40
0BFFFFFFFFFE00
1FFF406FFFF800
3FF80007FFD000
7FF00002FF8000
BFE00000FFC000
FFD00000BFD000
FFC00000BFD000
FFC00000BFE000
FFC000007FE000
FFC00000BFE000
FFC00000BFD000
FFD00000BFD000
BFE00000FFC000
7FF00002FFC000
3FF80007FF4000
1FFF506FFF0000
0BFFFFFFFD0000
02FFFFFFF40000
007FFFFF800000
0006BFE5000000
ENDCHAR
STARTCHAR ohorn
ENCODING 417
SWIDTH 679 0
DWIDTH 22 0
BBX 22 19 1 0
BITMAP
000000002FF0
000000003FF0
001BFE407FE0
01FFFFF5FFC0
0BFFFFFFFF40
1FFFFFFFF900
2FF802FF9000
3FF000FFC000
7FE000BFC000
7FD000BFD000
BFD000BFD000
BFD000BFD000
7FE000BFD000
3FF000FFC000
2FF802FF8000
1FFFFFFF0000
07FFFFFD0000
01FFFFF40000
001BFE400000
ENDCHAR
STARTCHAR Uhorn
ENCODING 431
SWIDTH 884 0
DWIDTH 28 0
BBX 27 24 2 0
BITMAP
00000000001FF8
7FE00007FD1FF4
7FE00007FD2FF0
7FE00007FEBFD0
7FE00007FFFF80
7FE00007FFFE00
7FE00007FF9000
7FE00007FD0000
7FE00007FD0000
7FE00007FD0000
7FE00007FD0000
7FE00007FD0000
7FE00007FD0000
7FE00007FD0000
7FE00007FD0000
7FE00007FD0000
7FE00007FD0000
3FF0000BFD0000
3FF4001FFC0000
1FFE41BFF80000
0FFFFFFFF00000
03FFFFFFD00000
00BFFFFE000000
001AFFA4000000
ENDCHAR
STARTCHAR uhorn
ENCODING 432
SWIDTH 759 0
DWIDTH 24 0
BBX 24 20 2 0
BITMAP
0000000007FE
0000000007FE
0000000007FD
BFD001FF8FFC
BFD001FFAFF4
BFD001FFFFE0
BFD001FFFF40
BFD001FFE400
BFD001FF8000
BFD001FF8000
BFD001FF8000
BFD001FF8000
BFD001FF8000
BFD002FF8000
BFD003FF8000
7FF40BFF8000
7FFFFFFF8000
2FFFFFFF8000
0BFFFCBF8000
01BF907F8000
ENDCHAR
STARTCHAR uni01F0
ENCODING 496
SWIDTH 305 0
DWIDTH 10 0
BBX 14 32 -2 -8
BITMAP
BE401FD0
2FD0BF80
0FFBFE00
03FFF800
01FFF000
00000000
00000000
00BFD000
00BFD000
00BFD000
00BFD000
00BFD000
00BFD000
00BFD000
00BFD000
00BFD000
00BFD000
00BFD000
00BFD000
00BFD000
00BFD000
00BFD000
00BFD000
00BFD000
00BFD000
00BFD000
00BFD000
01FFC000
FFFFC000
FFFF4000
FFFE0000
BFE40000
ENDCHAR
STARTCHAR Aringacute
ENCODING 506
SWIDTH 689 0
DWIDTH 22 0
BBX 22 30 0 0
BITMAP
000002FF8000
00000BFD0000
00002FD00000
000001000000
00007FD00000
0001FFF40000
0002F0BC0000
0003E0BC0000
0002E0B80000
0001FFF40000
0001FFF80000
0003FFFC0000
0007FEFD0000
000BF9FE0000
000FF4FF0000
001FF0BF4000
002FE07FC000
007FD03FD000
00BF802FE000
00FF401FF000
01FF000FF400
02FFFFFFF800
03FFFFFFFD00
07FFFFFFFE00
0FFFFFFFFF00
1FF80002FF40
2FF40001FF80
3FF00000FFC0
7FE00000BFD0
BFD000007FF0
ENDCHAR
STARTCHAR aringacute
ENCODING 507
SWIDTH 604 0
DWIDTH 19 0
BBX 16 30 1 0
BITMAP
00007FF0
0000FF80
0003FD00
00055000
00004000
000BFD00
002FFF40
003E1F80
003D0B80
003E1F80
002FFF40
000BFD00
00000000
006FFE40
0BFFFFF0
0BFFFFFC
03FAAFFD
014007FE
000003FF
000002FF
006BFFFF
0BFFFFFF
3FFFEBFF
7FF402FF
BFD003FF
BFD00BFF
7FFABFFF
3FFFFEFF
1FFFF4FF
06FF80BF
ENDCHAR
STARTCHAR AEacute
ENCODING 508
SWIDTH 952 0
DWIDTH 30 0
BBX 29 30 0 0
BITMAP
0000000003FF4000
000000000BFD0000
000000002FF40000
000000007F800000
00000001FE000000
0000000000000000
0000000000000000
00000FFFFFFFFF80
00001FFFFFFFFF80
00003FFFFFFFFF80
00007FFFFFFFFF80
0000BF87FE000000
0001FF43FE000000
0002FF03FE000000
0003FD03FE000000
000BFC03FE000000
000FF803FFFFFF00
001FF003FFFFFF00
003FE003FFFFFF00
007FD003FFFFFF00
00BFFFFFFE000000
01FFFFFFFE000000
02FFFFFFFE000000
03FFFFFFFE000000
0BFC0003FE000000
0FF80003FE000000
1FF40003FFFFFF80
3FF00003FFFFFF80
7FE00003FFFFFF80
BFC00003FFFFFF80
ENDCHAR
STARTCHAR aeacute
ENCODING 509
SWIDTH 916 0
DWIDTH 29 0
BBX 27 24 1 0
BITMAP
00000007FF4000
0000000FFD0000
0000002FE00000
000000BF800000
000001FD000000
00000000000000
00000000000000
006FFA00AFE400
0BFFFFDBFFFF40
0BFFFFFFFFFFD0
03FAAFFFF9BFF0
01400BFF801FF4
000003FF000BF8
000003FF000BFC
016BFFFFFFFFFC
0BFFFFFFFFFFFC
3FFFEBFFFFFFFC
7FF403FE555550
BFD007FF000000
BFD00BFF800010
7FFABFFFFAABF0
3FFFFF6FFFFFF0
1FFFFD07FFFFF0
02FF90006FFA40
ENDCHAR
STARTCHAR Oslashacute
ENCODING 510
SWIDTH 795 0
DWIDTH 25 0
BBX 22 31 2 -1
BITMAP
000002FF8000
000007FE0000
00001FF40000
00003FD00000
0000FE000000
000000000000
000000002400
0006BFE97E00
007FFFFFFD00
02FFFFFFF800
0BFFFFFFFD00
1FFF406FFF00
3FF8002FFF40
7FF000BFFFC0
BFE001FEFFC0
FFD003F8BFD0
FFC00BF0BFD0
FFC01FD0BFE0
FFC03F807FE0
FFC0BF00BFE0
FFC1FD00BFD0
FFD3F800BFD0
BFEBF000FFC0
7FFFD002FFC0
3FFF8007FF40
1FFF506FFF00
0BFFFFFFFD00
07FFFFFFF400
0BFFFFFF8000
1FD6BFE50000
024000000000
ENDCHAR
STARTCHAR oslashacute
ENCODING 511
SWIDTH 619 0
DWIDTH 20 0
BBX 18 25 1 -1
BITMAP
00002FF800
00007FE000
0000FF8000
0003FD0000
000BE00000
0000000000
0000001000
001BFE7D00
01FFFFFE00
0BFFFFFD00
1FFFFFFF00
2FF80BFF80
3FF01FFFC0
7FE07FFFD0
7FD0FEBFD0
BFD2F8BFD0
7FD7F0BFD0
7FEFD0BFD0
3FFF80FFC0
2FFE02FF80
1FFFFFFF00
07FFFFFD00
0BFFFFF400
0BDBFE4000
0140000000
ENDCHAR
STARTCHAR Scommaaccent
ENCODING 536
SWIDTH 550 0
DWIDTH 18 0
BBX 16 30 1 -7
BITMAP
006FFE40
02FFFFF8
0FFFFFFC
2FFFFFF4
3FF806F0
7FE00010
7FE00000
3FF00000
3FFD0000
1FFF9000
0BFFF900
02FFFF80
006FFFE0
0006FFF8
00006FFC
00000BFD
000007FD
50000BFD
BE501FFC
BFFFFFF8
BFFFFFE0
7FFFFF80
06BFE900
00000000
00000000
002FE000
003FD000
003F8000
007F0000
00BD0000
ENDCHAR
STARTCHAR scommaaccent
ENCODING 537
SWIDTH 497 0
DWIDTH 16 0
BBX 14 24 1 -7
BITMAP
01BFE900
1FFFFFD0
3FFFFFC0
7FFABF80
BFD00640
7FE00000
7FFE4000
2FFFF800
07FFFF40
006FFFC0
0006FFE0
00007FE0
64003FE0
BFAAFFD0
BFFFFFC0
BFFFFE00
1AFFA400
00000000
00000000
00BFC000
00BF4000
00FF0000
00FD0000
01F80000
ENDCHAR
STARTCHAR Tcommaaccent
ENCODING 538
SWIDTH 579 0
DWIDTH 19 0
BBX 18 30 0 -7
BITMAP
7FFFFFFFF0
7FFFFFFFF0
7FFFFFFFF0
7FFFFFFFF0
0007FE0000
0003FE0000
0003FE0000
0003FE0000
0003FE0000
0003FE0000
0003FE0000
0003FE0000
0003FE0000
0003FE0000
0003FE0000
0003FE0000
0003FE0000
0003FE0000
0003FE0000
0003FE0000
0003FE0000
0003FE0000
0003FE0000
0000000000
0000000000
0003FD0000
0007FC0000
0007F40000
000BE00000
000FD00000
ENDCHAR
STARTCHAR tcommaaccent
ENCODING 539
SWIDTH 434 0
DWIDTH 14 0
BBX 13 28 0 -7
BITMAP
006A0000
00BE0000
00FE0000
01FE0000
0BFFFF80
3FFFFF80
7FFFFF80
2BFFAA40
03FE0000
03FE0000
03FE0000
03FE0000
03FE0000
03FE0000
03FE0000
03FE0000
03FF4040
02FFFFC0
01FFFFC0
00BFFFC0
001BFA40
00000000
00000000
001FF000
002FD000
002FC000
003F4000
007E0000
ENDCHAR
STARTCHAR dotlessj
ENCODING 567
SWIDTH 305 0
DWIDTH 10 0
BBX 10 25 -2 -8
BITMAP
00BFD0
00BFD0
00BFD0
00BFD0
00BFD0
00BFD0
00BFD0
00BFD0
00BFD0
00BFD0
00BFD0
00BFD0
00BFD0
00BFD0
00BFD0
00BFD0
00BFD0
00BFD0
00BFD0
00BFD0
01FFC0
FFFFC0
FFFF40
FFFE00
BFE400
ENDCHAR
STARTCHAR uni02BC
ENCODING 700
SWIDTH 216 0
DWIDTH 7 0
BBX 7 8 0 15
BITMAP
0FF4
1FF4
1FF0
2FE0
3FD0
3FC0
7F40
BF00
ENDCHAR
STARTCHAR circumflex
ENCODING 710
SWIDTH 606 0
DWIDTH 19 0
BBX 14 5 3 19
BITMAP
01FFE000
07FFF800
0FFBFD00
3FD1FF40
FE002FD0
ENDCHAR
STARTCHAR caron
ENCODING 711
SWIDTH 606 0
DWIDTH 19 0
BBX 14 5 3 19
BITMAP
FE002FD0
3FD0BF40
0FFBFE00
07FFF800
01FFE000
ENDCHAR
STARTCHAR macron
ENCODING 713
SWIDTH 606 0
DWIDTH 19 0
BBX 11 4 4 19
BITMAP
555554
BFFFFC
BFFFFC
BFFFFC
ENDCHAR
STARTCHAR breve
ENCODING 728
SWIDTH 606 0
DWIDTH 19 0
BBX 13 5 3 19
BITMAP
7D000F80
3F95BF40
2FFFFF00
0BFFFD00
01BF9000
ENDCHAR
STARTCHAR dotaccent
ENCODING 729
SWIDTH 305 0
DWIDTH 10 0
BBX 6 5 2 20
BITMAP
1A40
7FD0
BFD0
BFD0
2F80
ENDCHAR
STARTCHAR ring
ENCODING 730
SWIDTH 577 0
DWIDTH 18 0
BBX 8 7 5 19
BITMAP
0BE4
3FFD
BD6F
B81F
BD6F
3FFD
0BE4
ENDCHAR
STARTCHAR ogonek
ENCODING 731
SWIDTH 206 0
DWIDTH 7 0
BBX 7 8 0 -8
BITMAP
0BD0
2F40
7E00
BE00
BE00
BFF8
7FF8
1BF4
ENDCHAR
STARTCHAR tilde
ENCODING 732
SWIDTH 606 0
DWIDTH 19 0
BBX 13 5 3 19
BITMAP
07E407C0
2FFE5FC0
7FFFFF80
BD6FFF00
B802F800
ENDCHAR
STARTCHAR hungarumlaut
ENCODING 733
SWIDTH 587 0
DWIDTH 19 0
BBX 15 5 2 19
BITMAP
02FF2FF4
07FD7FD0
0FF4FF40
2F82FD00
7E07E000
ENDCHAR
STARTCHAR uni02F3
ENCODING 755
SWIDTH 333 0
DWIDTH 11 0
BBX 9 7 1 -9
BITMAP
0BE400
3FFE00
7D6F00
B81F40
7D6F00
3FFE00
0BE400
ENDCHAR
STARTCHAR uni0300
ENCODING 768
SWIDTH 0 0
DWIDTH 0 0
BBX 10 5 -16 19
BITMAP
7FF000
1FF800
07FE00
00BF40
001FD0
ENDCHAR
STARTCHAR uni0301
ENCODING 769
SWIDTH 0 0
DWIDTH 0 0
BBX 9 5 -13 19
BITMAP
01FFC0
07FE00
0FF800
2FD000
BF4000
ENDCHAR
STARTCHAR uni0303
ENCODING 771
SWIDTH 0 0
DWIDTH 0 0
BBX 14 5 -17 19
BITMAP
06F403D0
1FFF5BD0
3FFFFFC0
7E5FFF40
7C01F900
ENDCHAR
STARTCHAR hook
ENCODING 777
SWIDTH 0 0
DWIDTH 0 0
BBX 8 8 -13 19
BITMAP
7FE0
BFFC
ABFD
01FD
02FD
0BFC
0FE0
0FC0
ENDCHAR
STARTCHAR uni030F
ENCODING 783
SWIDTH 0 0
DWIDTH 0 0
BBX 14 5 -18 19
BITMAP
FFCBFC00
3FD2FE00
0FF0BF40
02F82FC0
00BD0BD0
ENDCHAR
STARTCHAR dotbelow
ENCODING 803
SWIDTH 0 0
DWIDTH 0 0
BBX 6 5 -13 -7
BITMAP
2F80
7FD0
BFE0
7FD0
1A40
ENDCHAR
STARTCHAR tonos
ENCODING 900
SWIDTH 577 0
DWIDTH 18 0
BBX 6 6 7 19
BITMAP
1FF0
2FE0
3FC0
3F80
7F00
BD00
ENDCHAR
STARTCHAR dieresistonos
ENCODING 901
SWIDTH 577 0
DWIDTH 18 0
BBX 13 7 3 20
BITMAP
001FE000
002FC000
003F8000
BD3F7F00
FF7D7F40
FF007F40
7D002E00
ENDCHAR
STARTCHAR Alphatonos
ENCODING 902
SWIDTH 689 0
DWIDTH 22 0
BBX 23 24 -1 0
BITMAP
2FE000000000
3FD03FFC0000
3F807FFE0000
7F40BFFF0000
BE00FFFF4000
FD02FEBF8000
0003FD7FC000
0007FC3FD000
000BFC2FE000
000FF81FF000
001FF40FF400
002FF00BF800
003FE007FC00
007FD003FD00
00BFFFFFFE00
00FFFFFFFF00
01FFFFFFFF40
02FFFFFFFF80
03FE0000BFC0
07FD00007FD0
0BFD00003FF0
0FFC00003FF4
1FF800002FF8
2FF400001FFC
ENDCHAR
STARTCHAR anoteleia
ENCODING 903
SWIDTH 285 0
DWIDTH 9 0
BBX 6 6 2 9
BITMAP
0400
7F80
FFC0
FFD0
FFC0
6F40
ENDCHAR
STARTCHAR Epsilontonos
ENCODING 904
SWIDTH 629 0
DWIDTH 20 0
BBX 21 24 -2 0
BITMAP
1FF000000000
2FE3FFFFFF40
2FC3FFFFFF40
3F83FFFFFF40
7F03FFFFFF40
BE03FF000000
0003FF000000
0003FF000000
0003FF000000
0003FF000000
0003FFFFFE00
0003FFFFFE00
0003FFFFFE00
0003FFFFFE00
0003FF000000
0003FF000000
0003FF000000
0003FF000000
0003FF000000
0003FF000000
0003FFFFFF40
0003FFFFFF40
0003FFFFFF40
0003FFFFFF40
ENDCHAR
STARTCHAR Etatonos
ENCODING 905
SWIDTH 834 0
DWIDTH 27 0
BBX 26 24 -2 0
BITMAP
1FF00000000000
2FE3FF00003FE0
2FC3FF00003FE0
3F83FF00003FE0
7F03FF00003FE0
BE03FF00003FE0
0003FF00003FE0
0003FF00003FE0
0003FF00003FE0
0003FF00003FE0
0003FFFFFFFFE0
0003FFFFFFFFE0
0003FFFFFFFFE0
0003FFFFFFFFE0
0003FF00003FE0
0003FF00003FE0
0003FF00003FE0
0003FF00003FE0
0003FF00003FE0
0003FF00003FE0
0003FF00003FE0
0003FF00003FE0
0003FF00003FE0
0003FF00003FE0
ENDCHAR
STARTCHAR Iotatonos
ENCODING 906
SWIDTH 512 0
DWIDTH 16 0
BBX 14 24 -2 0
BITMAP
1FF00000
2FE07FE0
2FC07FE0
3F807FE0
7F007FE0
BE007FE0
00007FE0
00007FE0
00007FE0
00007FE0
00007FE0
00007FE0
00007FE0
00007FE0
00007FE0
00007FE0
00007FE0
00007FE0
00007FE0
00007FE0
00007FE0
00007FE0
00007FE0
00007FE0
ENDCHAR
STARTCHAR Omicrontonos
ENCODING 908
SWIDTH 835 0
DWIDTH 27 0
BBX 26 24 -1 0
BITMAP
2FE00000000000
3FD006BFE90000
3F806FFFFFD000
7F41FFFFFFF800
BE07FFFFFFFD00
FD1FFF906FFF40
002FFD0003FF80
003FF40001FFC0
007FF00000BFD0
00BFE00000BFE0
00BFD000007FE0
00BFD000007FE0
00FFD000007FF0
00BFD000007FE0
00BFD000007FE0
00BFE00000BFE0
007FF00000BFD0
003FF40001FFC0
002FFD0003FF80
001FFF906FFF40
0007FFFFFFFD00
0001FFFFFFF800
00006FFFFF9000
000006BFE90000
ENDCHAR
STARTCHAR Upsilontonos
ENCODING 910
SWIDTH 764 0
DWIDTH 24 0
BBX 27 24 -2 0
BITMAP
2FE00000000000
3FD7FF00003FF4
3F82FF4000BFE0
7F41FFC000FFC0
BE00BFD002FF80
FD003FF003FF00
00002FF40BFD00
00000FFC0FFC00
00000BFD2FF400
000003FF3FF000
000001FFFFD000
000000FFFF8000
0000007FFF4000
0000002FFE0000
0000001FFC0000
0000000FFC0000
0000000FFC0000
0000000FFC0000
0000000FFC0000
0000000FFC0000
0000000FFC0000
0000000FFC0000
0000000FFC0000
0000000FFC0000
ENDCHAR
STARTCHAR Omegatonos
ENCODING 911
SWIDTH 786 0
DWIDTH 25 0
BBX 27 24 -1 0
BITMAP
2FE00000000000
3FD006BFE90000
3F807FFFFFD000
7F42FFFFFFF800
BE0BFFFFFFFE00
FD2FFF505FFF40
003FF80003FFC0
007FF00000FFD0
00BFE00000BFE0
00BFD000007FE0
00FFC000007FF0
00FFC000003FE0
00BFC000007FE0
00BFD000007FD0
007FD000007FD0
003FE00000BF80
001FF00000FF40
000BF80002FE00
0002FE000BF800
0000BF803FE000
02FFFFD07FFFF8
02FFFFD07FFFF8
02FFFFD07FFFF8
02FFFFD07FFFF8
ENDCHAR
STARTCHAR iotadieresistonos
ENCODING 912
SWIDTH 407 0
DWIDTH 13 0
BBX 14 27 -1 0
BITMAP
001FE000
001FD000
002F8000
7E3F6F40
BF7D7F80
BF007F80
7E002F40
00000000
00000000
00000000
02FF4000
02FF4000
02FF4000
02FF4000
02FF4000
02FF4000
02FF4000
02FF4000
02FF4000
02FF4000
02FF4000
01FF4000
01FF8000
01FFFBD0
00FFFFD0
007FFFD0
000BFE40
ENDCHAR
STARTCHAR Alpha
ENCODING 913
SWIDTH 689 0
DWIDTH 22 0
BBX 22 23 0 0
BITMAP
0000FFF00000
0001FFF80000
0002FFFC0000
0003FFFD0000
000BFAFE0000
000FF5FF0000
001FF0FF4000
002FF0BF8000
003FE07FC000
007FD03FD000
00BFC02FE000
00FF801FF000
01FF400FF400
02FFFFFFF800
03FFFFFFFC00
07FFFFFFFD00
0BFFFFFFFE00
0FF80002FF00
1FF40001FF40
2FF40000FFC0
3FF00000FFD0
7FE00000BFE0
BFD000007FF0
ENDCHAR
STARTCHAR Beta
ENCODING 914
SWIDTH 671 0
DWIDTH 22 0
BBX 17 23 3 0
BITMAP
FFFFFA4000
FFFFFFF400
FFFFFFFD00
FFFFFFFE00
FF801BFF00
FF8003FF40
FF8002FF00
FF8003FF00
FF801BFE00
FFFFFFF800
FFFFFFD000
FFFFFFF400
FFFFFFFE00
FF8007FF40
FF8002FF80
FF8001FF80
FF8001FF80
FF8002FF80
FF801BFF40
FFFFFFFF00
FFFFFFFD00
FFFFFFF400
FFFFFE4000
ENDCHAR
STARTCHAR Gamma
ENCODING 915
SWIDTH 561 0
DWIDTH 18 0
BBX 15 23 3 0
BITMAP
FFFFFFF4
FFFFFFF4
FFFFFFF4
FFFFFFF4
FF800000
FF800000
FF800000
FF800000
FF800000
FF800000
FF800000
FF800000
FF800000
FF800000
FF800000
FF800000
FF800000
FF800000
FF800000
FF800000
FF800000
FF800000
FF800000
ENDCHAR
STARTCHAR uni0394
ENCODING 916
SWIDTH 658 0
DWIDTH 21 0
BBX 19 23 1 0
BITMAP
0007FF4000
000BFF8000
000FFFC000
001FFFD000
002FEFE000
003FDFF000
007FCBF400
00BF8BF800
00FF47FC00
01FF03FE00
02FE02FF00
03FD01FF40
07FC00FF80
0BF800BFC0
0FF4007FD0
1FF0003FE0
3FE0002FF0
7FD0001FF4
BFC0000FF8
FFFFFFFFFC
FFFFFFFFFC
FFFFFFFFFC
FFFFFFFFFC
ENDCHAR
STARTCHAR Epsilon
ENCODING 917
SWIDTH 560 0
DWIDTH 18 0
BBX 13 23 3 0
BITMAP
FFFFFFC0
FFFFFFC0
FFFFFFC0
FFFFFFC0
FF800000
FF800000
FF800000
FF800000
FF800000
FFFFFF40
FFFFFF40
FFFFFF40
FFFFFF40
FF800000
FF800000
FF800000
FF800000
FF800000
FF800000
FFFFFFC0
FFFFFFC0
FFFFFFC0
FFFFFFC0
ENDCHAR
STARTCHAR Zeta
ENCODING 918
SWIDTH 579 0
DWIDTH 19 0
BBX 18 23 0 0
BITMAP
3FFFFFFFD0
3FFFFFFFD0
3FFFFFFFD0
3FFFFFFFD0
000002FF80
000007FE00
00000FFD00
00002FF400
00007FE000
0000FFC000
0002FF4000
0007FE0000
001FFC0000
002FF40000
00BFE00000
01FFC00000
03FF400000
0BFE000000
1FFC000000
3FFFFFFFE0
7FFFFFFFE0
7FFFFFFFE0
7FFFFFFFE0
ENDCHAR
STARTCHAR Eta
ENCODING 919
SWIDTH 765 0
DWIDTH 24 0
BBX 19 23 3 0
BITMAP
FF80001FF8
FF80001FF8
FF80001FF8
FF80001FF8
FF80001FF8
FF80001FF8
FF80001FF8
FF80001FF8
FF80001FF8
FFFFFFFFF8
FFFFFFFFF8
FFFFFFFFF8
FFFFFFFFF8
FF80001FF8
FF80001FF8
FF80001FF8
FF80001FF8
FF80001FF8
FF80001FF8
FF80001FF8
FF80001FF8
FF80001FF8
FF80001FF8
ENDCHAR
STARTCHAR Theta
ENCODING 920
SWIDTH 795 0
DWIDTH 25 0
BBX 22 23 2 0
BITMAP
0006BFE50000
007FFFFF9000
02FFFFFFF400
0BFFFFFFFD00
1FFF406FFF00
3FF80007FF40
7FF00002FFC0
BFE00000FFC0
FFD00000BFD0
FFC7FFF8BFD0
FFC7FFF87FE0
FFC7FFF87FE0
FFC7FFF87FE0
FFC00000BFD0
FFD00000BFD0
BFE00000FFC0
7FF00002FFC0
3FF80007FF40
1FFF506FFF00
0BFFFFFFFD00
02FFFFFFF400
007FFFFF8000
0006BFE50000
ENDCHAR
STARTCHAR Iota
ENCODING 921
SWIDTH 331 0
DWIDTH 11 0
BBX 5 23 3 0
BITMAP
FF80
FF80
FF80
FF80
FF80
FF80
FF80
FF80
FF80
FF80
FF80
FF80
FF80
FF80
FF80
FF80
FF80
FF80
FF80
FF80
FF80
FF80
FF80
ENDCHAR
STARTCHAR Kappa
ENCODING 922
SWIDTH 664 0
DWIDTH 21 0
BBX 18 23 3 0
BITMAP
FF8000BFE0
FF8001FFC0
FF8007FF40
FF800FFD00
FF802FF800
FF80BFF000
FF81FFC000
FF83FF4000
FF8BFE0000
FFAFF80000
FFFFF40000
FFFFFC0000
FFFFFE0000
FFFBFF4000
FFD1FFC000
FF80FFE000
FF807FF400
FF802FF800
FF800FFD00
FF8007FF00
FF8002FF80
FF8001FFD0
FF8000BFF0
ENDCHAR
STARTCHAR Lambda
ENCODING 923
SWIDTH 649 0
DWIDTH 21 0
BBX 21 23 0 0
BITMAP
0001FFD00000
0002FFE00000
0003FFF00000
0007FFF40000
000BFBF80000
000FF7FC0000
001FF3FD0000
002FE2FE0000
003FD2FF0000
007FC1FF4000
00BF80FF8000
00FF40BFC000
01FF407FD000
02FF003FE000
03FE002FF000
07FD001FF400
0BFC000FF800
0FF8000BFC00
1FF40007FD00
2FF00007FE00
3FE00003FF00
7FD00002FF40
FFC00001FF80
ENDCHAR
STARTCHAR Mu
ENCODING 924
SWIDTH 942 0
DWIDTH 30 0
BBX 25 23 3 0
BITMAP
FFF800001FFF40
FFFC00002FFF40
FFFD00003FFF40
FFFE00007FFF40
FFFF0000BFFF40
FFBF0000FEFF40
FF7F4001FDFF40
FF7F8002FCFF40
FF3FC003F8FF40
FF2FD007F5FF40
FF1FE00BF1FF40
FF4FF00FE1FF40
FF4BF41FD1FF40
FF47F82FC1FF40
FF43FC3F81FF40
FF42FD7F41FF40
FF41FEBF01FF40
FF40FFFE01FF40
FF40BFFD01FF40
FF40BFFC01FF40
FF407FF801FF40
FF403FF401FF40
FF402FF001FF40
ENDCHAR
STARTCHAR Nu
ENCODING 925
SWIDTH 812 0
DWIDTH 26 0
BBX 20 23 3 0
BITMAP
FFF40001FF
FFF80001FF
FFFD0001FF
FFFF0001FF
FFFF8001FF
FFFFD001FF
FF7FE001FF
FF3FF401FF
FF1FFC01FF
FF0BFD01FF
FF07FF01FF
FF42FF81FF
FF40FFD1FF
FF407FE0FF
FF403FF4FF
FF401FFCFF
FF400BFEFF
FF4007FFFF
FF4002FFFF
FF4000FFFF
FF40007FFF
FF40003FFF
FF40001FFF
ENDCHAR
STARTCHAR Xi
ENCODING 926
SWIDTH 570 0
DWIDTH 18 0
BBX 16 23 1 0
BITMAP
3FFFFFFD
3FFFFFFD
3FFFFFFD
3FFFFFFD
00000000
00000000
00000000
00000000
00000000
0BFFFFF0
0BFFFFF0
0BFFFFF0
0BFFFFF0
00000000
00000000
00000000
00000000
00000000
00000000
BFFFFFFF
BFFFFFFF
BFFFFFFF
BFFFFFFF
ENDCHAR
STARTCHAR Omicron
ENCODING 927
SWIDTH 795 0
DWIDTH 25 0
BBX 22 23 2 0
BITMAP
0006BFE50000
007FFFFF9000
02FFFFFFF400
0BFFFFFFFD00
1FFF406FFF00
3FF80007FF40
7FF00002FFC0
BFE00000FFC0
FFD00000BFD0
FFC00000BFD0
FFC00000BFE0
FFC000007FE0
FFC00000BFE0
FFC00000BFD0
FFD00000BFD0
BFE00000FFC0
7FF00002FFC0
3FF80007FF40
1FFF506FFF00
0BFFFFFFFD00
02FFFFFFF400
007FFFFF8000
0006BFE50000
ENDCHAR
STARTCHAR Pi
ENCODING 928
SWIDTH 745 0
DWIDTH 24 0
BBX 18 23 3 0
BITMAP
FFFFFFFFF0
FFFFFFFFF0
FFFFFFFFF0
FFFFFFFFF0
FF80003FF0
FF80003FF0
FF80003FF0
FF80003FF0
FF80003FF0
FF80003FF0
FF80003FF0
FF80003FF0
FF80003FF0
FF80003FF0
FF80003FF0
FF80003FF0
FF80003FF0
FF80003FF0
FF80003FF0
FF80003FF0
FF80003FF0
FF80003FF0
FF80003FF0
ENDCHAR
STARTCHAR Rho
ENCODING 929
SWIDTH 627 0
DWIDTH 20 0
BBX 16 23 3 0
BITMAP
FFFFE900
FFFFFF90
FFFFFFF4
FFFFFFF8
FF802FFD
FF800BFD
FF8007FE
FF8007FE
FF8007FE
FF800BFD
FF806FFC
FFFFFFF8
FFFFFFE0
FFFFFF80
FFFFE400
FF800000
FF800000
FF800000
FF800000
FF800000
FF800000
FF800000
FF800000
ENDCHAR
STARTCHAR Sigma
ENCODING 931
SWIDTH 592 0
DWIDTH 19 0
BBX 17 23 1 0
BITMAP
BFFFFFFF00
BFFFFFFF00
BFFFFFFF00
BFFFFFFF00
2FF4000000
0BFD000000
02FF400000
00BFD00000
002FF40000
000BFD0000
0002FF4000
0003FF4000
000BFD0000
002FF40000
00BFD00000
01FF800000
07FE000000
1FF8000000
7FE0000000
BFFFFFFFC0
BFFFFFFFC0
BFFFFFFFC0
BFFFFFFFC0
ENDCHAR
STARTCHAR Tau
ENCODING 932
SWIDTH 579 0
DWIDTH 19 0
BBX 18 23 0 0
BITMAP
7FFFFFFFF0
7FFFFFFFF0
7FFFFFFFF0
7FFFFFFFF0
0007FE0000
0003FE0000
0003FE0000
0003FE0000
0003FE0000
0003FE0000
0003FE0000
0003FE0000
0003FE0000
0003FE0000
0003FE0000
0003FE0000
0003FE0000
0003FE0000
0003FE0000
0003FE0000
0003FE0000
0003FE0000
0003FE0000
ENDCHAR
STARTCHAR Upsilon
ENCODING 933
SWIDTH 624 0
DWIDTH 20 0
BBX 20 23 0 0
BITMAP
BFE0000BFE
7FF0000FFD
2FF8002FF8
0FFC003FF0
0BFE00BFE0
03FF00FFC0
02FF82FF40
00FFC3FF00
007FEBFD00
003FFFF800
001FFFF400
000FFFE000
0007FFD000
0002FF8000
0001FF4000
0001FF4000
0001FF4000
0001FF4000
0001FF4000
0001FF4000
0001FF4000
0001FF4000
0001FF4000
ENDCHAR
STARTCHAR Phi
ENCODING 934
SWIDTH 859 0
DWIDTH 28 0
BBX 25 23 1 0
BITMAP
000007FC000000
000007FC000000
000007FC000000
001AFFFFF90000
00BFFFFFFFD000
07FFFFFFFFF800
0FFFEFFEFFFD00
2FFD07FC0BFF00
3FF007FC01FF80
7FD007FC00FFC0
BFC007FC00BFC0
BFC007FC007FC0
7FC007FC00BFC0
7FD007FC00FF80
3FF007FC02FF80
2FFD07FC0BFF00
0BFFEFFEFFFD00
03FFFFFFFFF400
00BFFFFFFFD000
0006FFFFE90000
000007FC000000
000007FC000000
000007FC000000
ENDCHAR
STARTCHAR Chi
ENCODING 935
SWIDTH 666 0
DWIDTH 21 0
BBX 21 23 0 0
BITMAP
7FF00002FF40
2FF80007FE00
0FFD000FFD00
07FF001FF800
02FF403FF000
00FFC0BFD000
007FE1FF8000
002FF6FF0000
000FFFFD0000
0007FFF80000
0002FFF40000
0002FFE00000
0007FFF40000
000FFFFC0000
002FFBFE0000
007FE2FF4000
00BFC1FFC000
01FF80BFE000
03FF003FF400
0BFD001FFC00
1FF8000BFE00
3FF00003FF40
BFD00001FFC0
ENDCHAR
STARTCHAR Psi
ENCODING 936
SWIDTH 875 0
DWIDTH 28 0
BBX 26 23 1 0
BITMAP
7FD003FD007FD0
7FD003FD007FD0
7FD003FD007FD0
7FD003FD007FD0
7FD003FD007FD0
7FD003FD007FD0
7FD003FD007FD0
7FD003FD007FD0
7FD003FD007FD0
3FE003FD00BFC0
3FF003FD00FFC0
2FFD43FD17FF80
0FFFFFFFFFFF00
07FFFFFFFFFD00
01BFFFFFFFE400
001ABFFFEA4000
000003FD000000
000003FD000000
000003FD000000
000003FD000000
000003FD000000
000003FD000000
000003FD000000
ENDCHAR
STARTCHAR uni03A9
ENCODING 937
SWIDTH 786 0
DWIDTH 25 0
BBX 24 23 1 0
BITMAP
0001BFF90000
002FFFFFE000
01FFFFFFFD00
07FFFFFFFF40
0FFF901BFFC0
1FFD0001FFE0
3FF80000BFF0
3FF400003FF4
7FF000002FF4
7FE000002FF4
7FE000002FF4
3FE000002FF4
3FE000002FF0
2FF000003FE0
1FF400003FD0
0BF80000BFC0
03FD0001FF40
01FF4007FD00
007FE01FF400
FFFFF02FFFFD
FFFFF02FFFFD
FFFFF02FFFFD
FFFFF02FFFFD
ENDCHAR
STARTCHAR Iotadieresis
ENCODING 938
SWIDTH 331 0
DWIDTH 11 0
BBX 11 29 0 0
BITMAP
BE07F4
FF4BF8
FF4BF8
7E02E0
000000
000000
03FE00
03FE00
03FE00
03FE00
03FE00
03FE00
03FE00
03FE00
03FE00
03FE00
03FE00
03FE00
03FE00
03FE00
03FE00
03FE00
03FE00
03FE00
03FE00
03FE00
03FE00
03FE00
03FE00
ENDCHAR
STARTCHAR Upsilondieresis
ENCODING 939
SWIDTH 624 0
DWIDTH 20 0
BBX 20 29 0 0
BITMAP
002F41F800
007FC3FD00
007FC3FD00
002F41F800
0000000000
0000000000
BFE0000BFE
7FF0000FFD
2FF8002FF8
0FFC003FF0
0BFE00BFE0
03FF00FFC0
02FF82FF40
00FFC3FF00
007FEBFD00
003FFFF800
001FFFF400
000FFFE000
0007FFD000
0002FF8000
0001FF4000
0001FF4000
0001FF4000
0001FF4000
0001FF4000
0001FF4000
0001FF4000
0001FF4000
0001FF4000
ENDCHAR
STARTCHAR alphatonos
ENCODING 940
SWIDTH 646 0
DWIDTH 21 0
BBX 19 25 1 0
BITMAP
0000BF8000
0000FF4000
0000FE0000
0001FD0000
0002F80000
0003F40000
0000000000
0000000000
006FE41FE0
02FFFE2FD0
0BFFFFBFD0
1FFFFFFFC0
3FF807FFC0
7FF001FF80
7FE000FF80
BFD000BF80
BFD000BF80
BFD000BF80
7FD000FF80
7FE001FF80
3FF802FFD0
2FFFBFFFFC
0FFFFFBFFC
03FFFD2FFC
006FE40BF8
ENDCHAR
STARTCHAR epsilontonos
ENCODING 941
SWIDTH 555 0
DWIDTH 18 0
BBX 16 25 1 0
BITMAP
0000FF80
0000FF00
0001FE00
0002FC00
0002F800
0003F000
00000000
00000000
006FFE90
07FFFFFD
1FFFFFFC
2FFEABF8
2FE00010
2FD00000
1FF40000
0BFFFF00
01FFFF00
1BFFFF00
3FF95500
BFC00000
BFD00019
BFFEABFE
7FFFFFFE
1FFFFFFE
01AFFF94
ENDCHAR
STARTCHAR etatonos
ENCODING 942
SWIDTH 657 0
DWIDTH 21 0
BBX 17 33 2 -8
BITMAP
0000BF8000
0000BF4000
0000FF0000
0001FD0000
0001FC0000
0002F40000
0000000000
0000000000
BF41BF9000
BF8FFFF800
BFFFFFFE00
BFFFFFFF40
BFF807FF40
BFF001FF80
BFE001FF80
BFD000FF80
BFD000FF80
BFD000FF80
BFD000FF80
BFD000FF80
BFD000FF80
BFD000FF80
BFD000FF80
BFD000FF80
BFD000FF80
000000FF80
000000FF80
000000FF80
000000FF80
000000FF80
000000FF80
000000FF80
000000FF80
ENDCHAR
STARTCHAR iotatonos
ENCODING 943
SWIDTH 407 0
DWIDTH 13 0
BBX 11 25 2 0
BITMAP
07FD00
07F800
0BF400
0FE000
0FD000
1F8000
000000
000000
BFD000
BFD000
BFD000
BFD000
BFD000
BFD000
BFD000
BFD000
BFD000
BFD000
BFD000
7FD000
7FE000
7FFEF4
3FFFF4
1FFFF4
02FF90
ENDCHAR
STARTCHAR upsilondieresistonos
ENCODING 944
SWIDTH 645 0
DWIDTH 21 0
BBX 17 27 2 0
BITMAP
0001FE0000
0002FC0000
0002F80000
0BE3F3F400
0FF7D7F800
0FF007F800
07D002E000
0000000000
0000000000
0000000000
BFC002FF00
BFC002FF40
BFC001FF40
BFC001FF80
BFC000FF80
BFC000FF80
BFC000FFC0
BFC000FFC0
BFC000FFC0
BFC000FF80
BFC001FF80
BFD002FF40
7FF407FF00
3FFFBFFE00
1FFFFFFC00
07FFFFE000
006FFA4000
ENDCHAR
STARTCHAR alpha
ENCODING 945
SWIDTH 646 0
DWIDTH 21 0
BBX 19 17 1 0
BITMAP
006FE41FE0
02FFFE2FD0
0BFFFFBFD0
1FFFFFFFC0
3FF807FFC0
7FF001FF80
7FE000FF80
BFD000BF80
BFD000BF80
BFD000BF80
7FD000FF80
7FE001FF80
3FF802FFD0
2FFFBFFFFC
0FFFFFBFFC
03FFFD2FFC
006FE40BF8
ENDCHAR
STARTCHAR beta
ENCODING 946
SWIDTH 660 0
DWIDTH 21 0
BBX 18 32 2 -8
BITMAP
006BFE4000
02FFFFF400
0BFFFFFD00
2FFFBFFF00
3FF403FF80
7FE001FF80
7FD000FF80
7FD000FF80
BFD001FF40
BFD007FE00
BFD0FFF800
BFD0FF9000
BFD0FFFD00
BFD0BFFF80
BFD001FFD0
BFD0007FE0
BFD0003FF0
BFD0003FF0
BFD0007FF0
BFE401FFE0
BFFFEFFFD0
BFFFFFFF80
BFFFFFFE00
BFD6FFA000
BFD0000000
BFD0000000
BFD0000000
BFD0000000
BFD0000000
BFD0000000
BFD0000000
BFD0000000
ENDCHAR
STARTCHAR gamma
ENCODING 947
SWIDTH 567 0
DWIDTH 18 0
BBX 18 25 0 -8
BITMAP
BFC0003FF0
7FE0007FE0
3FF000BFD0
2FF400FF80
1FF801FF40
0BFC02FF00
07FD03FE00
03FE07FD00
02FF0BFC00
01FF4FF800
00BF5FF000
007F9FE000
003FEFD000
002FFFC000
001FFF8000
000FFF4000
0007FE0000
0007FD0000
000BFC0000
000FFC0000
001FF80000
001FF40000
002FF40000
002FF40000
003FF40000
ENDCHAR
STARTCHAR delta
ENCODING 948
SWIDTH 619 0
DWIDTH 20 0
BBX 18 24 1 0
BITMAP
000AFFA400
00BFFFFF80
01FFFFFF80
03FFAAFF40
03FE001A00
03FE000000
02FF800000
00FFE40000
007FFE4000
000FFFE000
006FFFF800
02FFFFFE00
0FFE4BFF80
2FF802FFC0
3FF000FFD0
7FE000BFD0
BFD000BFD0
BFD000BFD0
7FE000FFC0
3FF806FF80
2FFFFFFF40
0BFFFFFE00
02FFFFF400
006BFE4000
ENDCHAR
STARTCHAR epsilon
ENCODING 949
SWIDTH 555 0
DWIDTH 18 0
BBX 16 17 1 0
BITMAP
006FFE90
07FFFFFD
1FFFFFFC
2FFEABF8
2FE00010
2FD00000
1FF40000
0BFFFF00
01FFFF00
1BFFFF00
3FF95500
BFC00000
BFD00019
BFFEABFE
7FFFFFFE
1FFFFFFE
01AFFF94
ENDCHAR
STARTCHAR zeta
ENCODING 950
SWIDTH 498 0
DWIDTH 16 0
BBX 15 30 1 -6
BITMAP
2FFFFFF8
2FFFFFF8
2FFFFFF8
15557FE0
0001FF80
0007FE00
001FF800
007FE000
01FF8000
03FF0000
0BFD0000
1FF80000
2FF40000
3FF00000
7FE00000
7FD00000
BFD00000
BFD00000
7FE00000
3FF80000
2FFFA400
0BFFFF80
02FFFFF0
001BFFF8
00002FF8
00000FF8
00000FF4
00002FF0
00007FE0
0000BFC0
ENDCHAR
STARTCHAR eta
ENCODING 951
SWIDTH 657 0
DWIDTH 21 0
BBX 17 25 2 -8
BITMAP
BF41BF9000
BF8FFFF800
BFFFFFFE00
BFFFFFFF40
BFF807FF40
BFF001FF80
BFE001FF80
BFD000FF80
BFD000FF80
BFD000FF80
BFD000FF80
BFD000FF80
BFD000FF80
BFD000FF80
BFD000FF80
BFD000FF80
BFD000FF80
000000FF80
000000FF80
000000FF80
000000FF80
000000FF80
000000FF80
000000FF80
000000FF80
ENDCHAR
STARTCHAR theta
ENCODING 952
SWIDTH 618 0
DWIDTH 20 0
BBX 18 24 1 0
BITMAP
001BFE4000
01BFFFE000
03FFFFF800
0BFEAFFD00
1FF803FF00
2FF001FF40
3FE000FF80
7FE000BFC0
7FD000BFC0
7FD000BFD0
7FFFFFFFD0
BFFFFFFFD0
BFFFFFFFD0
7FEAAABFD0
7FD000BFD0
7FD000BFC0
3FE000BFC0
3FE000FF80
2FF001FF40
1FF803FF00
0BFE6FFE00
03FFFFF800
00BFFFE000
001BFE4000
ENDCHAR
STARTCHAR iota
ENCODING 953
SWIDTH 407 0
DWIDTH 13 0
BBX 11 17 2 0
BITMAP
BFD000
BFD000
BFD000
BFD000
BFD000
BFD000
BFD000
BFD000
BFD000
BFD000
BFD000
7FD000
7FE000
7FFEF4
3FFFF4
1FFFF4
02FF90
ENDCHAR
STARTCHAR kappa
ENCODING 954
SWIDTH 620 0
DWIDTH 20 0
BBX 18 17 2 0
BITMAP
BFD000FFC0
BFD003FF00
BFD00BFD00
BFD02FF400
BFD0BFD000
BFD2FF8000
BFD7FE0000
BFDFF80000
BFFFFC0000
BFFFFF0000
BFFFFF8000
BFF4BFD000
BFD03FF400
BFD01FFC00
BFD00BFE00
BFD002FF80
BFD000FFD0
ENDCHAR
STARTCHAR lambda
ENCODING 955
SWIDTH 615 0
DWIDTH 20 0
BBX 20 24 0 0
BITMAP
0BF9000000
0FFFC00000
0FFFF00000
0FFFF80000
001FFC0000
000BFD0000
0003FE0000
0002FF4000
0002FF8000
0007FFC000
000BFFD000
001FFFE000
002FFFF000
003FEFF400
00BFCFFC00
00FF8BFD00
01FF47FE00
03FF03FF00
07FD02FF80
0BFC01FFD0
1FF800BFFE
2FF0007FFE
7FE0002FFE
BFD00007F9
ENDCHAR
STARTCHAR uni03BC
ENCODING 956
SWIDTH 660 0
DWIDTH 21 0
BBX 17 25 2 -8
BITMAP
BFD000FF80
BFD000FF80
BFD000FF80
BFD000FF80
BFD000FF80
BFD000FF80
BFD000FF80
BFD000FF80
BFD001FF80
BFD001FF80
BFD001FF80
BFE002FF80
BFF40BFF80
BFFFBFFF80
BFFFFFBF80
BFFFFD7F80
BFDBE43F80
BFD0000000
BFD0000000
BFD0000000
BFD0000000
BFD0000000
BFD0000000
BFD0000000
BFD0000000
ENDCHAR
STARTCHAR nu
ENCODING 957
SWIDTH 595 0
DWIDTH 19 0
BBX 18 17 0 0
BITMAP
BFC0003FE0
7FE0003FE0
3FF0003FE0
2FF4003FE0
1FF8007FE0
0BFC007FD0
07FD00BFC0
03FE00BFC0
02FF00FF80
01FF42FF40
00FF83FE00
007FCBFD00
003FEFF800
002FFFF000
001FFFD000
000FFF4000
000BFD0000
ENDCHAR
STARTCHAR xi
ENCODING 958
SWIDTH 498 0
DWIDTH 16 0
BBX 15 30 1 -6
BITMAP
2FFFFFF0
2FFFFFF0
2FFFFFF0
15BFE550
06FE0000
0FF80000
1FF40000
2FF40000
1FF80000
0FFD4000
07FFFFC0
00BFFFC0
02FFFFC0
0FFE5540
2FF40000
7FE00000
7FD00000
BFD00000
7FE00000
7FF80000
2FFFA400
0FFFFF80
02FFFFF0
001BFFF8
00002FF8
00000FF8
00000FF4
00002FF0
00007FE0
0000BFC0
ENDCHAR
STARTCHAR omicron
ENCODING 959
SWIDTH 619 0
DWIDTH 20 0
BBX 18 17 1 0
BITMAP
001BFE4000
01FFFFF400
0BFFFFFD00
1FFFFFFF00
2FF802FF80
3FF000FFC0
7FE000BFD0
7FD000BFD0
BFD000BFD0
BFD000BFD0
7FE000BFD0
3FF000FFC0
2FF802FF80
1FFFFFFF00
07FFFFFD00
01FFFFF400
001BFE4000
ENDCHAR
STARTCHAR pi
ENCODING 960
SWIDTH 738 0
DWIDTH 24 0
BBX 23 17 0 0
BITMAP
0BFFFFFFFFF8
7FFFFFFFFFF8
BFFFFFFFFFF8
6AFFEAAFFEA4
00FF800FFC00
00FF800FFC00
00FF800FFC00
00FF800FFC00
00FF800FFC00
00FF800FFC00
00FF800FFC00
00FF800FFC00
00FF800FFC00
00FF800BFFB4
00FF800BFFF4
00FF8003FFF4
00FF8000BFA0
ENDCHAR
STARTCHAR rho
ENCODING 961
SWIDTH 618 0
DWIDTH 20 0
BBX 17 25 2 -8
BITMAP
006FF90000
02FFFFD000
0FFFFFF400
2FFFFFFC00
7FF40BFE00
BFD003FF00
FFC002FF00
FF8002FF40
FF8002FF40
FF8002FF40
FF8002FF40
FF8003FF00
FFD00BFE00
FFFFFFFD00
FFFFFFF800
FFFFFFE000
FF5BFE4000
FF80000000
FF80000000
FF80000000
FF80000000
FF80000000
FF80000000
FF80000000
FF80000000
ENDCHAR
STARTCHAR sigma1
ENCODING 962
SWIDTH 498 0
DWIDTH 16 0
BBX 15 23 1 -6
BITMAP
001BFE90
01FFFFF8
0BFFFFF4
1FFFFFF0
2FF90190
3FF00000
7FE00000
7FD00000
BFD00000
BFD00000
7FD00000
7FF00000
3FFD0000
1FFFF900
07FFFFD0
01BFFFF4
0006BFF8
00001FF8
00000FF8
00001FF4
00002FF0
00007FE0
0000BFC0
ENDCHAR
STARTCHAR sigma
ENCODING 963
SWIDTH 652 0
DWIDTH 21 0
BBX 20 17 1 0
BITMAP
001AFFFFFD
01FFFFFFFD
07FFFFFFFD
1FFFABFE54
2FF802FE00
3FF000FF40
7FE000BFC0
7FD0007FD0
BFD0007FD0
7FD0007FE0
7FE0007FE0
3FF000FFD0
2FF802FFC0
1FFFFFFF80
0BFFFFFE00
01FFFFF800
001BFE4000
ENDCHAR
STARTCHAR tau
ENCODING 964
SWIDTH 538 0
DWIDTH 17 0
BBX 16 17 0 0
BITMAP
07FFFFFF
7FFFFFFF
7FFFFFFF
6ABFFAAA
003FE000
003FE000
003FE000
003FE000
003FE000
003FE000
003FE000
003FE000
003FF404
002FFFFC
001FFFFC
000BFFFC
0001BFE4
ENDCHAR
STARTCHAR upsilon
ENCODING 965
SWIDTH 645 0
DWIDTH 21 0
BBX 17 17 2 0
BITMAP
BFC002FF00
BFC002FF40
BFC001FF40
BFC001FF80
BFC000FF80
BFC000FF80
BFC000FFC0
BFC000FFC0
BFC000FFC0
BFC000FF80
BFC001FF80
BFD002FF40
7FF407FF00
3FFFBFFE00
1FFFFFFC00
07FFFFE000
006FFA4000
ENDCHAR
STARTCHAR phi
ENCODING 966
SWIDTH 791 0
DWIDTH 25 0
BBX 23 25 1 -8
BITMAP
0180006FE400
07F407FFFF40
0BFD0FFFFFD0
1FF81FFABFE0
2FF02FF02FF4
3FE02FE00FF8
7FD03FE00BF8
7FC03FE00BFC
BFC03FE00BFC
7FC03FE00FF8
7FD03FE01FF8
3FE03FE02FF4
2FF83FE0BFE0
0FFFBFFBFFC0
07FFFFFFFE00
00BFFFFFF800
0006FFFE4000
00003FE00000
00003FE00000
00003FE00000
00003FE00000
00003FE00000
00003FE00000
00003FE00000
00003FE00000
ENDCHAR
STARTCHAR chi
ENCODING 967
SWIDTH 591 0
DWIDTH 19 0
BBX 20 25 -1 -8
BITMAP
0BF90003FE
1FFF400BFD
1FFFC00FF8
1FFFE02FF0
007FF07FD0
001FF4BF80
000BF9FF40
0007FFFE00
0003FFFC00
0002FFF400
0001FFE000
0000FFD000
0002FFD000
0007FFE000
000BFFF000
001FFFF800
003FE7FC00
007FC3FD00
00FF82FE00
02FF01FF40
07FE00FFD0
0BFC00BFFF
1FF8007FFF
3FF0002FFF
7FE00006FE
ENDCHAR
STARTCHAR psi
ENCODING 968
SWIDTH 836 0
DWIDTH 27 0
BBX 23 32 2 -8
BITMAP
00002FE00000
00002FE00000
00002FE00000
00002FE00000
00002FE00000
00002FE00000
00002FE00000
BF802FE01FF0
BF802FE01FF4
BF802FE00FF4
BF802FE00BF8
BF802FE00BF8
BF802FE007FC
BF802FE007FC
BF802FE007FC
BF802FE007FC
BFC02FE007FC
BFC02FE00BF8
7FD02FE01FF8
3FF42FE07FF0
1FFFBFFBFFE0
0BFFFFFFFF80
01FFFFFFFD00
001AFFFE9000
00002FE00000
00002FE00000
00002FE00000
00002FE00000
00002FE00000
00002FE00000
00002FE00000
00002FE00000
ENDCHAR
STARTCHAR omega
ENCODING 969
SWIDTH 862 0
DWIDTH 28 0
BBX 25 17 1 0
BITMAP
0BF8000007FD00
0FF4000002FE00
1FF0000001FF00
2FE0000000FF40
3FD0000000FF80
3FD007FC00BF80
7FD007FC00BF80
7FC007FC00BFC0
7FC007FC007FC0
7FC007FC00BFC0
3FD007FC00BF80
3FE00BFD00FF80
2FF41FFE02FF40
1FFEBFFFEFFF00
0BFFFF6FFFFD00
02FFFE0FFFF400
006FE402FE8000
ENDCHAR
STARTCHAR iotadieresis
ENCODING 970
SWIDTH 407 0
DWIDTH 13 0
BBX 13 24 0 0
BITMAP
7F03F400
BF47F800
BF47F800
6E02F400
00000000
00000000
00000000
0BFD0000
0BFD0000
0BFD0000
0BFD0000
0BFD0000
0BFD0000
0BFD0000
0BFD0000
0BFD0000
0BFD0000
0BFD0000
07FD0000
07FE0000
07FFEF40
03FFFF40
01FFFF40
002FF900
ENDCHAR
STARTCHAR upsilondieresis
ENCODING 971
SWIDTH 645 0
DWIDTH 21 0
BBX 17 24 2 0
BITMAP
01F81FD000
03FD2FE000
03FD2FE000
01F80B8000
0000000000
0000000000
0000000000
BFC002FF00
BFC002FF40
BFC001FF40
BFC001FF80
BFC000FF80
BFC000FF80
BFC000FFC0
BFC000FFC0
BFC000FFC0
BFC000FF80
BFC001FF80
BFD002FF40
7FF407FF00
3FFFBFFE00
1FFFFFFC00
07FFFFE000
006FFA4000
ENDCHAR
STARTCHAR omicrontonos
ENCODING 972
SWIDTH 619 0
DWIDTH 20 0
BBX 18 25 1 0
BITMAP
00007FC000
0000BF8000
0000BF0000
0000FE0000
0001FC0000
0002F40000
0000000000
0000000000
001BFE4000
01FFFFF400
0BFFFFFD00
1FFFFFFF00
2FF802FF80
3FF000FFC0
7FE000BFD0
7FD000BFD0
BFD000BFD0
BFD000BFD0
7FE000BFD0
3FF000FFC0
2FF802FF80
1FFFFFFF00
07FFFFFD00
01FFFFF400
001BFE4000
ENDCHAR
STARTCHAR upsilontonos
ENCODING 973
SWIDTH 645 0
DWIDTH 21 0
BBX 17 25 2 0
BITMAP
0001FF4000
0001FE0000
0002FD0000
0003F80000
0003F40000
0007E00000
0000000000
0000000000
BFC002FF00
BFC002FF40
BFC001FF40
BFC001FF80
BFC000FF80
BFC000FF80
BFC000FFC0
BFC000FFC0
BFC000FFC0
BFC000FF80
BFC001FF80
BFD002FF40
7FF407FF00
3FFFBFFE00
1FFFFFFC00
07FFFFE000
006FFA4000
ENDCHAR
STARTCHAR omegatonos
ENCODING 974
SWIDTH 862 0
DWIDTH 28 0
BBX 25 25 1 0
BITMAP
000000BF800000
000000BF400000
000000FF000000
000001FD000000
000002F8000000
000002F4000000
00000000000000
00000000000000
0BF8000007FD00
0FF4000002FE00
1FF0000001FF00
2FE0000000FF40
3FD0000000FF80
3FD007FC00BF80
7FD007FC00BF80
7FC007FC00BFC0
7FC007FC007FC0
7FC007FC00BFC0
3FD007FC00BF80
3FE00BFD00FF80
2FF41FFE02FF40
1FFEBFFFEFFF00
0BFFFF6FFFFD00
02FFFE0FFFF400
006FE402FE8000
ENDCHAR
STARTCHAR uni03D1
ENCODING 977
SWIDTH 731 0
DWIDTH 23 0
BBX 23 24 0 0
BITMAP
0001AFE40000
000BFFFF4000
001FFFFFD000
003FFABFF400
007FE01FF800
007FD00BFD00
007FE003FE00
003FF402FF00
001FFE52FF00
000BFFFFFFF4
0002FFFFFFF4
00006FFFFFF4
06F9016AFFA4
7FFF0001FF40
3FFF4001FF40
1FFF4001FF40
00FF4002FF40
00FF0003FF00
00FF4007FE00
00FF801FFD00
00FFFAFFF800
00BFFFFFE000
002FFFFF8000
0006FFE40000
ENDCHAR
STARTCHAR uni03D2
ENCODING 978
SWIDTH 630 0
DWIDTH 20 0
BBX 20 23 0 0
BITMAP
BFD00002FE
7FF0000BFF
2FF4001FFF
0FFC003FFF
0BFD00BFE0
03FF00FFC0
02FF42FF40
00FFC3FE00
007FDBFC00
003FFFF800
001FFFF000
000BFFE000
0007FFC000
0002FF8000
0001FF4000
0001FF4000
0001FF4000
0001FF4000
0001FF4000
0001FF4000
0001FF4000
0001FF4000
0001FF4000
ENDCHAR
STARTCHAR uni03D6
ENCODING 982
SWIDTH 999 0
DWIDTH 32 0
BBX 32 17 0 0
BITMAP
07FFFFFFFFFFFFFD
2FFFFFFFFFFFFFFD
7FFFFFFFFFFFFFFD
2ABFEAAAAAABFEA8
007FC0000003FD00
00BF80000002FE00
00BF80000002FF00
00FF40000001FF00
00FF401FF401FF00
00FF401FF401FF00
00FF401FF401FF00
00FF801FF402FF00
00BFD02FF807FE00
007FFAFFFFAFFD00
002FFFFE7FFFF800
000BFFF82FFFE000
0001BF9006FE4000
ENDCHAR
STARTCHAR uni0400
ENCODING 1024
SWIDTH 560 0
DWIDTH 18 0
BBX 13 30 3 0
BITMAP
BFE00000
2FF80000
07FD0000
01FF4000
002FC000
00000000
00000000
FFFFFFC0
FFFFFFC0
FFFFFFC0
FFFFFFC0
FF800000
FF800000
FF800000
FF800000
FF800000
FFFFFF40
FFFFFF40
FFFFFF40
FFFFFF40
FF800000
FF800000
FF800000
FF800000
FF800000
FF800000
FFFFFFC0
FFFFFFC0
FFFFFFC0
FFFFFFC0
ENDCHAR
STARTCHAR afii10023
ENCODING 1025
SWIDTH 560 0
DWIDTH 18 0
BBX 13 29 3 0
BITMAP
1FC0FD00
2FD2FE00
2FD1FE00
1F80B900
00000000
00000000
FFFFFFC0
FFFFFFC0
FFFFFFC0
FFFFFFC0
FF800000
FF800000
FF800000
FF800000
FF800000
FFFFFF40
FFFFFF40
FFFFFF40
FFFFFF40
FF800000
FF800000
FF800000
FF800000
FF800000
FF800000
FFFFFFC0
FFFFFFC0
FFFFFFC0
FFFFFFC0
ENDCHAR
STARTCHAR afii10051
ENCODING 1026
SWIDTH 805 0
DWIDTH 26 0
BBX 24 23 0 0
BITMAP
7FFFFFFFF000
7FFFFFFFF000
7FFFFFFFF000
7FFFFFFFF000
000BFD000000
000BFD000000
000BFD000000
000BFD000000
000BFFFFFE40
000BFFFFFFE0
000BFFFFFFFC
000BFFFFFFFE
000BFD000BFF
000BFD0003FF
000BFD0002FF
000BFD0002FF
000BFD0002FF
000BFD0003FF
000BFD0507FE
000BFD07FFFE
000BFD07FFFC
000BFD07FFF4
000BFD06FE80
ENDCHAR
STARTCHAR afii10052
ENCODING 1027
SWIDTH 561 0
DWIDTH 18 0
BBX 15 30 3 0
BITMAP
0001FFC0
0007FE00
000FF800
002FD000
00BF4000
00000000
00000000
FFFFFFF4
FFFFFFF4
FFFFFFF4
FFFFFFF4
FF800000
FF800000
FF800000
FF800000
FF800000
FF800000
FF800000
FF800000
FF800000
FF800000
FF800000
FF800000
FF800000
FF800000
FF800000
FF800000
FF800000
FF800000
FF800000
ENDCHAR
STARTCHAR afii10053
ENCODING 1028
SWIDTH 676 0
DWIDTH 22 0
BBX 19 23 2 0
BITMAP
0001BFF900
002FFFFFE4
01FFFFFFF0
07FFFFFFE0
1FFF505BD0
2FF8000040
7FE0000000
BFD0000000
BFC0000000
FFFFFFFC00
FFFFFFFC00
FFFFFFFC00
FFFFFFFC00
FFC0000000
FFD0000000
BFD0000000
7FF0000000
3FF8000000
1FFF5016E0
0BFFFFFFE0
02FFFFFFE0
007FFFFFE0
0006BFF940
ENDCHAR
STARTCHAR afii10054
ENCODING 1029
SWIDTH 550 0
DWIDTH 18 0
BBX 16 23 1 0
BITMAP
006FFE40
02FFFFF8
0FFFFFFC
2FFFFFF4
3FF806F0
7FE00010
7FE00000
3FF00000
3FFD0000
1FFF9000
0BFFF900
02FFFF80
006FFFE0
0006FFF8
00006FFC
00000BFD
000007FD
50000BFD
BE501FFC
BFFFFFF8
BFFFFFE0
7FFFFF80
06BFE900
ENDCHAR
STARTCHAR afii10055
ENCODING 1030
SWIDTH 331 0
DWIDTH 11 0
BBX 5 23 3 0
BITMAP
FF80
FF80
FF80
FF80
FF80
FF80
FF80
FF80
FF80
FF80
FF80
FF80
FF80
FF80
FF80
FF80
FF80
FF80
FF80
FF80
FF80
FF80
FF80
ENDCHAR
STARTCHAR afii10056
ENCODING 1031
SWIDTH 331 0
DWIDTH 11 0
BBX 11 29 0 0
BITMAP
BE07F4
FF4BF8
FF4BF8
7E02E0
000000
000000
03FE00
03FE00
03FE00
03FE00
03FE00
03FE00
03FE00
03FE00
03FE00
03FE00
03FE00
03FE00
03FE00
03FE00
03FE00
03FE00
03FE00
03FE00
03FE00
03FE00
03FE00
03FE00
03FE00
ENDCHAR
STARTCHAR afii10057
ENCODING 1032
SWIDTH 331 0
DWIDTH 11 0
BBX 11 30 -3 -7
BITMAP
000FF8
000FF8
000FF8
000FF8
000FF8
000FF8
000FF8
000FF8
000FF8
000FF8
000FF8
000FF8
000FF8
000FF8
000FF8
000FF8
000FF8
000FF8
000FF8
000FF8
000FF8
000FF8
000FF8
001FF8
002FF4
11BFF0
7FFFE0
7FFFD0
7FFF40
6FE400
ENDCHAR
STARTCHAR afii10058
ENCODING 1033
SWIDTH 999 0
DWIDTH 32 0
BBX 31 23 0 0
BITMAP
000BFFFFFF000000
000BFFFFFF000000
000BFFFFFF000000
000FFFFFFF000000
000FF403FF000000
001FF403FF000000
001FF403FF000000
002FF003FF000000
002FF003FF000000
002FF003FFFFA000
003FE003FFFFFE00
003FE003FFFFFF80
007FD003FFFFFFE0
007FD003FF01BFF0
00BFC003FF002FF4
00FFC003FF001FF4
00FF8003FF001FF4
01FF4003FF002FF4
07FF4003FF01BFF0
BFFF0003FFFFFFE0
BFFD0003FFFFFFC0
BFF80003FFFFFE00
BF900003FFFFA000
ENDCHAR
STARTCHAR afii10059
ENCODING 1034
SWIDTH 1001 0
DWIDTH 32 0
BBX 28 23 3 0
BITMAP
FF8000BFC00000
FF8000BFC00000
FF8000BFC00000
FF8000BFC00000
FF8000BFC00000
FF8000BFC00000
FF8000BFC00000
FF8000BFC00000
FF8000BFC00000
FFFFFFFFFFE900
FFFFFFFFFFFF80
FFFFFFFFFFFFF0
FFFFFFFFFFFFF8
FF8000FFC06FFD
FF8000BFC00BFD
FF8000BFC007FE
FF8000BFC007FE
FF8000BFC00BFD
FF8000BFC06FFD
FF8000BFFFFFF8
FF8000BFFFFFF0
FF8000BFFFFF80
FF8000BFFFE900
ENDCHAR
STARTCHAR afii10060
ENCODING 1035
SWIDTH 805 0
DWIDTH 26 0
BBX 24 23 0 0
BITMAP
7FFFFFFFF000
7FFFFFFFF000
7FFFFFFFF000
7FFFFFFFF000
000BFD000000
000BFD000000
000BFD000000
000BFD000000
000BFFFFFE40
000BFFFFFFF0
000BFFFFFFFC
000BFFFFFFFE
000BFD000BFE
000BFD0003FF
000BFD0002FF
000BFD0002FF
000BFD0002FF
000BFD0002FF
000BFD0002FF
000BFD0002FF
000BFD0002FF
000BFD0002FF
000BFD0002FF
ENDCHAR
STARTCHAR afii10061
ENCODING 1036
SWIDTH 671 0
DWIDTH 22 0
BBX 19 30 3 0
BITMAP
00002FF800
00007FE000
0001FF8000
0003FD0000
000BE00000
0000000000
0000000000
FF80007FE0
FF8001FFC0
FF8003FF40
FF800BFD00
FF801FF800
FF807FF000
FF80FFD000
FF82FF4000
FF87FE0000
FF8FFC0000
FFAFF40000
FFFFF00000
FF9FF80000
FF8BFE0000
FF83FF4000
FF81FFC000
FF80BFE000
FF803FF400
FF801FFD00
FF8007FF00
FF8002FF80
FF8000FFD0
FF80007FF4
ENDCHAR
STARTCHAR uni040D
ENCODING 1037
SWIDTH 823 0
DWIDTH 26 0
BBX 21 30 3 0
BITMAP
01FFD0000000
007FF0000000
000BF8000000
0002FE000000
00007F400000
000000000000
000000000000
FF40000BFF40
FF40001FFF40
FF40003FFF40
FF40007FFF40
FF4000FFFF40
FF4002FFBF40
FF4007FEBF40
FF400FFCBF40
FF401FF4BF40
FF403FE0BF40
FF40BFD0FF40
FF41FF80FF40
FF43FF00FF40
FF47FD00FF40
FF0FF800FF40
FF2FF400FF40
FF7FE000FF40
FFFFC000FF40
FFFF4000FF40
FFFE0000FF40
FFFD0000FF40
FFF80000FF40
FFF00000FF40
ENDCHAR
STARTCHAR afii10062
ENCODING 1038
SWIDTH 652 0
DWIDTH 21 0
BBX 21 31 0 0
BITMAP
03FD000FF400
02FE001FF000
01FF407FE000
00FFEAFFC000
003FFFFF4000
0006FFE40000
000000000000
000000000000
BFD00001FF80
7FE00002FF40
2FF40003FE00
1FF80007FD00
0BFC000FFC00
07FE001FF400
03FF002FF000
01FF403FE000
00FFC07FC000
007FD0FF8000
003FE1FF4000
001FF6FE0000
000FFBFD0000
0007FFFC0000
0003FFF80000
0001FFF00000
0001FFE00000
0002FFC00000
141BFF800000
3FFFFF000000
3FFFFD000000
3FFFF4000000
2BFE40000000
ENDCHAR
STARTCHAR afii10145
ENCODING 1039
SWIDTH 745 0
DWIDTH 24 0
BBX 18 30 3 -7
BITMAP
FF80003FF0
FF80003FF0
FF80003FF0
FF80003FF0
FF80003FF0
FF80003FF0
FF80003FF0
FF80003FF0
FF80003FF0
FF80003FF0
FF80003FF0
FF80003FF0
FF80003FF0
FF80003FF0
FF80003FF0
FF80003FF0
FF80003FF0
FF80003FF0
FF80003FF0
FFFFFFFFF0
FFFFFFFFF0
FFFFFFFFF0
FFFFFFFFF0
0007FD0000
0007FD0000
0007FD0000
0007FD0000
0007FD0000
0007FD0000
0007FD0000
ENDCHAR
STARTCHAR afii10017
ENCODING 1040
SWIDTH 689 0
DWIDTH 22 0
BBX 22 23 0 0
BITMAP
0000FFF00000
0001FFF80000
0002FFFC0000
0003FFFD0000
000BFAFE0000
000FF5FF0000
001FF0FF4000
002FF0BF8000
003FE07FC000
007FD03FD000
00BFC02FE000
00FF801FF000
01FF400FF400
02FFFFFFF800
03FFFFFFFC00
07FFFFFFFD00
0BFFFFFFFE00
0FF80002FF00
1FF40001FF40
2FF40000FFC0
3FF00000FFD0
7FE00000BFE0
BFD000007FF0
ENDCHAR
STARTCHAR afii10018
ENCODING 1041
SWIDTH 638 0
DWIDTH 20 0
BBX 16 23 3 0
BITMAP
FFFFFFF4
FFFFFFF4
FFFFFFF4
FFFFFFF4
FF800000
FF800000
FF800000
FF800000
FF800000
FFFFE900
FFFFFF90
FFFFFFF4
FFFFFFFC
FF805FFE
FF8007FE
FF8003FF
FF8003FF
FF8007FE
FF806FFE
FFFFFFFC
FFFFFFF4
FFFFFFD0
FFFFE900
ENDCHAR
STARTCHAR afii10019
ENCODING 1042
SWIDTH 671 0
DWIDTH 22 0
BBX 17 23 3 0
BITMAP
FFFFFA4000
FFFFFFF400
FFFFFFFD00
FFFFFFFE00
FF801BFF00
FF8003FF40
FF8002FF00
FF8003FF00
FF801BFE00
FFFFFFF800
FFFFFFD000
FFFFFFF400
FFFFFFFE00
FF8007FF40
FF8002FF80
FF8001FF80
FF8001FF80
FF8002FF80
FF801BFF40
FFFFFFFF00
FFFFFFFD00
FFFFFFF400
FFFFFE4000
ENDCHAR
STARTCHAR afii10020
ENCODING 1043
SWIDTH 561 0
DWIDTH 18 0
BBX 15 23 3 0
BITMAP
FFFFFFF4
FFFFFFF4
FFFFFFF4
FFFFFFF4
FF800000
FF800000
FF800000
FF800000
FF800000
FF800000
FF800000
FF800000
FF800000
FF800000
FF800000
FF800000
FF800000
FF800000
FF800000
FF800000
FF800000
FF800000
FF800000
ENDCHAR
STARTCHAR afii10021
ENCODING 1044
SWIDTH 764 0
DWIDTH 24 0
BBX 24 30 0 -7
BITMAP
0002FFFFFF80
0002FFFFFF80
0003FFFFFF80
0003FFFFFF80
0007FD00FF80
0007FC00FF80
000BFC00FF80
000FF800FF80
001FF400FF80
001FF400FF80
002FF000FF80
003FE000FF80
007FD000FF80
00BFC000FF80
00FF8000FF80
02FF4000FF80
03FF0000FF80
07FE0000FF80
0FFD0000FF80
FFFFFFFFFFFE
FFFFFFFFFFFE
FFFFFFFFFFFE
FFFFFFFFFFFE
FF80000003FE
FF80000003FE
FF80000003FE
FF80000003FE
FF80000003FE
FF80000003FE
FF80000003FE
ENDCHAR
STARTCHAR afii10022
ENCODING 1045
SWIDTH 560 0
DWIDTH 18 0
BBX 13 23 3 0
BITMAP
FFFFFFC0
FFFFFFC0
FFFFFFC0
FFFFFFC0
FF800000
FF800000
FF800000
FF800000
FF800000
FFFFFF40
FFFFFF40
FFFFFF40
FFFFFF40
FF800000
FF800000
FF800000
FF800000
FF800000
FF800000
FFFFFFC0
FFFFFFC0
FFFFFFC0
FFFFFFC0
ENDCHAR
STARTCHAR afii10024
ENCODING 1046
SWIDTH 942 0
DWIDTH 30 0
BBX 30 23 0 0
BITMAP
7FE0007FD000BFD0
2FF4007FD001FF80
0BFC007FD003FF00
03FE007FD00BFD00
01FF407FD01FF800
00BFC07FD03FF000
003FE07FD0BFD000
001FF47FD1FF8000
000BFC7FD3FE0000
0003FE7FDBFC0000
0001FFBFEFF40000
0001FFFFFFF40000
0003FF7FDFFC0000
000BFD7FD7FE0000
001FF87FD2FF4000
003FF07FD0FFC000
00BFD07FD07FE000
01FF807FD02FF400
03FF007FD00FFC00
0BFD007FD007FE00
1FF8007FD002FF40
3FF4007FD000FFD0
BFE0007FD0007FE0
ENDCHAR
STARTCHAR afii10025
ENCODING 1047
SWIDTH 647 0
DWIDTH 21 0
BBX 19 23 1 0
BITMAP
006BFF9000
0BFFFFFD00
7FFFFFFF80
3FFFFFFFD0
1F9001FFE0
0500007FE0
0000003FE0
000000BFD0
000016FF80
00FFFFFD00
00FFFF9000
00FFFFF900
00AAFFFF80
000006FFE0
0000003FF0
0000002FF4
0000002FF4
0000003FF4
790001FFF0
7FFEBFFFD0
7FFFFFFF80
7FFFFFFD00
06BFFE9000
ENDCHAR
STARTCHAR afii10026
ENCODING 1048
SWIDTH 823 0
DWIDTH 26 0
BBX 21 23 3 0
BITMAP
FF40000BFF40
FF40001FFF40
FF40003FFF40
FF40007FFF40
FF4000FFFF40
FF4002FFBF40
FF4007FEBF40
FF400FFCBF40
FF401FF4BF40
FF403FE0BF40
FF40BFD0FF40
FF41FF80FF40
FF43FF00FF40
FF47FD00FF40
FF0FF800FF40
FF2FF400FF40
FF7FE000FF40
FFFFC000FF40
FFFF4000FF40
FFFE0000FF40
FFFD0000FF40
FFF80000FF40
FFF00000FF40
ENDCHAR
STARTCHAR afii10027
ENCODING 1049
SWIDTH 823 0
DWIDTH 26 0
BBX 21 31 3 0
BITMAP
07FC002FE000
07FC003FD000
03FE00BFC000
01FFEBFF8000
00BFFFFE0000
001AFFA40000
000000000000
000000000000
FF40000BFF40
FF40001FFF40
FF40003FFF40
FF40007FFF40
FF4000FFFF40
FF4002FFBF40
FF4007FEBF40
FF400FFCBF40
FF401FF4BF40
FF403FE0BF40
FF40BFD0FF40
FF41FF80FF40
FF43FF00FF40
FF47FD00FF40
FF0FF800FF40
FF2FF400FF40
FF7FE000FF40
FFFFC000FF40
FFFF4000FF40
FFFE0000FF40
FFFD0000FF40
FFF80000FF40
FFF00000FF40
ENDCHAR
STARTCHAR afii10028
ENCODING 1050
SWIDTH 671 0
DWIDTH 22 0
BBX 19 23 3 0
BITMAP
FF80007FE0
FF8001FFC0
FF8003FF40
FF800BFD00
FF801FF800
FF807FF000
FF80FFD000
FF82FF4000
FF87FE0000
FF8FFC0000
FFAFF40000
FFFFF00000
FF9FF80000
FF8BFE0000
FF83FF4000
FF81FFC000
FF80BFE000
FF803FF400
FF801FFD00
FF8007FF00
FF8002FF80
FF8000FFD0
FF80007FF4
ENDCHAR
STARTCHAR afii10029
ENCODING 1051
SWIDTH 745 0
DWIDTH 24 0
BBX 21 23 0 0
BITMAP
000BFFFFFFC0
000BFFFFFFC0
000BFFFFFFC0
000FFFFFFFC0
000FF400FFC0
001FF400FFC0
001FF400FFC0
002FF000FFC0
002FF000FFC0
002FF000FFC0
003FE000FFC0
003FE000FFC0
007FD000FFC0
007FD000FFC0
00BFC000FFC0
00FFC000FFC0
00FF8000FFC0
01FF4000FFC0
07FF4000FFC0
BFFF0000FFC0
BFFD0000FFC0
BFF80000FFC0
BF900000FFC0
ENDCHAR
STARTCHAR afii10030
ENCODING 1052
SWIDTH 942 0
DWIDTH 30 0
BBX 25 23 3 0
BITMAP
FFF800001FFF40
FFFC00002FFF40
FFFD00003FFF40
FFFE00007FFF40
FFFF0000BFFF40
FFBF0000FEFF40
FF7F4001FDFF40
FF7F8002FCFF40
FF3FC003F8FF40
FF2FD007F5FF40
FF1FE00BF1FF40
FF4FF00FE1FF40
FF4BF41FD1FF40
FF47F82FC1FF40
FF43FC3F81FF40
FF42FD7F41FF40
FF41FEBF01FF40
FF40FFFE01FF40
FF40BFFD01FF40
FF40BFFC01FF40
FF407FF801FF40
FF403FF401FF40
FF402FF001FF40
ENDCHAR
STARTCHAR afii10031
ENCODING 1053
SWIDTH 765 0
DWIDTH 24 0
BBX 19 23 3 0
BITMAP
FF80001FF8
FF80001FF8
FF80001FF8
FF80001FF8
FF80001FF8
FF80001FF8
FF80001FF8
FF80001FF8
FF80001FF8
FFFFFFFFF8
FFFFFFFFF8
FFFFFFFFF8
FFFFFFFFF8
FF80001FF8
FF80001FF8
FF80001FF8
FF80001FF8
FF80001FF8
FF80001FF8
FF80001FF8
FF80001FF8
FF80001FF8
FF80001FF8
ENDCHAR
STARTCHAR afii10032
ENCODING 1054
SWIDTH 795 0
DWIDTH 25 0
BBX 22 23 2 0
BITMAP
0006BFE50000
007FFFFF9000
02FFFFFFF400
0BFFFFFFFD00
1FFF406FFF00
3FF80007FF40
7FF00002FFC0
BFE00000FFC0
FFD00000BFD0
FFC00000BFD0
FFC00000BFE0
FFC000007FE0
FFC00000BFE0
FFC00000BFD0
FFD00000BFD0
BFE00000FFC0
7FF00002FFC0
3FF80007FF40
1FFF506FFF00
0BFFFFFFFD00
02FFFFFFF400
007FFFFF8000
0006BFE50000
ENDCHAR
STARTCHAR afii10033
ENCODING 1055
SWIDTH 745 0
DWIDTH 24 0
BBX 18 23 3 0
BITMAP
FFFFFFFFF0
FFFFFFFFF0
FFFFFFFFF0
FFFFFFFFF0
FF80003FF0
FF80003FF0
FF80003FF0
FF80003FF0
FF80003FF0
FF80003FF0
FF80003FF0
FF80003FF0
FF80003FF0
FF80003FF0
FF80003FF0
FF80003FF0
FF80003FF0
FF80003FF0
FF80003FF0
FF80003FF0
FF80003FF0
FF80003FF0
FF80003FF0
ENDCHAR
STARTCHAR afii10034
ENCODING 1056
SWIDTH 627 0
DWIDTH 20 0
BBX 16 23 3 0
BITMAP
FFFFE900
FFFFFF90
FFFFFFF4
FFFFFFF8
FF802FFD
FF800BFD
FF8007FE
FF8007FE
FF8007FE
FF800BFD
FF806FFC
FFFFFFF8
FFFFFFE0
FFFFFF80
FFFFE400
FF800000
FF800000
FF800000
FF800000
FF800000
FF800000
FF800000
FF800000
ENDCHAR
STARTCHAR afii10035
ENCODING 1057
SWIDTH 637 0
DWIDTH 20 0
BBX 17 23 2 0
BITMAP
0006BFE400
007FFFFF80
02FFFFFFC0
0BFFFFFF80
1FFF406F00
3FF8000100
7FF0000000
BFE0000000
FFD0000000
FFC0000000
FFC0000000
FFC0000000
FFC0000000
FFC0000000
FFC0000000
BFD0000000
7FF0000000
3FF8000000
2FFE405B40
0FFFFFFF40
03FFFFFF40
00BFFFFF40
0006FFE400
ENDCHAR
STARTCHAR afii10036
ENCODING 1058
SWIDTH 579 0
DWIDTH 19 0
BBX 18 23 0 0
BITMAP
7FFFFFFFF0
7FFFFFFFF0
7FFFFFFFF0
7FFFFFFFF0
0007FE0000
0003FE0000
0003FE0000
0003FE0000
0003FE0000
0003FE0000
0003FE0000
0003FE0000
0003FE0000
0003FE0000
0003FE0000
0003FE0000
0003FE0000
0003FE0000
0003FE0000
0003FE0000
0003FE0000
0003FE0000
0003FE0000
ENDCHAR
STARTCHAR afii10037
ENCODING 1059
SWIDTH 652 0
DWIDTH 21 0
BBX 21 23 0 0
BITMAP
BFD00001FF80
7FE00002FF40
2FF40003FE00
1FF80007FD00
0BFC000FFC00
07FE001FF400
03FF002FF000
01FF403FE000
00FFC07FC000
007FD0FF8000
003FE1FF4000
001FF6FE0000
000FFBFD0000
0007FFFC0000
0003FFF80000
0001FFF00000
0001FFE00000
0002FFC00000
141BFF800000
3FFFFF000000
3FFFFD000000
3FFFF4000000
2BFE40000000
ENDCHAR
STARTCHAR afii10038
ENCODING 1060
SWIDTH 859 0
DWIDTH 28 0
BBX 25 23 1 0
BITMAP
000007FC000000
000007FC000000
000007FC000000
001AFFFFF90000
00BFFFFFFFD000
07FFFFFFFFF800
0FFFEFFEFFFD00
2FFD07FC0BFF00
3FF007FC01FF80
7FD007FC00FFC0
BFC007FC00BFC0
BFC007FC007FC0
7FC007FC00BFC0
7FD007FC00FF80
3FF007FC02FF80
2FFD07FC0BFF00
0BFFEFFEFFFD00
03FFFFFFFFF400
00BFFFFFFFD000
0006FFFFE90000
000007FC000000
000007FC000000
000007FC000000
ENDCHAR
STARTCHAR afii10039
ENCODING 1061
SWIDTH 666 0
DWIDTH 21 0
BBX 21 23 0 0
BITMAP
7FF00002FF40
2FF80007FE00
0FFD000FFD00
07FF001FF800
02FF403FF000
00FFC0BFD000
007FE1FF8000
002FF6FF0000
000FFFFD0000
0007FFF80000
0002FFF40000
0002FFE00000
0007FFF40000
000FFFFC0000
002FFBFE0000
007FE2FF4000
00BFC1FFC000
01FF80BFE000
03FF003FF400
0BFD001FFC00
1FF8000BFE00
3FF00003FF40
BFD00001FFC0
ENDCHAR
STARTCHAR afii10040
ENCODING 1062
SWIDTH 780 0
DWIDTH 25 0
BBX 22 30 3 -7
BITMAP
FF80003FF000
FF80003FF000
FF80003FF000
FF80003FF000
FF80003FF000
FF80003FF000
FF80003FF000
FF80003FF000
FF80003FF000
FF80003FF000
FF80003FF000
FF80003FF000
FF80003FF000
FF80003FF000
FF80003FF000
FF80003FF000
FF80003FF000
FF80003FF000
FF80003FF000
FFFFFFFFFFD0
FFFFFFFFFFD0
FFFFFFFFFFD0
FFFFFFFFFFD0
000000007FD0
000000007FD0
000000007FD0
000000007FD0
000000007FD0
000000007FD0
000000007FD0
ENDCHAR
STARTCHAR afii10041
ENCODING 1063
SWIDTH 728 0
DWIDTH 23 0
BBX 20 23 1 0
BITMAP
7FE00007FD
7FE00007FD
7FE00007FD
7FE00007FD
7FE00007FD
7FE00007FD
7FE00007FD
7FE00007FD
7FE00007FD
7FE00007FD
7FF0000BFD
3FF901BFFD
2FFFFFFFFD
1FFFFFFFFD
07FFFFFBFD
00AFF947FD
00000007FD
00000007FD
00000007FD
00000007FD
00000007FD
00000007FD
00000007FD
ENDCHAR
STARTCHAR afii10042
ENCODING 1064
SWIDTH 1078 0
DWIDTH 35 0
BBX 29 23 3 0
BITMAP
FF8001FF8001FF80
FF8001FF8001FF80
FF8001FF8001FF80
FF8001FF8001FF80
FF8001FF8001FF80
FF8001FF8001FF80
FF8001FF8001FF80
FF8001FF8001FF80
FF8001FF8001FF80
FF8001FF8001FF80
FF8001FF8001FF80
FF8001FF8001FF80
FF8001FF8001FF80
FF8001FF8001FF80
FF8001FF8001FF80
FF8001FF8001FF80
FF8001FF8001FF80
FF8001FF8001FF80
FF8001FF8001FF80
FFFFFFFFFFFFFF80
FFFFFFFFFFFFFF80
FFFFFFFFFFFFFF80
FFFFFFFFFFFFFF80
ENDCHAR
STARTCHAR afii10043
ENCODING 1065
SWIDTH 1113 0
DWIDTH 36 0
BBX 32 30 3 -7
BITMAP
FF8001FF8001FF80
FF8001FF8001FF80
FF8001FF8001FF80
FF8001FF8001FF80
FF8001FF8001FF80
FF8001FF8001FF80
FF8001FF8001FF80
FF8001FF8001FF80
FF8001FF8001FF80
FF8001FF8001FF80
FF8001FF8001FF80
FF8001FF8001FF80
FF8001FF8001FF80
FF8001FF8001FF80
FF8001FF8001FF80
FF8001FF8001FF80
FF8001FF8001FF80
FF8001FF8001FF80
FF8001FF8001FF80
FFFFFFFFFFFFFFFF
FFFFFFFFFFFFFFFF
FFFFFFFFFFFFFFFF
FFFFFFFFFFFFFFFF
00000000000002FF
00000000000002FF
00000000000002FF
00000000000002FF
00000000000002FF
00000000000002FF
00000000000002FF
ENDCHAR
STARTCHAR afii10044
ENCODING 1066
SWIDTH 727 0
DWIDTH 23 0
BBX 22 23 0 0
BITMAP
FFFFF8000000
FFFFF8000000
FFFFF8000000
FFFFF8000000
001FF8000000
001FF8000000
001FF8000000
001FF8000000
001FF8000000
001FFFFE9000
001FFFFFF800
001FFFFFFF40
001FFFFFFFC0
001FF806FFD0
001FF8007FE0
001FF8003FE0
001FF8003FE0
001FF800BFE0
001FF806FFD0
001FFFFFFFC0
001FFFFFFF40
001FFFFFF900
001FFFFE9000
ENDCHAR
STARTCHAR afii10045
ENCODING 1067
SWIDTH 905 0
DWIDTH 29 0
BBX 23 23 3 0
BITMAP
FF8000000BFC
FF8000000BFC
FF8000000BFC
FF8000000BFC
FF8000000BFC
FF8000000BFC
FF8000000BFC
FF8000000BFC
FF8000000BFC
FFFFE4000BFC
FFFFFF800BFC
FFFFFFE00BFC
FFFFFFF80BFC
FF806FFC0BFC
FF800BFD0BFC
FF8007FD0BFC
FF8007FD0BFC
FF800BFD0BFC
FF806FFC0BFC
FFFFFFF80BFC
FFFFFFE00BFC
FFFFFF800BFC
FFFFE4000BFC
ENDCHAR
STARTCHAR afii10046
ENCODING 1068
SWIDTH 638 0
DWIDTH 20 0
BBX 16 23 3 0
BITMAP
FF800000
FF800000
FF800000
FF800000
FF800000
FF800000
FF800000
FF800000
FF800000
FFFFE900
FFFFFF90
FFFFFFF4
FFFFFFFC
FF805FFE
FF8007FE
FF8003FF
FF8003FF
FF8007FE
FF806FFE
FFFFFFFC
FFFFFFF4
FFFFFFD0
FFFFE900
ENDCHAR
STARTCHAR afii10047
ENCODING 1069
SWIDTH 663 0
DWIDTH 21 0
BBX 19 23 1 0
BITMAP
06BFF90000
7FFFFFE000
BFFFFFF800
3FFFFFFF00
2F901BFF80
140001FFC0
0000007FE0
0000003FF0
0000002FF0
02FFFFFFF4
02FFFFFFF4
02FFFFFFF4
02FFFFFFF4
0000002FF4
0000003FF0
0000007FF0
000000BFE0
000002FFC0
79401BFF80
7FFFFFFF00
7FFFFFF800
7FFFFFE000
06BFF90000
ENDCHAR
STARTCHAR afii10048
ENCODING 1070
SWIDTH 1069 0
DWIDTH 34 0
BBX 30 23 3 0
BITMAP
FF800001BFE90000
FF80002FFFFF9000
FF8000BFFFFFF400
FF8002FFFFFFFC00
FF8007FF906FFE00
FF800FFE0007FF40
FF801FFC0002FF80
FF802FF80001FFC0
FF802FF40000FFC0
FFFFFFF40000BFD0
FFFFFFF00000BFD0
FFFFFFF00000BFD0
FFFFFFF00000BFD0
FF803FF40000BFD0
FF802FF40000FFC0
FF802FF80001FFC0
FF801FFC0002FF80
FF800FFE0007FF40
FF8007FF906FFE00
FF8002FFFFFFFC00
FF8000BFFFFFF400
FF80002FFFFF9000
FF800001BFE90000
ENDCHAR
STARTCHAR afii10049
ENCODING 1071
SWIDTH 665 0
DWIDTH 21 0
BBX 19 23 0 0
BITMAP
0006BFFFF4
007FFFFFF4
01FFFFFFF4
03FFFFFFF4
07FF901FF4
0BFE001FF4
0BFD001FF4
0BFD001FF4
07FE001FF4
03FF901FF4
01FFFFFFF4
00BFFFFFF4
001FFFFFF4
001FFFFFF4
002FF41FF4
007FE01FF4
00FFC01FF4
02FF401FF4
07FF001FF4
0FFD001FF4
2FF8001FF4
7FF0001FF4
BFE0001FF4
ENDCHAR
STARTCHAR afii10065
ENCODING 1072
SWIDTH 604 0
DWIDTH 19 0
BBX 16 17 1 0
BITMAP
006FFE40
0BFFFFF0
0BFFFFFC
03FAAFFD
014007FE
000003FF
000002FF
006BFFFF
0BFFFFFF
3FFFEBFF
7FF402FF
BFD003FF
BFD00BFF
7FFABFFF
3FFFFEFF
1FFFF4FF
06FF80BF
ENDCHAR
STARTCHAR afii10066
ENCODING 1073
SWIDTH 622 0
DWIDTH 20 0
BBX 18 24 1 0
BITMAP
0000016AC0
0001BFFFC0
002FFFFFD0
00FFFFFFD0
03FFFFA940
0BFF900000
1FF8000000
2FF0000000
3FE1BF9000
7FD7FFFD00
7FEFFFFF00
7FFFABFF80
BFF801FFC0
BFE000BFD0
BFD000BFD0
7FD0007FD0
7FE0007FD0
3FE000BFD0
2FF400FFC0
1FFD02FF80
0BFFFFFF40
03FFFFFD00
00BFFFF400
001BFE4000
ENDCHAR
STARTCHAR afii10067
ENCODING 1074
SWIDTH 639 0
DWIDTH 20 0
BBX 17 17 2 0
BITMAP
BFFFFF9000
BFFFFFFD00
BFFFFFFF00
BFE55BFF40
BFD001FF80
BFD001FF40
BFD007FF00
BFFFFFFD00
BFFFFFE400
BFFFFFFE00
BFD556FF80
BFD000FFC0
BFD000FFC0
BFD557FFC0
BFFFFFFF40
BFFFFFFE00
BFFFFF9000
ENDCHAR
STARTCHAR afii10068
ENCODING 1075
SWIDTH 478 0
DWIDTH 15 0
BBX 13 17 2 0
BITMAP
BFFFFF80
BFFFFF80
BFFFFF80
BFEAAA40
BFD00000
BFD00000
BFD00000
BFD00000
BFD00000
BFD00000
BFD00000
BFD00000
BFD00000
BFD00000
BFD00000
BFD00000
BFD00000
ENDCHAR
STARTCHAR afii10069
ENCODING 1076
SWIDTH 664 0
DWIDTH 21 0
BBX 21 23 0 -6
BITMAP
001FFFFFF400
001FFFFFF400
001FFFFFF400
002FFAAFF400
002FE02FF400
003FE02FF400
007FD02FF400
007FC02FF400
00BFC02FF400
00FF802FF400
02FF402FF400
03FF002FF400
07FD002FF400
5FFE556FF940
BFFFFFFFFF80
BFFFFFFFFF80
BFFFFFFFFF80
BF800000BF80
BF800000BF80
BF800000BF80
BF800000BF80
BF800000BF80
BF800000BF80
ENDCHAR
STARTCHAR afii10070
ENCODING 1077
SWIDTH 590 0
DWIDTH 19 0
BBX 17 17 1 0
BITMAP
001BFE4000
01FFFFE000
0BFFFFF800
1FFE6FFD00
2FF402FF00
3FE001FF40
7FD000FF40
7FFFFFFF80
BFFFFFFF80
7FFFFFFF80
7FD5555500
3FE0000000
2FF4000500
1FFFAABE00
07FFFFFE00
01FFFFFE00
001BFFA400
ENDCHAR
STARTCHAR afii10072
ENCODING 1078
SWIDTH 873 0
DWIDTH 28 0
BBX 28 17 0 0
BITMAP
3FF001FF400FFC
1FF801FF402FF4
07FD01FF407FD0
02FF41FF41FF80
00BFC1FF43FE00
003FE1FF4BFC00
001FF5FF5FF400
0007FDFF7FD000
0007FEFFBFD000
000FFDFF7FF000
002FF1FF5FF800
00BFD1FF47FE00
01FF81FF42FF40
07FE01FF40BFD0
0FFC01FF403FF0
2FF401FF401FF8
BFD001FF400BFE
ENDCHAR
STARTCHAR afii10073
ENCODING 1079
SWIDTH 555 0
DWIDTH 18 0
BBX 16 17 1 0
BITMAP
06BFF900
7FFFFFD0
3FFFFFF4
2FEAAFFC
140007FC
000007FC
00001FF8
00FFFFE0
00FFFF40
00FFFFE4
00556FFC
000007FD
A4000BFE
BFAABFFD
BFFFFFF8
BFFFFFD0
1AFFE900
ENDCHAR
STARTCHAR afii10074
ENCODING 1080
SWIDTH 720 0
DWIDTH 23 0
BBX 19 17 2 0
BITMAP
BFC000BFF8
BFC001FFF8
BFC003FFF8
BFC00BFFF8
BFC01FFFF8
BFC03FFFF8
BFC0BFDFF8
BFC1FF8FF8
BFC3FF0FF8
BFCBFD0FF8
BFDFF80FF8
BFFFF00FF8
BFFFD00FF8
BFFF800FF8
BFFF000FF8
BFFD000FF8
BFF8000FF8
ENDCHAR
STARTCHAR afii10075
ENCODING 1081
SWIDTH 720 0
DWIDTH 23 0
BBX 19 25 2 0
BITMAP
0FF4007FC0
0BF400BFC0
0BFC01FF80
03FFABFF00
01FFFFF800
001BFF9000
0000000000
0000000000
BFC000BFF8
BFC001FFF8
BFC003FFF8
BFC00BFFF8
BFC01FFFF8
BFC03FFFF8
BFC0BFDFF8
BFC1FF8FF8
BFC3FF0FF8
BFCBFD0FF8
BFDFF80FF8
BFFFF00FF8
BFFFD00FF8
BFFF800FF8
BFFF000FF8
BFFD000FF8
BFF8000FF8
ENDCHAR
STARTCHAR afii10076
ENCODING 1082
SWIDTH 619 0
DWIDTH 20 0
BBX 18 17 2 0
BITMAP
BFD001FF80
BFD007FF00
BFD00FFC00
BFD02FF400
BFD0BFD000
BFD1FF8000
BFD7FE0000
BFDFF80000
BFEFF80000
BFDBFD0000
BFD3FF4000
BFD1FFD000
BFD07FF000
BFD01FF800
BFD00BFE00
BFD002FF80
BFD000FFD0
ENDCHAR
STARTCHAR afii10077
ENCODING 1083
SWIDTH 645 0
DWIDTH 21 0
BBX 18 17 0 0
BITMAP
003FFFFFF0
007FFFFFF0
007FFFFFF0
007FEABFF0
007FC02FF0
00BF802FF0
00BF802FF0
00FF802FF0
00FF402FF0
01FF402FF0
02FF002FF0
03FF002FF0
0BFE002FF0
FFFD002FF0
FFF8002FF0
FFF0002FF0
BF80002FF0
ENDCHAR
STARTCHAR afii10078
ENCODING 1084
SWIDTH 844 0
DWIDTH 27 0
BBX 23 17 2 0
BITMAP
BFFD0001FFF8
BFFE0002FFF8
BFFF0003FFF8
BFFF8007FFF8
BFEFC00FEFF8
BFEFD01FEFF8
BFDFE02FDFF8
BFCFF03FCFF8
BFCBF47F8FF8
BFC7F8BF4FF8
BFC3FCFF0FF8
BFC1FEFD0FF8
BFC0FFFC0FF8
BFC0BFF80FF8
BFC07FF40FF8
BFC02FE00FF8
BFC01FD00FF8
ENDCHAR
STARTCHAR afii10079
ENCODING 1085
SWIDTH 662 0
DWIDTH 21 0
BBX 17 17 2 0
BITMAP
BFD000FF80
BFD000FF80
BFD000FF80
BFD000FF80
BFD000FF80
BFD000FF80
BFD000FF80
BFFFFFFF80
BFFFFFFF80
BFFFFFFF80
BFEAAAFF80
BFD000FF80
BFD000FF80
BFD000FF80
BFD000FF80
BFD000FF80
BFD000FF80
ENDCHAR
STARTCHAR afii10080
ENCODING 1086
SWIDTH 619 0
DWIDTH 20 0
BBX 18 17 1 0
BITMAP
001BFE4000
01FFFFF400
0BFFFFFD00
1FFFFFFF00
2FF802FF80
3FF000FFC0
7FE000BFD0
7FD000BFD0
BFD000BFD0
BFD000BFD0
7FE000BFD0
3FF000FFC0
2FF802FF80
1FFFFFFF00
07FFFFFD00
01FFFFF400
001BFE4000
ENDCHAR
STARTCHAR afii10081
ENCODING 1087
SWIDTH 651 0
DWIDTH 21 0
BBX 17 17 2 0
BITMAP
BFFFFFFF40
BFFFFFFF40
BFFFFFFF40
BFEAAAFF40
BFD001FF40
BFD001FF40
BFD001FF40
BFD001FF40
BFD001FF40
BFD001FF40
BFD001FF40
BFD001FF40
BFD001FF40
BFD001FF40
BFD001FF40
BFD001FF40
BFD001FF40
ENDCHAR
STARTCHAR afii10082
ENCODING 1088
SWIDTH 632 0
DWIDTH 20 0
BBX 17 25 2 -8
BITMAP
BF81BF8000
BF8BFFF400
BFEFFFFD00
BFFFFFFE00
BFF807FF40
BFE002FF40
BFD001FF80
BFD000FF80
BFD000FF80
BFD000FF80
BFD001FF80
BFE002FF40
BFF807FF00
BFFFFFFE00
BFFFFFFC00
BFDFFFF400
BFD2BF8000
BFD0000000
BFD0000000
BFD0000000
BFD0000000
BFD0000000
BFD0000000
BFD0000000
BFD0000000
ENDCHAR
STARTCHAR afii10083
ENCODING 1089
SWIDTH 514 0
DWIDTH 16 0
BBX 15 17 1 0
BITMAP
001BFE90
01FFFFF4
0BFFFFF0
1FFFFFE0
2FF80190
3FF00000
7FE00000
7FD00000
BFD00000
BFD00000
7FE00000
7FF00000
3FF801B0
2FFFFFF0
0BFFFFF0
02FFFFE0
006BFE40
ENDCHAR
STARTCHAR afii10084
ENCODING 1090
SWIDTH 553 0
DWIDTH 18 0
BBX 17 17 0 0
BITMAP
7FFFFFFFC0
7FFFFFFFC0
7FFFFFFFC0
2AABFEAA80
000BFD0000
000BFD0000
000BFD0000
000BFD0000
000BFD0000
000BFD0000
000BFD0000
000BFD0000
000BFD0000
000BFD0000
000BFD0000
000BFD0000
000BFD0000
ENDCHAR
STARTCHAR afii10085
ENCODING 1091
SWIDTH 568 0
DWIDTH 18 0
BBX 18 25 0 -8
BITMAP
BFD0003FF0
7FE0007FE0
3FF000BFD0
2FF400FFC0
1FF801FF40
0BFC02FF00
07FD03FE00
03FE07FD00
02FF0BFC00
00FF4FF800
00BF9FF400
007FEFF000
003FFFD000
001FFFC000
000FFF8000
000BFF4000
0007FF0000
0007FE0000
000BFD0000
001FF80000
007FF40000
3FFFE00000
3FFFC00000
3FFF000000
2FE4000000
ENDCHAR
STARTCHAR afii10086
ENCODING 1092
SWIDTH 813 0
DWIDTH 26 0
BBX 24 32 1 -8
BITMAP
00000FF40000
00000FF40000
00000FF40000
00000FF40000
00000FF40000
00000FF40000
00000FF40000
0006FFFE9000
00BFFFFFFE00
07FFFFFFFF80
0FFFEFFBFFF0
2FFD0FF47FF8
3FF40FF41FFC
7FE00FF40BFD
7FD00FF407FE
BFD00FF407FE
7FD00FF407FE
7FE00FF40BFD
3FF40FF41FFC
2FFD0FF47FF8
0BFFEFFBFFF0
02FFFFFFFFC0
007FFFFFFE00
0006BFFF9000
00000FF40000
00000FF40000
00000FF40000
00000FF40000
00000FF40000
00000FF40000
00000FF40000
00000FF40000
ENDCHAR
STARTCHAR afii10087
ENCODING 1093
SWIDTH 578 0
DWIDTH 19 0
BBX 18 17 0 0
BITMAP
7FF400BFE0
2FF801FFC0
0BFD03FF40
07FF0BFE00
02FF9FFC00
00BFFFF400
007FFFE000
001FFFC000
000FFF8000
002FFFD000
007FFFF000
00FFEFF800
02FF4FFD00
07FE07FF00
1FFD02FF80
2FF800FFD0
BFF0007FF0
ENDCHAR
STARTCHAR afii10088
ENCODING 1094
SWIDTH 687 0
DWIDTH 22 0
BBX 20 23 2 -6
BITMAP
BFD000BFC0
BFD000BFC0
BFD000BFC0
BFD000BFC0
BFD000BFC0
BFD000BFC0
BFD000BFC0
BFD000BFC0
BFD000BFC0
BFD000BFC0
BFD000BFC0
BFD000BFC0
BFD000BFC0
BFEAAAFFD5
BFFFFFFFFE
BFFFFFFFFE
BFFFFFFFFE
00000002FE
00000002FE
00000002FE
00000002FE
00000002FE
00000002FE
ENDCHAR
STARTCHAR afii10089
ENCODING 1095
SWIDTH 655 0
DWIDTH 21 0
BBX 17 17 2 0
BITMAP
FF8001FF80
FF8001FF80
FF8001FF80
FF8001FF80
FF8001FF80
FF8001FF80
FF8001FF80
FFC002FF80
BFE9AFFF80
7FFFFFFF80
2FFFFEFF80
06FF91FF80
000001FF80
000001FF80
000001FF80
000001FF80
000001FF80
ENDCHAR
STARTCHAR afii10090
ENCODING 1096
SWIDTH 969 0
DWIDTH 31 0
BBX 27 17 2 0
BITMAP
BFD003FF001FF8
BFD003FF001FF8
BFD003FF001FF8
BFD003FF001FF8
BFD003FF001FF8
BFD003FF001FF8
BFD003FF001FF8
BFD003FF001FF8
BFD003FF001FF8
BFD003FF001FF8
BFD003FF001FF8
BFD003FF001FF8
BFD003FF001FF8
BFEAABFFAAAFF8
BFFFFFFFFFFFF8
BFFFFFFFFFFFF8
BFFFFFFFFFFFF8
ENDCHAR
STARTCHAR afii10091
ENCODING 1097
SWIDTH 984 0
DWIDTH 32 0
BBX 29 23 2 -6
BITMAP
BFD003FF001FF800
BFD003FF001FF800
BFD003FF001FF800
BFD003FF001FF800
BFD003FF001FF800
BFD003FF001FF800
BFD003FF001FF800
BFD003FF001FF800
BFD003FF001FF800
BFD003FF001FF800
BFD003FF001FF800
BFD003FF001FF800
BFD003FF001FF800
BFEAABFFAAAFF940
BFFFFFFFFFFFFFC0
BFFFFFFFFFFFFFC0
BFFFFFFFFFFFFFC0
0000000000007FC0
0000000000007FC0
0000000000007FC0
0000000000007FC0
0000000000007FC0
0000000000007FC0
ENDCHAR
STARTCHAR afii10092
ENCODING 1098
SWIDTH 709 0
DWIDTH 23 0
BBX 22 17 0 0
BITMAP
FFFFF4000000
FFFFF4000000
FFFFF4000000
AAAFF4000000
001FF4000000
001FF4000000
001FF4000000
001FFFFFA400
001FFFFFFF40
001FFFFFFFC0
001FF956FFD0
001FF4007FE0
001FF4007FE0
001FF956FFD0
001FFFFFFF80
001FFFFFFE00
001FFFFFA400
ENDCHAR
STARTCHAR afii10093
ENCODING 1099
SWIDTH 850 0
DWIDTH 27 0
BBX 23 17 2 0
BITMAP
BFD000000FF8
BFD000000FF8
BFD000000FF8
BFD000000FF8
BFD000000FF8
BFD000000FF8
BFD000000FF8
BFFFFA400FF8
BFFFFFE00FF8
BFFFFFF80FF8
BFD56FFD0FF8
BFD007FD0FF8
BFD00BFD0FF8
BFD56FFC0FF8
BFFFFFF80FF8
BFFFFFE00FF8
BFFFFA400FF8
ENDCHAR
STARTCHAR afii10094
ENCODING 1100
SWIDTH 613 0
DWIDTH 20 0
BBX 17 17 2 0
BITMAP
BFD0000000
BFD0000000
BFD0000000
BFD0000000
BFD0000000
BFD0000000
BFD0000000
BFFFFE9000
BFFFFFF800
BFFFFFFF00
BFD55BFF40
BFD001FF40
BFD001FF40
BFD55BFF40
BFFFFFFE00
BFFFFFF800
BFFFFE9000
ENDCHAR
STARTCHAR afii10095
ENCODING 1101
SWIDTH 512 0
DWIDTH 16 0
BBX 14 17 1 0
BITMAP
1AFF9000
BFFFFD00
7FFFFF40
2FABFFC0
1400FFD0
00007FE0
00003FE0
0BFFFFF0
0BFFFFF0
0BFFFFF0
01557FE0
00007FE0
9000FFD0
FEABFF80
FFFFFF00
FFFFF800
1BFF9000
ENDCHAR
STARTCHAR afii10096
ENCODING 1102
SWIDTH 876 0
DWIDTH 28 0
BBX 25 17 2 0
BITMAP
BFD0002BFA0000
BFD001FFFFD000
BFD00BFFFFF800
BFD01FFFFFFD00
BFD03FF40BFF00
BFD07FE002FF40
BFD07FD001FF40
BFFFFFD001FF80
BFFFFFD001FF80
BFFFFFD001FF80
BFEABFD001FF40
BFD07FE002FF40
BFD03FF407FF00
BFD02FFFFFFD00
BFD00FFFFFF800
BFD002FFFFE000
BFD0006FFA0000
ENDCHAR
STARTCHAR afii10097
ENCODING 1103
SWIDTH 592 0
DWIDTH 19 0
BBX 17 17 0 0
BITMAP
006FFFFF40
02FFFFFF40
0BFFFFFF40
1FFE56FF40
2FF401FF40
2FF001FF40
2FF401FF40
1FFD01FF40
0FFFFFFF40
07FFFFFF40
00BFFFFF40
00BFD5FF40
02FF41FF40
07FE01FF40
0FF801FF40
2FF401FF40
BFD001FF40
ENDCHAR
STARTCHAR uni0450
ENCODING 1104
SWIDTH 590 0
DWIDTH 19 0
BBX 17 24 1 0
BITMAP
03FF800000
00BFD00000
002FF00000
0007FC0000
0001BE0000
0000000000
0000000000
001BFE4000
01FFFFE000
0BFFFFF800
1FFE6FFD00
2FF402FF00
3FE001FF40
7FD000FF40
7FFFFFFF80
BFFFFFFF80
7FFFFFFF80
7FD5555500
3FE0000000
2FF4000500
1FFFAABE00
07FFFFFE00
01FFFFFE00
001BFFA400
ENDCHAR
STARTCHAR afii10071
ENCODING 1105
SWIDTH 590 0
DWIDTH 19 0
BBX 17 24 1 0
BITMAP
00FD0BE000
02FE1FF000
02FE1FF000
00B80BD000
0000000000
0000000000
0000000000
001BFE4000
01FFFFE000
0BFFFFF800
1FFE6FFD00
2FF402FF00
3FE001FF40
7FD000FF40
7FFFFFFF80
BFFFFFFF80
7FFFFFFF80
7FD5555500
3FE0000000
2FF4000500
1FFFAABE00
07FFFFFE00
01FFFFFE00
001BFFA400
ENDCHAR
STARTCHAR afii10099
ENCODING 1106
SWIDTH 657 0
DWIDTH 21 0
BBX 19 32 0 -8
BITMAP
0BFD000000
0BFD000000
FFFFFF4000
FFFFFF4000
FFFFFF4000
0BFD000000
0BFD000000
0BFD1BF900
0BFCBFFF80
0BFEFFFFE0
0BFFFFFFF0
0BFF807FF4
0BFF001FF8
0BFE001FF8
0BFD000FF8
0BFD000FF8
0BFD000FF8
0BFD000FF8
0BFD000FF8
0BFD000FF8
0BFD000FF8
0BFD000FF8
0BFD000FF8
0BFD000FF8
0000000FF8
0000000FF8
0000001FF8
0000002FF4
00000FFFF4
00000FFFE0
00000FFFC0
00000BFE00
ENDCHAR
STARTCHAR afii10100
ENCODING 1107
SWIDTH 478 0
DWIDTH 15 0
BBX 13 24 2 0
BITMAP
0003FF40
000BFD00
002FF400
007F8000
01FD0000
00000000
00000000
BFFFFF80
BFFFFF80
BFFFFF80
BFEAAA40
BFD00000
BFD00000
BFD00000
BFD00000
BFD00000
BFD00000
BFD00000
BFD00000
BFD00000
BFD00000
BFD00000
BFD00000
BFD00000
ENDCHAR
STARTCHAR afii10101
ENCODING 1108
SWIDTH 523 0
DWIDTH 17 0
BBX 15 17 1 0
BITMAP
002BFE90
02FFFFF8
0BFFFFF4
1FFEABE0
3FF40050
7FE00000
7FE00000
7FFFFF00
BFFFFF00
BFFFFF00
7FE55400
7FE00000
3FF40024
1FFEABF4
0BFFFFF4
02FFFFF4
001BFE90
ENDCHAR
STARTCHAR afii10102
ENCODING 1109
SWIDTH 497 0
DWIDTH 16 0
BBX 14 17 1 0
BITMAP
01BFE900
1FFFFFD0
3FFFFFC0
7FFABF80
BFD00640
7FE00000
7FFE4000
2FFFF800
07FFFF40
006FFFC0
0006FFE0
00007FE0
64003FE0
BFAAFFD0
BFFFFFC0
BFFFFE00
1AFFA400
ENDCHAR
STARTCHAR afii10103
ENCODING 1110
SWIDTH 305 0
DWIDTH 10 0
BBX 6 24 2 0
BITMAP
2F80
BFD0
BFD0
7FD0
1A40
0000
0000
BFD0
BFD0
BFD0
BFD0
BFD0
BFD0
BFD0
BFD0
BFD0
BFD0
BFD0
BFD0
BFD0
BFD0
BFD0
BFD0
BFD0
ENDCHAR
STARTCHAR afii10104
ENCODING 1111
SWIDTH 305 0
DWIDTH 10 0
BBX 12 24 -1 0
BITMAP
2F42F8
7FC3FD
7FC3FD
2F41F8
000000
000000
000000
02FF40
02FF40
02FF40
02FF40
02FF40
02FF40
02FF40
02FF40
02FF40
02FF40
02FF40
02FF40
02FF40
02FF40
02FF40
02FF40
02FF40
ENDCHAR
STARTCHAR afii10105
ENCODING 1112
SWIDTH 305 0
DWIDTH 10 0
BBX 10 32 -2 -8
BITMAP
002F80
00BFD0
00BFD0
007FD0
001A40
000000
000000
00BFD0
00BFD0
00BFD0
00BFD0
00BFD0
00BFD0
00BFD0
00BFD0
00BFD0
00BFD0
00BFD0
00BFD0
00BFD0
00BFD0
00BFD0
00BFD0
00BFD0
00BFD0
00BFD0
00BFD0
01FFC0
FFFFC0
FFFF40
FFFE00
BFE400
ENDCHAR
STARTCHAR afii10106
ENCODING 1113
SWIDTH 888 0
DWIDTH 28 0
BBX 28 17 0 0
BITMAP
003FFFFFD00000
007FFFFFD00000
007FFFFFD00000
007FEABFD00000
007FC07FD00000
00BF807FD00000
00BF807FD00000
00FF807FFFFA40
00FF407FFFFFE0
01FF407FFFFFF8
02FF007FE56FFC
03FF007FD00BFD
0BFE007FD00BFD
FFFD007FE56FFC
FFF8007FFFFFF8
FFF0007FFFFFE0
BF80007FFFFA40
ENDCHAR
STARTCHAR afii10107
ENCODING 1114
SWIDTH 888 0
DWIDTH 28 0
BBX 26 17 2 0
BITMAP
BFD007FD000000
BFD007FD000000
BFD007FD000000
BFD007FD000000
BFD007FD000000
BFD007FD000000
BFD007FD000000
BFFFFFFFFFA400
BFFFFFFFFFFE00
BFFFFFFFFFFF80
BFEAABFE56FFC0
BFD007FD00BFD0
BFD007FD00BFD0
BFD007FE56FFC0
BFD007FFFFFF80
BFD007FFFFFE00
BFD007FFFFA400
ENDCHAR
STARTCHAR afii10108
ENCODING 1115
SWIDTH 657 0
DWIDTH 21 0
BBX 19 24 0 0
BITMAP
0BFD000000
0BFD000000
FFFFFF4000
FFFFFF4000
FFFFFF4000
0BFD000000
0BFD000000
0BFD1BF900
0BFCBFFF80
0BFEFFFFE0
0BFFFFFFF0
0BFF807FF4
0BFF002FF8
0BFE001FF8
0BFD000FF8
0BFD000FF8
0BFD000FF8
0BFD000FF8
0BFD000FF8
0BFD000FF8
0BFD000FF8
0BFD000FF8
0BFD000FF8
0BFD000FF8
ENDCHAR
STARTCHAR afii10109
ENCODING 1116
SWIDTH 619 0
DWIDTH 20 0
BBX 18 24 2 0
BITMAP
00002FF800
0000BFE000
0001FF4000
0007FD0000
000FE00000
0000000000
0000000000
BFD001FF80
BFD007FF00
BFD00FFC00
BFD02FF400
BFD0BFD000
BFD1FF8000
BFD7FE0000
BFDFF80000
BFEFF80000
BFDBFD0000
BFD3FF4000
BFD1FFD000
BFD07FF000
BFD01FF800
BFD00BFE00
BFD002FF80
BFD000FFD0
ENDCHAR
STARTCHAR uni045D
ENCODING 1117
SWIDTH 720 0
DWIDTH 23 0
BBX 19 24 2 0
BITMAP
01FFC00000
007FE00000
001FF80000
0002FD0000
00007F4000
0000000000
0000000000
BFC000BFF8
BFC001FFF8
BFC003FFF8
BFC00BFFF8
BFC01FFFF8
BFC03FFFF8
BFC0BFDFF8
BFC1FF8FF8
BFC3FF0FF8
BFCBFD0FF8
BFDFF80FF8
BFFFF00FF8
BFFFD00FF8
BFFF800FF8
BFFF000FF8
BFFD000FF8
BFF8000FF8
ENDCHAR
STARTCHAR afii10110
ENCODING 1118
SWIDTH 568 0
DWIDTH 18 0
BBX 18 33 0 -8
BITMAP
1FF000BF80
1FF000FF40
0FF802FF00
07FFAFFE00
02FFFFF800
006BFE8000
0000000000
0000000000
BFD0003FF0
7FE0007FE0
3FF000BFD0
2FF400FFC0
1FF801FF40
0BFC02FF00
07FD03FE00
03FE07FD00
02FF0BFC00
00FF4FF800
00BF9FF400
007FEFF000
003FFFD000
001FFFC000
000FFF8000
000BFF4000
0007FF0000
0007FE0000
000BFD0000
001FF80000
007FF40000
3FFFE00000
3FFFC00000
3FFF000000
2FE4000000
ENDCHAR
STARTCHAR afii10193
ENCODING 1119
SWIDTH 671 0
DWIDTH 22 0
BBX 17 23 2 -6
BITMAP
BFD000BFC0
BFD000BFC0
BFD000BFC0
BFD000BFC0
BFD000BFC0
BFD000BFC0
BFD000BFC0
BFD000BFC0
BFD000BFC0
BFD000BFC0
BFD000BFC0
BFD000BFC0
BFD000BFC0
BFEAAAFFC0
BFFFFFFFC0
BFFFFFFFC0
BFFFFFFFC0
0007FC0000
0007FC0000
0007FC0000
0007FC0000
0007FC0000
0007FC0000
ENDCHAR
STARTCHAR uni0460
ENCODING 1120
SWIDTH 1087 0
DWIDTH 35 0
BBX 31 23 2 0
BITMAP
001BF90001BF9000
01FFFFD01FFFFD00
07FFFFD01FFFFF40
1FFFFF800FFFFFC0
2FF806400641FFE0
7FF0000000003FF0
BFD0000000002FF4
BFC0000000001FF8
FF80000000000FF8
FF80000000000FFC
FF80000000000FFC
FF80000000000FFC
FF80003FE0000FFC
FFC0003FE0000FF8
BFC0003FE0001FF8
BFD0003FE0002FF4
7FF0003FE0003FF0
3FF8003FE000FFE0
1FFF95FFF95BFFD0
0BFFFFFFFFFFFF80
02FFFFFFFFFFFE00
00BFFFF4BFFFF800
001AFE801BFE4000
ENDCHAR
STARTCHAR uni0461
ENCODING 1121
SWIDTH 884 0
DWIDTH 28 0
BBX 27 17 0 0
BITMAP
BFD00FFD000BFC
7FE00BFE000BFC
3FF007FF000BFC
2FF403FF400FFC
1FF802FF800FF8
0FF801FFC00FF8
0BFC02FFD01FF4
07FD03FFE02FF4
02FE07FFF03FF0
01FF0BFFF03FE0
00FF5FFFF4BFD0
00BFAFEFF8FF80
007FBFDBFEFF40
003FFF83FFFE00
002FFF42FFFC00
001FFF01FFF000
000FFD00BFD000
ENDCHAR
STARTCHAR uni0462
ENCODING 1122
SWIDTH 672 0
DWIDTH 22 0
BBX 20 24 0 0
BITMAP
00FF800000
00FF800000
00FF800000
FFFFFFF800
FFFFFFF800
FFFFFFF800
AAFFEAA400
00FF800000
00FF800000
00FF800000
00FFFFE900
00FFFFFFD0
00FFFFFFF4
00FFFFFFFD
00FF801FFE
00FF8007FF
00FF8003FF
00FF8003FF
00FF8007FF
00FF801FFE
00FFFFFFFD
00FFFFFFF4
00FFFFFFD0
00FFFFE900
ENDCHAR
STARTCHAR uni0463
ENCODING 1123
SWIDTH 662 0
DWIDTH 21 0
BBX 20 20 0 0
BITMAP
00FF800000
00FF800000
00FF800000
FFFFFFF400
FFFFFFF400
FFFFFFF400
AAFFEAA400
00FF800000
00FF800000
00FF800000
00FFFFFE40
00FFFFFFF4
00FFFFFFFD
00FFD55BFF
00FF8002FF
00FF8003FF
00FFD55BFE
00FFFFFFFD
00FFFFFFF4
00FFFFFE40
ENDCHAR
STARTCHAR uni0464
ENCODING 1124
SWIDTH 950 0
DWIDTH 30 0
BBX 26 23 3 0
BITMAP
FF800001BFE900
FF80002FFFFFE0
FF8001FFFFFFF0
FF8007FFFFFFE0
FF801FFF501BC0
FF802FF8000040
FF807FF0000000
FF80BFD0000000
FF80BFC0000000
FFFFFFFFFFF800
FFFFFFFFFFF800
FFFFFFFFFFF800
FFFFFFFFFFF800
FF80FFC0000000
FF80FFD0000000
FF80BFE0000000
FF807FF0000000
FF803FFC000000
FF801FFF9016D0
FF800BFFFFFFD0
FF8002FFFFFFD0
FF80007FFFFFD0
FF800006BFE900
ENDCHAR
STARTCHAR uni0465
ENCODING 1125
SWIDTH 799 0
DWIDTH 26 0
BBX 23 17 2 0
BITMAP
BFD0002BFE40
BFD002FFFFF4
BFD00BFFFFF0
BFD01FFEABD0
BFD02FF80040
BFD03FF00000
BFD07FE00000
BFFFFFFFFF40
BFFFFFFFFF40
BFFFFFFFFF40
BFEABFFAAA00
BFD03FE00000
BFD02FF40014
BFD01FFFAAF4
BFD00BFFFFF4
BFD002FFFFF4
BFD0001BFE90
ENDCHAR
STARTCHAR uni0466
ENCODING 1126
SWIDTH 729 0
DWIDTH 23 0
BBX 24 23 0 0
BITMAP
00007FF80000
0000FFFD0000
0001FFFE0000
0002FEFF0000
0003FCBF4000
0007F87F8000
000BF43FC000
000FF02FD000
002FD00FF000
003FFFFFF400
007FFFFFF800
00BFFFFFFC00
00FFBFFFFD00
01FE1FF2FE00
02FD1FE0FF00
03FC1FE0BF80
0BF81FE07FC0
0FF41FE03FD0
1FF01FE03FE0
2FF01FE02FF0
3FE01FE01FF4
7FD01FE00FF8
BFC01FE00BFD
ENDCHAR
STARTCHAR uni0467
ENCODING 1127
SWIDTH 640 0
DWIDTH 20 0
BBX 21 17 0 0
BITMAP
0003FFD00000
0007FFE00000
000BFFF40000
000FF7F80000
002FD3FC0000
003FC1FD0000
007F40FF0000
00FFFFFF4000
01FFFFFF8000
02FFFFFFD000
07FDFF5FE000
0BF4BF4FF000
0FF0BF4BF800
1FE0BF47FC00
3FD0BF43FD00
7FC0BF42FE00
BF80BF41FF40
ENDCHAR
STARTCHAR uni0468
ENCODING 1128
SWIDTH 1004 0
DWIDTH 32 0
BBX 29 23 3 0
BITMAP
FF80000BFF800000
FF80000FFFC00000
FF80001FFFD00000
FF80002FEFE00000
FF80007FCFF00000
FF8000BF8BF80000
FF8000FF07FC0000
FF8001FE02FD0000
FF8002FD01FE0000
FFFFFFFEAAFF0000
FFFFFFFFFFFF4000
FFFFFFFFFFFF8000
FFFFFFFFFFFFC000
FF802FE2FE2FE000
FF803FD2FE1FF000
FF807FC2FE0FF400
FF80BF82FE0BF800
FF80FF42FE07FC00
FF82FF02FE03FD00
FF83FE02FE02FE00
FF87FD02FE01FF40
FF8BFC02FE00FF80
FF8FF802FE00BFC0
ENDCHAR
STARTCHAR uni0469
ENCODING 1129
SWIDTH 901 0
DWIDTH 29 0
BBX 27 17 2 0
BITMAP
BF80001FFE0000
BF80003FFF0000
BF80007FFF8000
BF8000BF7FC000
BF8000FF2FD000
BF8001FE1FF000
BF8003FD0FF400
BFFFFFFEAFF800
BFFFFFFFFFFC00
BFFFFFFFFFFE00
BFAABFEBFEFF00
BF803FD7F8FF40
BF807F87F8BFC0
BF80FF47F83FD0
BF81FF07F82FE0
BF83FE07F81FF4
BF87FC07F80FF8
ENDCHAR
STARTCHAR uni046A
ENCODING 1130
SWIDTH 804 0
DWIDTH 26 0
BBX 25 23 0 0
BITMAP
07FFFFFFFFFC00
07FFFFFFFFFC00
03FFFFFFFFF800
01FFFFFFFFF000
00BFD000BFD000
002FF001FF8000
000FF803FE0000
0007FD0BFC0000
0002FF5FF40000
0000BFFFD00000
0002FFFFE40000
001FFFFFFE0000
007FFFFFFFC000
00BFFFFEFFE000
01FF8BFD7FF000
02FF0BFD1FF400
03FE0BFD0FFC00
07FD0BFD0BFD00
0BFC0BFD07FE00
0FF80BFD03FF00
1FF40BFD02FF40
3FF00BFD01FF80
7FE00BFD00FFC0
ENDCHAR
STARTCHAR uni046B
ENCODING 1131
SWIDTH 623 0
DWIDTH 20 0
BBX 20 17 0 0
BITMAP
1FFFFFFFF4
1FFFFFFFF4
0BFFFFFFE0
02FE55BF80
00FF41FF00
007FD7FD00
001FFFF400
002FFFF800
01FFFFFF00
02FFFFFF80
07FDFF7FD0
0BF4FF1FE0
0FE0FF0FF0
1FD0FF0BF4
3FC0FF07F8
7FC0FF03FC
BF80FF02FD
ENDCHAR
STARTCHAR uni046C
ENCODING 1132
SWIDTH 1073 0
DWIDTH 34 0
BBX 31 23 3 0
BITMAP
FF80BFFFFFFFFF80
FF80BFFFFFFFFF80
FF807FFFFFFFFF40
FF802FFFFFFFFE00
FF800BFC000FFC00
FF8003FE002FF400
FF8001FF407FD000
FF80007FC0FF8000
FF80002FE2FE0000
FFFFFFFFFFFC0000
FFFFFFFFFFFE4000
FFFFFFFFFFFFD000
FFFFFFFFFFFFF400
FF801FFEFFEFFD00
FF802FF4FFCBFE00
FF803FE0FFC2FF00
FF80BFD0FFC1FF40
FF80FFC0FFC0FF80
FF81FF80FFC0BFC0
FF82FF40FFC07FD0
FF83FF00FFC03FF0
FF87FE00FFC02FF4
FF8BFD00FFC01FF8
ENDCHAR
STARTCHAR uni046D
ENCODING 1133
SWIDTH 879 0
DWIDTH 28 0
BBX 26 17 2 0
BITMAP
BF80FFFFFFFF80
BF80FFFFFFFF80
BF807FFFFFFF00
BF801FE55BFC00
BF800BF81FF400
BF8002FE7FD000
BFFFFFFFFF8000
BFFFFFFFFF9000
BFFFFFFFFFF400
BFAABFFFFFFC00
BF807FDBF6FE00
BF80BF4BF4FF00
BF80FF0BF4BF40
BF81FE0BF47F80
BF82FD0BF43FC0
BF83FC0BF42FD0
BF87F80BF41FE0
ENDCHAR
STARTCHAR uni046E
ENCODING 1134
SWIDTH 631 0
DWIDTH 20 0
BBX 19 36 0 -8
BITMAP
01FD002F80
00BF01FFC0
003FC3F940
001FEFE000
0007FFC000
006FFFE400
0BFFFFFF40
2FFFFFFFD0
1FFFABFFE0
0B90007FF0
0100002FF0
0000002FF0
0000003FE0
000006FFC0
007FFFFE00
007FFFE400
007FFFFD00
006AFFFFD0
000001BFF0
0000002FF8
0000000FF8
0000000FF8
0000001FF8
000001BFF4
006ABFFFE0
07FFFFFFC0
1FFFFFFE00
3FFFFE9000
7FE4000000
7FD0000000
7FE0000000
3FFAAAA900
2FFFFFFE00
0BFFFFFE00
01BFFFFE00
0000000100
ENDCHAR
STARTCHAR uni046F
ENCODING 1135
SWIDTH 555 0
DWIDTH 18 0
BBX 17 29 0 -8
BITMAP
07F401BE00
02FC07FF00
00BF1FE500
003FFF8000
06BFFF9000
1FFFFFF800
0FFFFFFE00
0BA557FF00
000001FF00
000006FE00
003FFFF800
003FFFD000
003FFFF800
00155BFF00
000001FF40
000000FF80
000002FF40
005AAFFF00
07FFFFFE00
1FFFFFF400
3FFFFA4000
7FD0000000
7F80000000
7F80000000
7FEAAA9000
3FFFFFF400
1FFFFFF400
06FFFFF400
0000001400
ENDCHAR
STARTCHAR uni0470
ENCODING 1136
SWIDTH 875 0
DWIDTH 28 0
BBX 26 23 1 0
BITMAP
7FD003FD007FD0
7FD003FD007FD0
7FD003FD007FD0
7FD003FD007FD0
7FD003FD007FD0
7FD003FD007FD0
7FD003FD007FD0
7FD003FD007FD0
7FD003FD007FD0
3FE003FD00BFC0
3FF003FD00FFC0
2FFD43FD17FF80
0FFFFFFFFFFF00
07FFFFFFFFFD00
01BFFFFFFFE400
001ABFFFEA4000
000003FD000000
000003FD000000
000003FD000000
000003FD000000
000003FD000000
000003FD000000
000003FD000000
ENDCHAR
STARTCHAR uni0471
ENCODING 1137
SWIDTH 836 0
DWIDTH 27 0
BBX 23 32 2 -8
BITMAP
00002FE00000
00002FE00000
00002FE00000
00002FE00000
00002FE00000
00002FE00000
00002FE00000
BF802FE01FF0
BF802FE01FF4
BF802FE00FF4
BF802FE00BF8
BF802FE00BF8
BF802FE007FC
BF802FE007FC
BF802FE007FC
BF802FE007FC
BFC02FE007FC
BFC02FE00BF8
7FD02FE01FF8
3FF42FE07FF0
1FFFBFFBFFE0
0BFFFFFFFF80
01FFFFFFFD00
001AFFFE9000
00002FE00000
00002FE00000
00002FE00000
00002FE00000
00002FE00000
00002FE00000
00002FE00000
00002FE00000
ENDCHAR
STARTCHAR uni0472
ENCODING 1138
SWIDTH 795 0
DWIDTH 25 0
BBX 22 23 2 0
BITMAP
0006BFE50000
007FFFFF9000
02FFFFFFF400
0BFFFFFFFD00
1FFE406FFF00
3FF80007FF40
7FF00001FFC0
BFD00000FFC0
FFC00000BFD0
FFFFFFFFFFD0
FFFFFFFFFFE0
FFFFFFFFFFE0
FFFFFFFFFFE0
FFC00000BFD0
FFD00000BFD0
BFE00000FFC0
7FF00002FFC0
3FF80007FF40
1FFF506FFF00
0BFFFFFFFD00
02FFFFFFF400
007FFFFF8000
0006BFE50000
ENDCHAR
STARTCHAR uni0473
ENCODING 1139
SWIDTH 619 0
DWIDTH 20 0
BBX 18 17 1 0
BITMAP
001BFE4000
01FFFFF400
0BFFFFFD00
1FFFFFFF00
2FF806FF80
3FF000FFC0
7FE000BFD0
7FFFFFFFD0
BFFFFFFFD0
BFFFFFFFD0
7FE555BFD0
3FE000FFC0
2FF802FF80
1FFFFFFF00
07FFFFFD00
01FFFFF400
001BFE4000
ENDCHAR
STARTCHAR uni0474
ENCODING 1140
SWIDTH 716 0
DWIDTH 23 0
BBX 23 23 0 0
BITMAP
FFC000001BE4
7FD00000BFF8
3FE00001FFF8
2FF00002FFF8
1FF40007FF44
0FF8000BFD00
0BFC000FFC00
07FD001FF400
03FE002FF000
02FF003FE000
01FF407FD000
00FF80BFC000
00BF80FF8000
007FC1FF4000
003FD2FF0000
002FE2FE0000
001FF3FD0000
000FF7FC0000
000BFBF80000
0007FFF40000
0003FFF00000
0002FFE00000
0001FFD00000
ENDCHAR
STARTCHAR uni0475
ENCODING 1141
SWIDTH 604 0
DWIDTH 19 0
BBX 20 17 0 0
BITMAP
BFC00006F8
7FD0002FFD
3FE0007FFD
2FF400BFFD
1FF800FF80
0FFC01FF40
07FD02FF00
03FE03FD00
02FF0BFC00
01FF4FF800
00FF9FF400
007FAFE000
003FEFD000
002FFFC000
001FFF8000
000FFF0000
000BFE0000
ENDCHAR
STARTCHAR uni0476
ENCODING 1142
SWIDTH 716 0
DWIDTH 23 0
BBX 23 30 0 0
BITMAP
07FE3FE00000
01FF1FF40000
007F87F80000
001FD1FD0000
0007F02F0000
000000000000
000000000000
FFC000001BE4
7FD00000BFF8
3FE00001FFF8
2FF00002FFF8
1FF40007FF44
0FF8000BFD00
0BFC000FFC00
07FD001FF400
03FE002FF000
02FF003FE000
01FF407FD000
00FF80BFC000
00BF80FF8000
007FC1FF4000
003FD2FF0000
002FE2FE0000
001FF3FD0000
000FF7FC0000
000BFBF80000
0007FFF40000
0003FFF00000
0002FFE00000
0001FFD00000
ENDCHAR
STARTCHAR uni0477
ENCODING 1143
SWIDTH 604 0
DWIDTH 19 0
BBX 20 24 0 0
BITMAP
2FF1FF4000
0BF8BF8000
02FD2FD000
00BE0BF000
002F41F800
0000000000
0000000000
BFC00006F8
7FD0002FFD
3FE0007FFD
2FF400BFFD
1FF800FF80
0FFC01FF40
07FD02FF00
03FE03FD00
02FF0BFC00
01FF4FF800
00FF9FF400
007FAFE000
003FEFD000
002FFFC000
001FFF8000
000FFF0000
000BFE0000
ENDCHAR
STARTCHAR uni0478
ENCODING 1144
SWIDTH 1318 0
DWIDTH 42 0
BBX 40 31 2 -8
BITMAP
0016FFA4000000000000
00BFFFFE400000000000
07FFFFFFD00000000000
0FFFFFFFF40000000000
2FFE41BFFC0000000000
3FF4001FFD0000000000
7FE0000BFE0BFD0003FF
BFD00003FF07FE0007FE
FFC00003FF03FF000BFD
FFC00002FF42FF400FFC
FFC00002FF41FF801FF4
FFC00002FF40BFC02FF0
FFC00002FF407FD03FE0
FFC00002FF403FE07FD0
FFC00003FF002FF0BFC0
BFD00003FF000FF4FF80
7FE0000BFE000BF9FF40
3FF4001FFD0007FEFF00
2FFE41BFF80003FFFD00
0FFFFFFFF40001FFFC00
07FFFFFFD00000FFF800
00BFFFFE400000BFF400
001AFFA40000007FF000
000000000000007FE000
00000000000000BFD000
00000000000001FF8000
00000000000007FF4000
000000000003FFFE0000
000000000003FFFC0000
000000000003FFF00000
000000000002FE400000
ENDCHAR
STARTCHAR uni0479
ENCODING 1145
SWIDTH 1145 0
DWIDTH 37 0
BBX 36 25 1 -8
BITMAP
001BFE401FF8000BFD
01FFFFF40FFC000FFC
0BFFFFFD0BFE001FF8
1FFFFFFF03FF002FF4
2FF802FF82FF403FF0
3FF000FFC1FF807FE0
7FE000BFD0FFC0BFD0
7FD000BFD0BFD0FF80
BFD000BFD03FE1FF40
BFD000BFD02FF2FF00
7FE000BFD01FF7FE00
3FF000FFC00FFBFD00
2FF802FF8007FFFC00
1FFFFFFF0003FFF800
07FFFFFD0002FFF000
01FFFFF40001FFE000
001BFE400000BFD000
000000000000BFC000
000000000001FF8000
000000000002FF4000
00000000000BFE0000
0000000007FFFD0000
0000000007FFF40000
0000000007FFD00000
0000000007FE000000
ENDCHAR
STARTCHAR uni047A
ENCODING 1146
SWIDTH 835 0
DWIDTH 27 0
BBX 23 27 2 -2
BITMAP
00000A400000
00002FD00000
0006FFFA4000
007FFFFFF400
02FFFFFFFD00
0BFFFFFFFF40
1FFF6FDBFFC0
3FF80500FFE0
7FF000007FF0
BFE000002FF4
FFD000001FF8
FFC000001FF8
FFC000000FF8
FFC000000FFC
FFC000000FF8
FFC000001FF8
FFD000001FF8
BFE000002FF4
7FF000007FF0
3FF80100FFE0
1FFF6FDBFFC0
0BFFFFFFFF40
02FFFFFFFD00
007FFFFFF400
0006FFFE4000
00002FD00000
00000A800000
ENDCHAR
STARTCHAR uni047B
ENCODING 1147
SWIDTH 679 0
DWIDTH 22 0
BBX 20 21 1 -2
BITMAP
0000140000
0000FE0000
001BFFE400
01FFFFFE00
07FFFFFFC0
1FFFFFFFE0
2FF8FE2FF4
3FF0141FF8
7FE0000FFC
7FD0000BFD
BFD0000BFD
7FD0000BFD
7FE0000BFC
3FF0000FFC
2FF4692FF4
1FFEFFFFF0
07FFFFFFD0
01FFFFFE40
001BFFE400
0000FE0000
0000680000
ENDCHAR
STARTCHAR uni047C
ENCODING 1148
SWIDTH 1087 0
DWIDTH 35 0
BBX 31 34 2 0
BITMAP
000001BE40000000
000007FFF9400000
00000FFFFFF40000
00000FD6FFF40000
00001F801AF40000
0000001F80000000
0000003FE0000000
0000001BF0000000
00000007E0000000
0000001F80000000
0000002900000000
001BF90001BF9000
01FFFF801FFFFD00
07FFFFC00FFFFF40
1FFFFF800BFFFFC0
2FF806000641FFE0
7FF0000000003FF0
BFD0000000002FF4
BFC0000000001FF8
FF80000000000FF8
FF80000000000FFC
FF80000000000FFC
FF80000000000FFC
FF80000000000FFC
FFC0000000000FF8
BFC0000000001FF8
BFD0000100002FF4
7FE0000740003FF0
3FF8002FD000BFE0
1FFE55FFF957FFD0
0BFFFFFFFFFFFF80
02FFFFFEFFFFFE00
00BFFFF4BFFFF800
001AFE400AFE4000
ENDCHAR
STARTCHAR uni047D
ENCODING 1149
SWIDTH 890 0
DWIDTH 28 0
BBX 26 28 1 0
BITMAP
00002FE4000000
0000BFFF900000
0001FFFFFF0000
0001FD6FFF0000
0001F801AF0000
000002F8000000
000003FE000000
000000BD000000
000002F8000000
00000390000000
00000000000000
006FF901BFA000
03FFFF0BFFFE00
0FFFFE03FFFF40
2FFEAC02EBFFC0
3FF4000000BFD0
7FE00000007FE0
7FE00000003FF0
BFD00000003FF0
BFD00000003FF0
7FD00000003FF0
7FE00000003FF0
7FF00010007FE0
3FF801F801FFD0
1FFFAFFFABFFC0
0BFFFFFFFFFF40
02FFFF9FFFFD00
006BF902FF9000
ENDCHAR
STARTCHAR uni047E
ENCODING 1150
SWIDTH 1087 0
DWIDTH 35 0
BBX 31 29 2 0
BITMAP
00003FFFFFF00000
00003FFFFFE00000
00002E5F97D00000
00000D0702C00000
0000000000000000
0000000000000000
001BF90001BF9000
01FFFF801FFFFD00
07FFFFC00FFFFF40
1FFFFF800BFFFFC0
2FF806000641FFE0
7FF0000000003FF0
BFD0000000002FF4
BFC0000000001FF8
FF80000000000FF8
FF80000000000FFC
FF80000000000FFC
FF80000000000FFC
FF80003FE0000FFC
FFC0003FE0000FF8
BFC0003FE0001FF8
BFD0003FE0002FF4
7FF0003FE0003FF0
3FF8003FF000FFE0
1FFF95FFFD5BFFD0
0BFFFFFFFFFFFF80
02FFFFFEFFFFFE00
00BFFFF4BFFFF800
001AFE400AFE4000
ENDCHAR
STARTCHAR uni047F
ENCODING 1151
SWIDTH 884 0
DWIDTH 28 0
BBX 27 22 0 0
BITMAP
0002FFFFFF4000
0002FFFFFF0000
0001F5BD6E0000
0000A0341D0000
00000000000000
BFD00FFC000BFC
7FE00BFD000BFC
3FF007FE000BFC
2FF403FF000FFC
1FF802FF400FF8
0FF801FF800FF8
07FC01FFC01FF4
03FD02FFD01FF4
02FE07FFE02FF0
01FF0BFFF07FE0
00FF4FFFF4BFC0
00BF9FEFF8FF80
007FBFDBFEFF00
002FFFC7FFFD00
001FFF83FFF800
000FFF42FFE000
000BFE00FFC000
ENDCHAR
STARTCHAR uni0480
ENCODING 1152
SWIDTH 676 0
DWIDTH 22 0
BBX 19 31 2 -8
BITMAP
0001BFF900
002FFFFFE4
01FFFFFFF4
07FFFFFFE0
1FFF901BD0
2FFD000040
7FF4000000
BFE0000000
BFD0000000
FFC0000000
FFC0000000
FFC0000000
FFC0000000
FFC0000000
FFD0000000
BFE0000000
7FF0000000
3FF8000000
1FFF901500
0BFFFFFF40
02FFFFFF40
006FFFFF40
0006BFFF40
000002FF40
000002FF40
000002FF40
000002FF40
000002FF40
000002FF40
000002FF40
000002FF40
ENDCHAR
STARTCHAR uni0481
ENCODING 1153
SWIDTH 523 0
DWIDTH 17 0
BBX 15 25 1 -8
BITMAP
002BFE90
02FFFFF8
0BFFFFF4
1FFFFFF0
3FF80190
7FF00000
7FE00000
7FD00000
BFD00000
BFD00000
7FE00000
7FF00000
3FF80040
1FFFEFD0
0BFFFFD0
01FFFFD0
001BFFD0
0000BFD0
0000BFD0
0000BFD0
0000BFD0
0000BFD0
0000BFD0
0000BFD0
0000BFD0
ENDCHAR
STARTCHAR uni0482
ENCODING 1154
SWIDTH 608 0
DWIDTH 19 0
BBX 16 20 2 0
BITMAP
00000090
000002F0
001007D0
00B90BC0
00BFAF40
001BFE00
0001FF40
0000FFE4
0002F2FE
0007D06D
B40F8004
FF5F4000
2FFE0000
02FE0000
01FFD000
02F7FD00
07D0BD00
0F800400
2F000000
0A000000
ENDCHAR
STARTCHAR uni0483
ENCODING 1155
SWIDTH 557 0
DWIDTH 18 0
BBX 12 6 3 17
BITMAP
000029
15557F
FFFFFF
FFFFFD
FC0000
540000
ENDCHAR
STARTCHAR uni0484
ENCODING 1156
SWIDTH 577 0
DWIDTH 18 0
BBX 14 5 3 19
BITMAP
0006F900
05BFFF40
7FFFFFC0
7FFE5FC0
7E900BD0
ENDCHAR
STARTCHAR uni0485
ENCODING 1157
SWIDTH 577 0
DWIDTH 18 0
BBX 5 6 7 19
BITMAP
2F40
BFC0
BE40
BD00
2F80
06C0
ENDCHAR
STARTCHAR uni0486
ENCODING 1158
SWIDTH 577 0
DWIDTH 18 0
BBX 5 6 7 19
BITMAP
7E40
BFC0
6FC0
0F80
7F00
A400
ENDCHAR
STARTCHAR uni0488
ENCODING 1160
SWIDTH 988 0
DWIDTH 32 0
BBX 31 29 0 -6
BITMAP
0000000680000000
0000003FF4000000
0000007028000000
0000005004000000
001A40000001A400
00FFD000000FFD00
01C0A000001D0A00
0140100000140100
0000000000000000
0000000000000000
0000000000000000
0000000000000000
0690000000000680
2FF4000000003FF4
742C000000007028
1004000000005004
0000000000000000
0000000000000000
0000000000000000
0000000000000000
001A40000001A400
00FFD000000FFD00
01C0A000001D0A00
0140100000140100
0000000000000000
0000000680000000
0000003FF4000000
0000007028000000
0000005004000000
ENDCHAR
STARTCHAR uni0489
ENCODING 1161
SWIDTH 956 0
DWIDTH 31 0
BBX 30 31 0 -7
BITMAP
0000000140000000
0000000380000000
0000000780000000
0000000B40000000
0014000F40000000
002C001F00001000
001E00000002F800
000F4000002FD000
0007C000002E0000
0003400000040000
0000000000000000
0000000000000000
0000000000000000
0000000000000000
7A5000000000B900
2FF000000000BFD0
01B00000000016F0
0000000000000000
0000000000000000
0000000000000000
0000000000000000
0000000000040000
00018000001E0000
000BE000001F4000
007F8000000B8000
00F80007C003C000
0000000B8001D000
0000000B40004000
0000000F00000000
0000001E00000000
0000000400000000
ENDCHAR
STARTCHAR uni048A
ENCODING 1162
SWIDTH 916 0
DWIDTH 29 0
BBX 26 38 3 -7
BITMAP
07FC002FE00000
07FC003FD00000
03FE00BFC00000
01FFEBFF800000
00BFFFFE000000
001AFFA4000000
00000000000000
00000000000000
FF40000BFF4000
FF40001FFF4000
FF40003FFF4000
FF40007FFF4000
FF4000FFFF4000
FF4002FFBF4000
FF4007FEBF4000
FF400FFCBF4000
FF401FF4BF4000
FF403FE0BF4000
FF40BFD0FF4000
FF41FF80FF4000
FF43FF00FF4000
FF47FD00FF4000
FF0FF800FF4000
FF2FF400FF4000
FF7FE000FF4000
FFFFC000FF4000
FFFF4000FF8000
FFFE0000FFFFE0
FFFD0000FFFFD0
FFF80000FFFFC0
FFF00000FFFF80
0000000000BF80
0000000001FF40
0000000002FF00
0000000003FE00
0000000007FE00
000000000FFD00
000000001FFC00
ENDCHAR
STARTCHAR uni048B
ENCODING 1163
SWIDTH 801 0
DWIDTH 26 0
BBX 23 31 2 -6
BITMAP
0FF4007FC000
0BF400BFC000
0BFC01FF4000
03FFAFFF0000
01FFFFF80000
001BFF900000
000000000000
000000000000
BFC000BFF800
BFC001FFF800
BFC003FFF800
BFC00BFFF800
BFC01FFFF800
BFC03FFFF800
BFC0BFDFF800
BFC1FF8FF800
BFC3FF0FF800
BFCBFD0FF800
BFDFF80FF800
BFFFF00FF800
BFFFD00FF800
BFFF800FF954
BFFF000FFFFC
BFFD000FFFF8
BFF8000FFFF8
000000000BF4
000000000FF0
000000001FE0
000000002FE0
000000003FD0
000000007FC0
ENDCHAR
STARTCHAR uni048C
ENCODING 1164
SWIDTH 616 0
DWIDTH 20 0
BBX 19 23 0 0
BITMAP
03FE000000
03FE000000
7FFFFF4000
7FFFFF4000
7FFFFF4000
7FFFFF4000
03FE000000
03FE000000
03FE000000
03FFFFA400
03FFFFFE40
03FFFFFFD0
03FFFFFFF0
03FE017FF8
03FE001FF8
03FE000FFC
03FE000FFC
03FE001FF8
03FE01BFF8
03FFFFFFF0
03FFFFFFD0
03FFFFFF40
03FFFFA400
ENDCHAR
STARTCHAR uni048D
ENCODING 1165
SWIDTH 613 0
DWIDTH 20 0
BBX 19 24 0 0
BITMAP
0BFD000000
0BFD000000
0BFD000000
FFFFFFC000
FFFFFFC000
FFFFFFC000
0BFD000000
0BFD000000
0BFD000000
0BFD000000
0BFD000000
0BFD000000
0BFD000000
0BFFFFE900
0BFFFFFF80
0BFFFFFFE0
0BFD55BFF4
0BFD001FF4
0BFD001FF8
0BFD002FF4
0BFD55BFF0
0BFFFFFFE0
0BFFFFFF80
0BFFFFE900
ENDCHAR
STARTCHAR uni048E
ENCODING 1166
SWIDTH 627 0
DWIDTH 20 0
BBX 16 23 3 0
BITMAP
FFFFE900
FFFFFF90
FFFFFFF4
FFFFFFF8
FF802FFD
FF800BFD
FF8007FE
FF8007FE
FF8097FE
FF87FBFD
FF83FFFC
FFFFFFF8
FFFFFFE0
FFFFFFC0
FFFFEFD0
FF800BE0
FF800280
FF800000
FF800000
FF800000
FF800000
FF800000
FF800000
ENDCHAR
STARTCHAR uni048F
ENCODING 1167
SWIDTH 632 0
DWIDTH 20 0
BBX 17 25 2 -8
BITMAP
BF81BF8000
BF8BFFF400
BFEFFFFD00
BFFFFFFE00
BFF807FF40
BFE002FF40
BFD001FF80
BFD000FF80
BFD000FF80
BFD004FF80
BFD07EFF80
BFE0FFFF40
BFF87FFF40
BFFFFFFE00
BFFFFFFD00
BFDFFFF800
BFD2BEFE00
BFD000BD00
BFD0002400
BFD0000000
BFD0000000
BFD0000000
BFD0000000
BFD0000000
BFD0000000
ENDCHAR
STARTCHAR afii10050
ENCODING 1168
SWIDTH 581 0
DWIDTH 19 0
BBX 15 28 3 0
BITMAP
000007FC
000007FC
000007FC
000007FC
000007FC
FFFFFFFC
FFFFFFFC
FFFFFFFC
FFFFFFFC
FF800000
FF800000
FF800000
FF800000
FF800000
FF800000
FF800000
FF800000
FF800000
FF800000
FF800000
FF800000
FF800000
FF800000
FF800000
FF800000
FF800000
FF800000
FF800000
ENDCHAR
STARTCHAR afii10098
ENCODING 1169
SWIDTH 512 0
DWIDTH 16 0
BBX 14 22 2 0
BITMAP
00003FD0
00003FD0
00003FD0
00003FD0
00003FD0
BFFFFFD0
BFFFFFD0
BFFFFFD0
BFEAAA80
BFD00000
BFD00000
BFD00000
BFD00000
BFD00000
BFD00000
BFD00000
BFD00000
BFD00000
BFD00000
BFD00000
BFD00000
BFD00000
ENDCHAR
STARTCHAR uni0492
ENCODING 1170
SWIDTH 559 0
DWIDTH 18 0
BBX 18 23 0 0
BITMAP
03FFFFFFD0
03FFFFFFD0
03FFFFFFD0
03FFFFFFD0
03FE000000
03FE000000
03FE000000
03FE000000
03FE000000
03FE000000
7FFFFFF000
7FFFFFF000
7FFFFFF000
7FFFFFF000
03FE000000
03FE000000
03FE000000
03FE000000
03FE000000
03FE000000
03FE000000
03FE000000
03FE000000
ENDCHAR
STARTCHAR uni0493
ENCODING 1171
SWIDTH 491 0
DWIDTH 16 0
BBX 15 17 0 0
BITMAP
0BFFFFFC
0BFFFFFC
0BFFFFFC
0BFFFFFC
0BFC0000
0BFC0000
0BFC0000
FFFFFF00
FFFFFF00
FFFFFF00
AFFEAA00
0BFC0000
0BFC0000
0BFC0000
0BFC0000
0BFC0000
0BFC0000
ENDCHAR
STARTCHAR uni0494
ENCODING 1172
SWIDTH 733 0
DWIDTH 23 0
BBX 19 31 3 -8
BITMAP
FFFFFFF400
FFFFFFF400
FFFFFFF400
FFFFFFF400
FF80000000
FF80000000
FF80000000
FF80000000
FF80000000
FF80000000
FFFFFE4000
FFFFFFF400
FFFFFFFE00
FFFFFFFF80
FFE5AFFFD0
FF8001FFF0
FF80007FF4
FF80002FF8
FF80000FF8
FF80000FF8
FF80000FFC
FF80000FFC
FF80000FF8
0000001FF8
0000002FF4
0000007FF0
002956FFE0
002FFFFFC0
002FFFFF40
002FFFFD00
001AFF9000
ENDCHAR
STARTCHAR uni0495
ENCODING 1173
SWIDTH 602 0
DWIDTH 19 0
BBX 16 25 2 -8
BITMAP
BFFFFFD0
BFFFFFD0
BFFFFFD0
BFFFFFD0
BFD00000
BFD00000
BFD00000
BFFFE800
BFFFFF80
BFFFFFE0
BFFFFFF8
BFD16FFD
BFD00BFE
BFD003FF
BFD002FF
BFD001FF
BFD001FF
000002FF
000003FF
000007FE
00641FFD
00BFFFF8
00BFFFF0
00BFFFC0
002BF900
ENDCHAR
STARTCHAR uni0496
ENCODING 1174
SWIDTH 1028 0
DWIDTH 33 0
BBX 33 30 0 -7
BITMAP
7FE0007FD000BFD000
2FF4007FD001FF8000
0BFC007FD003FF0000
03FE007FD00BFD0000
01FF407FD01FF80000
00BFC07FD03FF00000
003FE07FD0BFD00000
001FF47FD1FF800000
000BFC7FD3FE000000
0003FE7FDBFC000000
0001FFBFEFF4000000
0001FFFFFFF4000000
0003FF7FDFFC000000
000BFD7FD7FE000000
001FF87FD2FF400000
003FF07FD0FFC00000
00BFD07FD07FE00000
01FF807FD02FF40000
03FF007FD00FFD0000
0BFD007FD007FFFF40
1FF8007FD002FFFF40
3FF4007FD000FFFF40
BFE0007FD0007FFF40
00000000000001FF40
00000000000001FF40
00000000000001FF40
00000000000001FF40
00000000000001FF40
00000000000001FF40
00000000000001FF40
ENDCHAR
STARTCHAR uni0497
ENCODING 1175
SWIDTH 941 0
DWIDTH 30 0
BBX 30 23 0 -6
BITMAP
3FF001FF400FFC00
1FF801FF402FF400
07FD01FF407FD000
02FF41FF41FF8000
00BFC1FF43FE0000
003FE1FF4BFC0000
001FF5FF5FF40000
0007FDFF7FD00000
0007FEFFBFD00000
000FFDFF7FF00000
002FF1FF5FF80000
00BFD1FF47FE0000
01FF81FF42FF4000
07FE01FF40BFE550
0FFC01FF403FFFD0
2FF401FF401FFFD0
BFD001FF400BFFD0
0000000000003FD0
0000000000003FD0
0000000000003FD0
0000000000003FD0
0000000000003FD0
0000000000003FD0
ENDCHAR
STARTCHAR uni0498
ENCODING 1176
SWIDTH 647 0
DWIDTH 21 0
BBX 19 31 1 -8
BITMAP
006BFF9000
0BFFFFFD00
7FFFFFFF80
3FFFFFFFD0
1F9001FFE0
0500007FE0
0000003FE0
000000BFD0
000016FF80
00FFFFFD00
00FFFF9000
00FFFFF900
00AAFFFF80
000006FFE0
0000003FF0
0000002FF4
0000002FF4
0000003FF4
790001FFF0
7FFEBFFFD0
7FFFFFFF80
7FFFFFFD00
06BFFE9000
0007E00000
0001F80000
0000BD0000
00007F0000
0000BF0000
001FFE0000
001FFD0000
001BE40000
ENDCHAR
STARTCHAR uni0499
ENCODING 1177
SWIDTH 555 0
DWIDTH 18 0
BBX 16 25 1 -8
BITMAP
06BFF900
7FFFFFD0
3FFFFFF4
2FEAAFFC
140007FC
000007FC
00001FF8
00FFFFE0
00FFFF40
00FFFFE4
00556FFC
000007FD
A4000BFE
BFAABFFD
BFFFFFF8
BFFFFFD0
1AFFE900
002F4000
000FC000
0007E000
0003F000
0007F400
00FFF000
00FFE000
00BF4000
ENDCHAR
STARTCHAR uni049A
ENCODING 1178
SWIDTH 755 0
DWIDTH 24 0
BBX 21 30 3 -7
BITMAP
FF80007FE000
FF8001FFC000
FF8003FF4000
FF800BFD0000
FF801FF80000
FF807FF00000
FF80FFD00000
FF82FF400000
FF87FE000000
FF8FFC000000
FFAFF4000000
FFFFF0000000
FF9FF8000000
FF8BFE000000
FF83FF400000
FF81FFC00000
FF80BFE00000
FF803FF40000
FF801FFD0000
FF8007FFFF80
FF8002FFFF80
FF8000FFFF80
FF80007FFF80
00000000FF80
00000000FF80
00000000FF80
00000000FF80
00000000FF80
00000000FF80
00000000FF80
ENDCHAR
STARTCHAR uni049B
ENCODING 1179
SWIDTH 665 0
DWIDTH 21 0
BBX 19 23 2 -6
BITMAP
BFD001FF80
BFD007FF00
BFD00FFC00
BFD02FF400
BFD0BFD000
BFD1FF8000
BFD7FE0000
BFDFF80000
BFEFF80000
BFDBFD0000
BFD3FF4000
BFD1FFD000
BFD07FF000
BFD01FFD54
BFD00BFFF8
BFD002FFF8
BFD000FFF8
00000007F8
00000007F8
00000007F8
00000007F8
00000007F8
00000007F8
ENDCHAR
STARTCHAR uni049C
ENCODING 1180
SWIDTH 664 0
DWIDTH 21 0
BBX 18 23 3 0
BITMAP
FF8000BFE0
FF8001FFC0
FF8687FF40
FF878FFD00
FF87AFF800
FF87FFE000
FF87FFC000
FF87FF4000
FF8BFE0000
FFAFF80000
FFFFF40000
FFFFFC0000
FFFFFE0000
FFFBFF4000
FFD7FFC000
FF87FFE000
FF87FFF400
FF87AFF800
FF878FFD00
FF8787FF00
FF8002FF80
FF8001FFD0
FF8000BFF0
ENDCHAR
STARTCHAR uni049D
ENCODING 1181
SWIDTH 599 0
DWIDTH 19 0
BBX 17 17 2 0
BITMAP
BFC002FF40
BFC54BFD00
BFCB9FF400
BFCBFFE000
BFCBFF8000
BFCBFF0000
BFCBFC0000
BFDFF40000
BFFFF00000
BFDFF80000
BFCBFE0000
BFCBFF4000
BFCBFFD000
BFCBAFF400
BFCB8FFC00
BFC647FE00
BFC001FF80
ENDCHAR
STARTCHAR uni049E
ENCODING 1182
SWIDTH 643 0
DWIDTH 21 0
BBX 21 23 0 0
BITMAP
0BFC0007FF40
0BFC000FFD00
FFFFD02FF800
FFFFD0BFE000
FFFFD1FFC000
FFFFD7FF4000
0BFC0FFD0000
0BFC2FF80000
0BFCBFE00000
0BFDFFC00000
0BFFFF800000
0BFFFFD00000
0BFFFFF00000
0BFFAFF80000
0BFD1FFD0000
0BFC0BFF0000
0BFC03FF8000
0BFC01FFC000
0BFC00BFE000
0BFC003FF400
0BFC001FFC00
0BFC000BFE00
0BFC0007FF40
ENDCHAR
STARTCHAR uni049F
ENCODING 1183
SWIDTH 620 0
DWIDTH 20 0
BBX 20 24 0 0
BITMAP
0BFD000000
0BFD000000
0BFD000000
FFFFFF4000
FFFFFF4000
FFFFFF4000
0BFD000000
0BFD001FFC
0BFD007FF0
0BFD01FFC0
0BFD07FF40
0BFD1FFD00
0BFC3FF400
0BFCFFD000
0BFEFF8000
0BFFFFD000
0BFFFFF000
0BFFAFF800
0BFE0BFE00
0BFD03FF40
0BFD01FFD0
0BFD00BFF0
0BFD002FF8
0BFD000FFD
ENDCHAR
STARTCHAR uni04A0
ENCODING 1184
SWIDTH 732 0
DWIDTH 23 0
BBX 23 23 0 0
BITMAP
FFFFF0001FFC
FFFFF0007FF4
FFFFF000FFD0
FFFFF002FF80
003FF00BFE00
003FF01FFC00
003FF03FF400
003FF0FFE000
003FF2FF8000
003FF7FF0000
003FFFFE0000
003FFFFF4000
003FFFFFC000
003FFEFFD000
003FF47FF000
003FF02FF800
003FF00FFD00
003FF007FF00
003FF002FF80
003FF001FFD0
003FF000BFF0
003FF0003FF8
003FF0001FFC
ENDCHAR
STARTCHAR uni04A1
ENCODING 1185
SWIDTH 694 0
DWIDTH 22 0
BBX 22 17 0 0
BITMAP
FFFFF000BFD0
FFFFF002FF40
FFFFF007FE00
AAAFF01FF800
001FF03FE000
001FF0BFC000
001FF2FF4000
001FF7FD0000
001FFBFC0000
001FF3FE0000
001FF1FF8000
001FF07FE000
001FF02FF400
001FF00BFD00
001FF003FF00
001FF000FFC0
001FF0007FE0
ENDCHAR
STARTCHAR uni04A2
ENCODING 1186
SWIDTH 840 0
DWIDTH 27 0
BBX 24 30 3 -7
BITMAP
FF80001FF800
FF80001FF800
FF80001FF800
FF80001FF800
FF80001FF800
FF80001FF800
FF80001FF800
FF80001FF800
FF80001FF800
FFFFFFFFF800
FFFFFFFFF800
FFFFFFFFF800
FFFFFFFFF800
FF80001FF800
FF80001FF800
FF80001FF800
FF80001FF800
FF80001FF800
FF80001FF800
FF80001FFFFD
FF80001FFFFD
FF80001FFFFD
FF80001FFFFD
0000000007FD
0000000007FD
0000000007FD
0000000007FD
0000000007FD
0000000007FD
0000000007FD
ENDCHAR
STARTCHAR uni04A3
ENCODING 1187
SWIDTH 743 0
DWIDTH 24 0
BBX 21 23 2 -6
BITMAP
BFD000FF8000
BFD000FF8000
BFD000FF8000
BFD000FF8000
BFD000FF8000
BFD000FF8000
BFD000FF8000
BFFFFFFF8000
BFFFFFFF8000
BFFFFFFF8000
BFEAAAFF8000
BFD000FF8000
BFD000FF8000
BFD000FFD540
BFD000FFFFC0
BFD000FFFFC0
BFD000FFFFC0
000000007FC0
000000007FC0
000000007FC0
000000007FC0
000000007FC0
000000007FC0
ENDCHAR
ENDFONT
